SplineFontDB: 3.0
FontName: PTSans-Narrow
FullName: PT Sans Narrow
FamilyName: PT Sans Narrow
Weight: Book
Copyright: Copyright (c) 2009 ParaType Ltd. All rights reserved.
Version: 2.003W OFL
ItalicAngle: 0
UnderlinePosition: -50
UnderlineWidth: 50
Ascent: 800
Descent: 200
sfntRevision: 0x000200c5
LayerCount: 2
Layer: 0 1 "Back"  1
Layer: 1 1 "Fore"  0
XUID: [1021 631 875253810 1746777]
FSType: 0
OS2Version: 3
OS2_WeightWidthSlopeOnly: 0
OS2_UseTypoMetrics: 1
CreationTime: 1293016736
ModificationTime: 1476687616
PfmFamily: 17
TTFWeight: 400
TTFWidth: 3
LineGap: 0
VLineGap: 0
Panose: 2 11 5 6 2 2 3 2 2 4
OS2TypoAscent: 1018
OS2TypoAOffset: 0
OS2TypoDescent: -276
OS2TypoDOffset: 0
OS2TypoLinegap: 0
OS2WinAscent: 1018
OS2WinAOffset: 0
OS2WinDescent: 276
OS2WinDOffset: 0
HheadAscent: 1018
HheadAOffset: 0
HheadDescent: -276
HheadDOffset: 0
OS2SubXSize: 650
OS2SubYSize: 600
OS2SubXOff: 0
OS2SubYOff: 75
OS2SupXSize: 650
OS2SupYSize: 600
OS2SupXOff: 0
OS2SupYOff: 350
OS2StrikeYSize: 50
OS2StrikeYPos: 250
OS2FamilyClass: 2050
OS2Vendor: 'PARA'
OS2CodePages: 20000097.00000000
OS2UnicodeRanges: a00002ef.5000204b.00000000.00000000
Lookup: 1 0 0 "'aalt' Access All Alternates lookup 0"  {"'aalt' Access All Alternates lookup 0 subtable"  } ['aalt' ('cyrl' <'BSH ' 'CHU ' 'dflt' > 'latn' <'MOL ' 'ROM ' 'dflt' > ) ]
Lookup: 3 0 0 "'aalt' Access All Alternates lookup 1"  {"'aalt' Access All Alternates lookup 1 subtable"  } ['aalt' ('cyrl' <'BSH ' 'CHU ' 'dflt' > 'latn' <'MOL ' 'ROM ' 'dflt' > ) ]
Lookup: 6 0 0 "'ccmp' Glyph Composition/Decomposition lookup 2"  {"'ccmp' Glyph Composition/Decomposition lookup 2 contextual 0"  "'ccmp' Glyph Composition/Decomposition lookup 2 contextual 1"  } ['ccmp' ('cyrl' <'BSH ' 'CHU ' 'dflt' > 'latn' <'MOL ' 'ROM ' 'dflt' > ) ]
Lookup: 1 0 0 "'locl' Localized Forms in Latin lookup 3"  {"'locl' Localized Forms in Latin lookup 3 subtable"  } ['locl' ('latn' <'ROM ' > ) ]

StartChar: .notdef
Encoding: 65536 -1 0
Width: 750
Flags: W
LayerCount: 2
Fore
SplineSet
50 700 m 1,0,-1
 700 700 l 1,1,-1
 700 0 l 1,2,-1
 50 0 l 1,3,-1
 50 700 l 1,0,-1
570 620 m 1,4,-1
 375 403 l 1,5,-1
 180 620 l 1,6,-1
 130 570 l 1,7,-1
 327 350 l 1,8,-1
 130 130 l 1,9,-1
 180 80 l 1,10,-1
 375 297 l 1,11,-1
 570 80 l 1,12,-1
 620 130 l 1,13,-1
 422 350 l 1,14,-1
 620 570 l 1,15,-1
 570 620 l 1,4,-1
129 27 m 1,16,-1
 137 27 l 1,17,-1
 137 39 l 1,18,-1
 141 39 l 2,19,20
 147 39 147 39 152 41.5 c 128,-1,21
 157 44 157 44 157 51 c 0,22,23
 157 59 157 59 151.5 61 c 128,-1,24
 146 63 146 63 140 63 c 2,25,-1
 129 63 l 1,26,-1
 129 27 l 1,16,-1
141 57 m 2,27,28
 149 57 149 57 149 52 c 256,29,30
 149 47 149 47 146.5 46.5 c 128,-1,31
 144 46 144 46 140 46 c 2,32,-1
 137 46 l 1,33,-1
 137 57 l 1,34,-1
 141 57 l 2,27,28
189 63 m 1,35,-1
 158 63 l 1,36,-1
 158 57 l 1,37,-1
 170 57 l 1,38,-1
 170 27 l 1,39,-1
 177 27 l 1,40,-1
 177 57 l 1,41,-1
 189 57 l 1,42,-1
 189 63 l 1,35,-1
222 37 m 0,43,44
 222 33 222 33 215 33 c 256,45,46
 208 33 208 33 206 35 c 1,47,-1
 203 28 l 1,48,49
 205 28 205 28 208 27 c 128,-1,50
 211 26 211 26 216 26 c 0,51,52
 230 26 230 26 230 38 c 0,53,54
 230 47 230 47 221 48 c 128,-1,55
 212 49 212 49 212 54 c 0,56,57
 212 57 212 57 218 57 c 0,58,59
 223 57 223 57 227 55 c 1,60,-1
 229 62 l 1,61,62
 223 64 223 64 218 64 c 0,63,64
 204 64 204 64 204 53 c 0,65,66
 204 48 204 48 207 46 c 128,-1,67
 210 44 210 44 213 42.5 c 128,-1,68
 216 41 216 41 219 40 c 128,-1,69
 222 39 222 39 222 37 c 0,43,44
237 47 m 1,70,71
 241 49 241 49 246 49 c 256,72,73
 251 49 251 49 251 45 c 2,74,-1
 251 43 l 1,75,76
 250 43 250 43 249 43.5 c 128,-1,77
 248 44 248 44 246 44 c 0,78,79
 234 44 234 44 234 34 c 0,80,81
 234 26 234 26 242 26 c 0,82,83
 248 26 248 26 251 31 c 1,84,-1
 253 27 l 1,85,-1
 259 27 l 1,86,87
 258 29 258 29 258 34 c 2,88,-1
 258 45 l 2,89,90
 258 55 258 55 248 55 c 0,91,92
 244 55 244 55 240.5 54 c 128,-1,93
 237 53 237 53 235 52 c 1,94,-1
 237 47 l 1,70,71
245 32 m 256,95,96
 241 32 241 32 241 36 c 256,97,98
 241 40 241 40 246 40 c 0,99,100
 248 40 248 40 249 39.5 c 128,-1,101
 250 39 250 39 251 39 c 1,102,-1
 251 36 l 1,103,104
 249 32 249 32 245 32 c 256,95,96
292 27 m 1,105,-1
 292 43 l 2,106,107
 292 55 292 55 283 55 c 0,108,109
 276 55 276 55 273 50 c 1,110,-1
 271 54 l 1,111,-1
 266 54 l 1,112,-1
 266 27 l 1,113,-1
 273 27 l 1,114,-1
 273 44 l 1,115,116
 275 48 275 48 279 48 c 0,117,118
 284 48 284 48 284 42 c 2,119,-1
 284 27 l 1,120,-1
 292 27 l 1,105,-1
297 28 m 1,121,122
 301 26 301 26 307 26 c 0,123,124
 318 26 318 26 318 35 c 0,125,126
 318 40 318 40 315.5 41 c 128,-1,127
 313 42 313 42 310 44 c 0,128,129
 305 46 305 46 305 47 c 0,130,131
 305 49 305 49 308 49 c 0,132,133
 312 49 312 49 316 47 c 1,134,-1
 318 53 l 1,135,136
 314 55 314 55 308 55 c 0,137,138
 298 55 298 55 298 46 c 0,139,140
 298 41 298 41 301 39.5 c 128,-1,141
 304 38 304 38 306 37 c 1,142,143
 311 37 311 37 311 34 c 0,144,145
 311 32 311 32 308 32 c 0,146,147
 303 32 303 32 299 34 c 1,148,-1
 297 28 l 1,121,122
338 42 m 0,149,150
 338 21 338 21 358 21 c 256,151,152
 378 21 378 21 378 42 c 0,153,154
 378 62 378 62 358 62 c 0,155,156
 350 62 350 62 344 56.5 c 128,-1,157
 338 51 338 51 338 42 c 0,149,150
344 42 m 256,158,159
 344 57 344 57 358 57 c 256,160,161
 372 57 372 57 372 42 c 256,162,163
 372 27 372 27 358 27 c 256,164,165
 344 27 344 27 344 42 c 256,158,159
364 38 m 1,166,167
 362 37 362 37 360 37 c 0,168,169
 356 37 356 37 356 42 c 0,170,171
 356 46 356 46 360 46 c 2,172,-1
 363 46 l 1,173,-1
 365 50 l 1,174,175
 361 52 361 52 358 52 c 0,176,177
 349 52 349 52 349 42 c 0,178,179
 349 31 349 31 358 31 c 0,180,181
 363 31 363 31 365 33 c 1,182,-1
 364 38 l 1,166,167
399 27 m 1,183,-1
 407 27 l 1,184,-1
 407 39 l 1,185,-1
 411 39 l 2,186,187
 417 39 417 39 422 41.5 c 128,-1,188
 427 44 427 44 427 51 c 0,189,190
 427 59 427 59 421.5 61 c 128,-1,191
 416 63 416 63 410 63 c 2,192,-1
 399 63 l 1,193,-1
 399 27 l 1,183,-1
411 57 m 2,194,195
 419 57 419 57 419 52 c 256,196,197
 419 47 419 47 416.5 46.5 c 128,-1,198
 414 46 414 46 410 46 c 2,199,-1
 407 46 l 1,200,-1
 407 57 l 1,201,-1
 411 57 l 2,194,195
432 47 m 1,202,203
 436 49 436 49 441 49 c 256,204,205
 446 49 446 49 446 45 c 2,206,-1
 446 43 l 1,207,208
 445 43 445 43 444 43.5 c 128,-1,209
 443 44 443 44 441 44 c 0,210,211
 428 44 428 44 428 34 c 0,212,213
 428 26 428 26 437 26 c 0,214,215
 443 26 443 26 446 31 c 1,216,-1
 448 27 l 1,217,-1
 454 27 l 1,218,219
 453 29 453 29 453 34 c 2,220,-1
 453 45 l 2,221,222
 453 55 453 55 443 55 c 0,223,224
 439 55 439 55 435.5 54 c 128,-1,225
 432 53 432 53 430 52 c 1,226,-1
 432 47 l 1,202,203
440 32 m 256,227,228
 436 32 436 32 436 36 c 256,229,230
 436 40 436 40 441 40 c 0,231,232
 443 40 443 40 444 39.5 c 128,-1,233
 445 39 445 39 446 39 c 1,234,-1
 446 36 l 1,235,236
 444 32 444 32 440 32 c 256,227,228
478 54 m 1,237,238
 477 55 477 55 474 55 c 0,239,240
 470 55 470 55 468 50 c 1,241,-1
 467 50 l 1,242,-1
 466 54 l 1,243,-1
 460 54 l 1,244,-1
 460 27 l 1,245,-1
 468 27 l 1,246,-1
 468 44 l 2,247,248
 468 48 468 48 474 48 c 2,249,-1
 475 48 l 2,250,251
 476 48 476 48 476 47.5 c 128,-1,252
 476 47 476 47 477 47 c 2,253,-1
 478 54 l 1,237,238
483 47 m 1,254,255
 489 49 489 49 492 49 c 0,256,257
 497 49 497 49 497 45 c 2,258,-1
 497 43 l 1,259,260
 496 43 496 43 495 43.5 c 128,-1,261
 494 44 494 44 492 44 c 0,262,263
 479 44 479 44 479 34 c 0,264,265
 479 26 479 26 488 26 c 0,266,267
 495 26 495 26 497 31 c 1,268,-1
 498 31 l 1,269,-1
 499 27 l 1,270,-1
 505 27 l 1,271,272
 504 29 504 29 504 34 c 2,273,-1
 504 45 l 2,274,275
 504 55 504 55 494 55 c 0,276,277
 490 55 490 55 487 54 c 128,-1,278
 484 53 484 53 482 52 c 1,279,-1
 483 47 l 1,254,255
491 32 m 256,280,281
 487 32 487 32 487 36 c 256,282,283
 487 40 487 40 492 40 c 0,284,285
 494 40 494 40 495 39.5 c 128,-1,286
 496 39 496 39 497 39 c 1,287,-1
 497 36 l 1,288,289
 495 32 495 32 491 32 c 256,280,281
533 63 m 1,290,-1
 502 63 l 1,291,-1
 502 57 l 1,292,-1
 513 57 l 1,293,-1
 513 27 l 1,294,-1
 521 27 l 1,295,-1
 521 57 l 1,296,-1
 533 57 l 1,297,-1
 533 63 l 1,290,-1
541 54 m 1,298,-1
 533 54 l 1,299,-1
 545 27 l 1,300,301
 544 22 544 22 540 22 c 1,302,-1
 539 23 l 1,303,-1
 537 17 l 1,304,305
 539 16 539 16 542 16 c 0,306,307
 547 16 547 16 552 29 c 2,308,-1
 562 54 l 1,309,-1
 554 54 l 1,310,-1
 549 39 l 1,311,-1
 549 34 l 1,312,-1
 548 34 l 1,313,-1
 547 39 l 1,314,-1
 541 54 l 1,298,-1
565 16 m 1,315,-1
 573 16 l 1,316,-1
 573 28 l 1,317,318
 574 26 574 26 578 26 c 0,319,320
 592 26 592 26 592 41 c 0,321,322
 592 55 592 55 581 55 c 0,323,324
 576 55 576 55 572 51 c 1,325,-1
 571 51 l 1,326,-1
 570 54 l 1,327,-1
 565 54 l 1,328,-1
 565 16 l 1,315,-1
579 49 m 0,329,330
 584 49 584 49 584 41 c 0,331,332
 584 32 584 32 577 32 c 0,333,334
 575 32 575 32 573 34 c 1,335,-1
 573 44 l 2,336,337
 573 49 573 49 579 49 c 0,329,330
618 34 m 1,338,339
 616 32 616 32 611 32 c 0,340,341
 604 32 604 32 603 38 c 1,342,-1
 622 38 l 1,343,-1
 622 44 l 2,344,345
 622 50 622 50 618.5 52.5 c 128,-1,346
 615 55 615 55 610 55 c 0,347,348
 596 55 596 55 596 40 c 0,349,350
 596 26 596 26 610 26 c 0,351,352
 613 26 613 26 616 27 c 128,-1,353
 619 28 619 28 621 29 c 1,354,-1
 618 34 l 1,338,339
610 49 m 256,355,356
 616 49 616 49 615 43 c 1,357,-1
 604 43 l 1,358,359
 604 49 604 49 610 49 c 256,355,356
EndSplineSet
EndChar

StartChar: exclam
Encoding: 33 33 4
Width: 247
Flags: W
LayerCount: 2
Fore
SplineSet
101 700 m 1,0,-1
 176 700 l 1,1,-1
 176 353 l 1,2,-1
 161 177 l 1,3,-1
 116 177 l 1,4,-1
 101 353 l 1,5,-1
 101 700 l 1,0,-1
88 45 m 0,6,7
 88 73 88 73 101.5 87 c 128,-1,8
 115 101 115 101 138 101 c 256,9,10
 161 101 161 101 174.5 87 c 128,-1,11
 188 73 188 73 188 45 c 0,12,13
 188 16 188 16 174.5 2 c 128,-1,14
 161 -12 161 -12 138 -12 c 256,15,16
 115 -12 115 -12 101.5 2 c 128,-1,17
 88 16 88 16 88 45 c 0,6,7
EndSplineSet
EndChar

StartChar: numbersign
Encoding: 35 35 6
Width: 450
Flags: W
LayerCount: 2
Fore
SplineSet
230 225 m 1,0,-1
 148 225 l 1,1,-1
 116 58 l 1,2,-1
 55 58 l 1,3,-1
 87 225 l 1,4,-1
 24 225 l 1,5,-1
 37 285 l 1,6,-1
 98 285 l 1,7,-1
 125 425 l 1,8,-1
 64 425 l 1,9,-1
 77 485 l 1,10,-1
 137 485 l 1,11,-1
 167 642 l 1,12,-1
 228 642 l 1,13,-1
 198 485 l 1,14,-1
 280 485 l 1,15,-1
 311 642 l 1,16,-1
 372 642 l 1,17,-1
 342 485 l 1,18,-1
 403 485 l 1,19,-1
 389 425 l 1,20,-1
 330 425 l 1,21,-1
 303 285 l 1,22,-1
 363 285 l 1,23,-1
 349 225 l 1,24,-1
 292 225 l 1,25,-1
 260 58 l 1,26,-1
 198 58 l 1,27,-1
 230 225 l 1,0,-1
159 285 m 1,28,-1
 242 285 l 1,29,-1
 269 425 l 1,30,-1
 186 425 l 1,31,-1
 159 285 l 1,28,-1
EndSplineSet
EndChar

StartChar: dollar
Encoding: 36 36 7
Width: 450
Flags: W
LayerCount: 2
Fore
SplineSet
196 -12 m 1,0,1
 152 -10 152 -10 118.5 -3 c 128,-1,2
 85 4 85 4 63 18 c 1,3,-1
 86 86 l 1,4,5
 102 75 102 75 130 65 c 128,-1,6
 158 55 158 55 196 53 c 1,7,-1
 196 337 l 1,8,9
 171 353 171 353 147.5 371 c 128,-1,10
 124 389 124 389 105.5 413 c 128,-1,11
 87 437 87 437 75.5 468.5 c 128,-1,12
 64 500 64 500 64 543 c 0,13,14
 64 609 64 609 97.5 653.5 c 128,-1,15
 131 698 131 698 196 709 c 1,16,-1
 196 800 l 1,17,-1
 257 800 l 1,18,-1
 257 711 l 1,19,20
 296 709 296 709 322 703.5 c 128,-1,21
 348 698 348 698 371 687 c 1,22,-1
 348 622 l 1,23,24
 331 631 331 631 310 637.5 c 128,-1,25
 289 644 289 644 257 646 c 1,26,-1
 257 388 l 1,27,28
 282 371 282 371 307 352 c 128,-1,29
 332 333 332 333 351.5 308.5 c 128,-1,30
 371 284 371 284 383 252.5 c 128,-1,31
 395 221 395 221 395 179 c 0,32,33
 395 107 395 107 359.5 57 c 128,-1,34
 324 7 324 7 257 -7 c 1,35,-1
 257 -100 l 1,36,-1
 196 -100 l 1,37,-1
 196 -12 l 1,0,1
241 57 m 1,38,39
 277 65 277 65 298.5 94.5 c 128,-1,40
 320 124 320 124 320 174 c 0,41,42
 320 222 320 222 297 252 c 128,-1,43
 274 282 274 282 241 306 c 1,44,-1
 241 57 l 1,38,39
212 644 m 1,45,46
 171 636 171 636 155 607 c 128,-1,47
 139 578 139 578 139 546 c 0,48,49
 139 502 139 502 159.5 473 c 128,-1,50
 180 444 180 444 212 420 c 1,51,-1
 212 644 l 1,45,46
EndSplineSet
EndChar

StartChar: ampersand
Encoding: 38 38 9
Width: 656
Flags: W
LayerCount: 2
Fore
SplineSet
91 188 m 0,0,1
 91 228 91 228 103 263.5 c 128,-1,2
 115 299 115 299 134.5 329.5 c 128,-1,3
 154 360 154 360 179 385 c 128,-1,4
 204 410 204 410 230 430 c 1,5,6
 210 466 210 466 195 504 c 128,-1,7
 180 542 180 542 180 584 c 0,8,9
 180 608 180 608 186.5 631 c 128,-1,10
 193 654 193 654 208 672 c 128,-1,11
 223 690 223 690 246 701 c 128,-1,12
 269 712 269 712 302 712 c 0,13,14
 336 712 336 712 359.5 702 c 128,-1,15
 383 692 383 692 397 676 c 128,-1,16
 411 660 411 660 417.5 639.5 c 128,-1,17
 424 619 424 619 424 597 c 0,18,19
 424 554 424 554 397 509 c 128,-1,20
 370 464 370 464 315 421 c 1,21,22
 328 393 328 393 344.5 362.5 c 128,-1,23
 361 332 361 332 379.5 301.5 c 128,-1,24
 398 271 398 271 417.5 241.5 c 128,-1,25
 437 212 437 212 456 187 c 1,26,27
 474 212 474 212 490 254 c 128,-1,28
 506 296 506 296 516 335 c 1,29,-1
 574 312 l 1,30,31
 569 295 569 295 560 271 c 128,-1,32
 551 247 551 247 540.5 222.5 c 128,-1,33
 530 198 530 198 518.5 175.5 c 128,-1,34
 507 153 507 153 497 138 c 1,35,36
 530 99 530 99 552.5 77.5 c 128,-1,37
 575 56 575 56 598 40 c 1,38,-1
 553 -12 l 1,39,40
 508 14 508 14 455 81 c 1,41,42
 441 63 441 63 423.5 46.5 c 128,-1,43
 406 30 406 30 384.5 17 c 128,-1,44
 363 4 363 4 336.5 -4 c 128,-1,45
 310 -12 310 -12 279 -12 c 0,46,47
 240 -12 240 -12 205.5 0.5 c 128,-1,48
 171 13 171 13 145.5 38 c 128,-1,49
 120 63 120 63 105.5 100.5 c 128,-1,50
 91 138 91 138 91 188 c 0,0,1
413 130 m 1,51,52
 390 159 390 159 368 192 c 128,-1,53
 346 225 346 225 326 258 c 128,-1,54
 306 291 306 291 289.5 322 c 128,-1,55
 273 353 273 353 262 379 c 1,56,57
 241 359 241 359 223 339 c 128,-1,58
 205 319 205 319 191.5 296.5 c 128,-1,59
 178 274 178 274 170.5 247.5 c 128,-1,60
 163 221 163 221 163 189 c 0,61,62
 163 156 163 156 173 130.5 c 128,-1,63
 183 105 183 105 200.5 88 c 128,-1,64
 218 71 218 71 240.5 62 c 128,-1,65
 263 53 263 53 288 53 c 0,66,67
 307 53 307 53 326 60 c 128,-1,68
 345 67 345 67 361.5 78 c 128,-1,69
 378 89 378 89 391 102.5 c 128,-1,70
 404 116 404 116 413 130 c 1,51,52
252 584 m 0,71,72
 252 554 252 554 261.5 525 c 128,-1,73
 271 496 271 496 286 466 c 1,74,75
 327 501 327 501 342.5 530 c 128,-1,76
 358 559 358 559 358 582 c 0,77,78
 358 610 358 610 346.5 630.5 c 128,-1,79
 335 651 335 651 305 651 c 0,80,81
 277 651 277 651 264.5 632 c 128,-1,82
 252 613 252 613 252 584 c 0,71,72
EndSplineSet
EndChar

StartChar: quotesingle
Encoding: 39 39 10
Width: 181
Flags: W
LayerCount: 2
Fore
SplineSet
72 700 m 1,0,-1
 141 700 l 1,1,-1
 115 507 l 1,2,-1
 72 507 l 1,3,-1
 72 700 l 1,0,-1
EndSplineSet
Substitution2: "'aalt' Access All Alternates lookup 0 subtable" uniF634
EndChar

StartChar: parenleft
Encoding: 40 40 11
Width: 233
Flags: W
LayerCount: 2
Fore
SplineSet
183 -220 m 1,0,1
 145 -172 145 -172 119.5 -114.5 c 128,-1,2
 94 -57 94 -57 78 3.5 c 128,-1,3
 62 64 62 64 55 125.5 c 128,-1,4
 48 187 48 187 48 243 c 0,5,6
 48 298 48 298 55 359 c 128,-1,7
 62 420 62 420 78 481.5 c 128,-1,8
 94 543 94 543 120.5 602 c 128,-1,9
 147 661 147 661 185 712 c 1,10,-1
 230 685 l 1,11,12
 198 634 198 634 177 578 c 128,-1,13
 156 522 156 522 143.5 464.5 c 128,-1,14
 131 407 131 407 125.5 350.5 c 128,-1,15
 120 294 120 294 120 243 c 0,16,17
 120 195 120 195 126 137.5 c 128,-1,18
 132 80 132 80 145.5 22 c 128,-1,19
 159 -36 159 -36 180 -91 c 128,-1,20
 201 -146 201 -146 230 -190 c 1,21,-1
 183 -220 l 1,0,1
EndSplineSet
Position2: "'case' Case-Sensitive Forms lookup 1 per glyph data 3" dx=0 dy=100 dh=0 dv=0
EndChar

StartChar: parenright
Encoding: 41 41 12
Width: 233
Flags: W
LayerCount: 2
Fore
SplineSet
48 -190 m 1,0,1
 77 -146 77 -146 98 -91 c 128,-1,2
 119 -36 119 -36 132.5 22 c 128,-1,3
 146 80 146 80 152 137.5 c 128,-1,4
 158 195 158 195 158 243 c 0,5,6
 158 294 158 294 152.5 350.5 c 128,-1,7
 147 407 147 407 134.5 464.5 c 128,-1,8
 122 522 122 522 100.5 578 c 128,-1,9
 79 634 79 634 48 685 c 1,10,-1
 93 712 l 1,11,12
 131 661 131 661 157.5 602 c 128,-1,13
 184 543 184 543 200 481.5 c 128,-1,14
 216 420 216 420 223 359 c 128,-1,15
 230 298 230 298 230 243 c 0,16,17
 230 187 230 187 223 125.5 c 128,-1,18
 216 64 216 64 200 3.5 c 128,-1,19
 184 -57 184 -57 158 -114.5 c 128,-1,20
 132 -172 132 -172 95 -220 c 1,21,-1
 48 -190 l 1,0,1
EndSplineSet
Position2: "'case' Case-Sensitive Forms lookup 1 per glyph data 3" dx=0 dy=100 dh=0 dv=0
EndChar

StartChar: asterisk
Encoding: 42 42 13
Width: 291
Flags: W
LayerCount: 2
Fore
SplineSet
108 703 m 1,0,-1
 128 665 l 1,1,-1
 143 613 l 1,2,-1
 159 665 l 1,3,-1
 180 702 l 1,4,-1
 224 678 l 1,5,-1
 201 638 l 1,6,-1
 163 595 l 1,7,-1
 218 606 l 1,8,-1
 260 606 l 1,9,-1
 260 555 l 1,10,-1
 221 555 l 1,11,-1
 167 566 l 1,12,-1
 206 522 l 1,13,-1
 226 487 l 1,14,-1
 183 462 l 1,15,-1
 162 500 l 1,16,-1
 143 555 l 1,17,-1
 128 502 l 1,18,-1
 107 465 l 1,19,-1
 63 490 l 1,20,-1
 86 528 l 1,21,-1
 121 566 l 1,22,-1
 74 555 l 1,23,-1
 30 555 l 1,24,-1
 30 606 l 1,25,-1
 74 606 l 1,26,-1
 124 595 l 1,27,-1
 86 636 l 1,28,-1
 64 677 l 1,29,-1
 108 703 l 1,0,-1
EndSplineSet
EndChar

StartChar: plus
Encoding: 43 43 14
Width: 415
Flags: W
LayerCount: 2
Fore
SplineSet
35 373 m 1,0,-1
 173 373 l 1,1,-1
 173 529 l 1,2,-1
 241 529 l 1,3,-1
 241 373 l 1,4,-1
 379 373 l 1,5,-1
 379 306 l 1,6,-1
 241 306 l 1,7,-1
 241 150 l 1,8,-1
 173 150 l 1,9,-1
 173 306 l 1,10,-1
 35 306 l 1,11,-1
 35 373 l 1,0,-1
EndSplineSet
EndChar

StartChar: comma
Encoding: 44 44 15
Width: 186
Flags: W
LayerCount: 2
Fore
SplineSet
36 43 m 4,0,1
 36 68 36 68 50.5 83 c 132,-1,2
 65 98 65 98 88 98 c 4,3,4
 114 98 114 98 130.5 77 c 132,-1,5
 147 56 147 56 147 11 c 4,6,7
 147 -22 147 -22 138.5 -48.5 c 132,-1,8
 130 -75 130 -75 116.5 -95 c 132,-1,9
 103 -115 103 -115 87 -128 c 132,-1,10
 71 -141 71 -141 56 -147 c 5,11,-1
 31 -113 l 5,12,13
 44 -106 44 -106 55.5 -94.5 c 132,-1,14
 67 -83 67 -83 74.5 -69 c 132,-1,15
 82 -55 82 -55 86 -39.5 c 132,-1,16
 90 -24 90 -24 90 -9 c 5,17,18
 70 -15 70 -15 53 -1 c 132,-1,19
 36 13 36 13 36 43 c 4,0,1
EndSplineSet
EndChar

StartChar: hyphen
Encoding: 45 45 16
Width: 291
Flags: W
LayerCount: 2
Fore
SplineSet
47 320 m 1,0,-1
 244 320 l 1,1,-1
 244 251 l 1,2,-1
 47 251 l 1,3,-1
 47 320 l 1,0,-1
EndSplineSet
Position2: "'case' Case-Sensitive Forms lookup 1 per glyph data 2" dx=0 dy=80 dh=0 dv=0
EndChar

StartChar: period
Encoding: 46 46 17
Width: 178
Flags: W
LayerCount: 2
Fore
SplineSet
39 45 m 4,0,1
 39 73 39 73 52.5 87 c 132,-1,2
 66 101 66 101 89 101 c 260,3,4
 112 101 112 101 125.5 87 c 132,-1,5
 139 73 139 73 139 45 c 4,6,7
 139 16 139 16 125.5 2 c 132,-1,8
 112 -12 112 -12 89 -12 c 260,9,10
 66 -12 66 -12 52.5 2 c 132,-1,11
 39 16 39 16 39 45 c 4,0,1
EndSplineSet
EndChar

StartChar: slash
Encoding: 47 47 18
Width: 295
Flags: W
LayerCount: 2
Fore
SplineSet
266 712 m 1,0,-1
 322 690 l 1,1,-1
 30 -140 l 1,2,-1
 -28 -119 l 1,3,-1
 266 712 l 1,0,-1
EndSplineSet
EndChar

StartChar: zero
Encoding: 48 48 19
Width: 450
Flags: W
LayerCount: 2
Fore
SplineSet
38 350 m 0,0,1
 38 446 38 446 50 515 c 128,-1,2
 62 584 62 584 86 627.5 c 128,-1,3
 110 671 110 671 145 691.5 c 128,-1,4
 180 712 180 712 225 712 c 0,5,6
 273 712 273 712 308.5 691.5 c 128,-1,7
 344 671 344 671 367 627.5 c 128,-1,8
 390 584 390 584 401 515 c 128,-1,9
 412 446 412 446 412 350 c 0,10,11
 412 253 412 253 400 184.5 c 128,-1,12
 388 116 388 116 364 72.5 c 128,-1,13
 340 29 340 29 305.5 8.5 c 128,-1,14
 271 -12 271 -12 226 -12 c 0,15,16
 177 -12 177 -12 141.5 9 c 128,-1,17
 106 30 106 30 83 74 c 128,-1,18
 60 118 60 118 49 186.5 c 128,-1,19
 38 255 38 255 38 350 c 0,0,1
113 350 m 0,20,21
 113 207 113 207 140 130 c 128,-1,22
 167 53 167 53 227 53 c 0,23,24
 285 53 285 53 311.5 123.5 c 128,-1,25
 338 194 338 194 338 350 c 0,26,27
 338 492 338 492 312.5 569.5 c 128,-1,28
 287 647 287 647 225 647 c 0,29,30
 167 647 167 647 140 577 c 128,-1,31
 113 507 113 507 113 350 c 0,20,21
EndSplineSet
EndChar

StartChar: one
Encoding: 49 49 20
Width: 450
Flags: W
LayerCount: 2
Fore
SplineSet
94 67 m 1,0,-1
 207 67 l 1,1,-1
 207 554 l 1,2,-1
 216 613 l 1,3,-1
 182 565 l 1,4,-1
 98 497 l 1,5,-1
 60 542 l 1,6,-1
 242 712 l 1,7,-1
 279 712 l 1,8,-1
 279 67 l 1,9,-1
 388 67 l 1,10,-1
 388 0 l 1,11,-1
 94 0 l 1,12,-1
 94 67 l 1,0,-1
EndSplineSet
Substitution2: "'sups' Superscript lookup 8 subtable" onesuperior
AlternateSubs2: "'aalt' Access All Alternates lookup 1 subtable" one.numerator onesuperior
EndChar

StartChar: two
Encoding: 50 50 21
Width: 450
Flags: W
LayerCount: 2
Fore
SplineSet
368 547 m 0,0,1
 368 492 368 492 351.5 432 c 128,-1,2
 335 372 335 372 309.5 313.5 c 128,-1,3
 284 255 284 255 252.5 201 c 128,-1,4
 221 147 221 147 191 105 c 1,5,-1
 151 61 l 1,6,-1
 151 58 l 1,7,-1
 204 67 l 1,8,-1
 379 67 l 1,9,-1
 379 0 l 1,10,-1
 55 0 l 1,11,-1
 55 32 l 1,12,13
 74 55 74 55 99 90 c 128,-1,14
 124 125 124 125 150.5 166.5 c 128,-1,15
 177 208 177 208 202.5 254.5 c 128,-1,16
 228 301 228 301 248 349 c 128,-1,17
 268 397 268 397 280.5 444 c 128,-1,18
 293 491 293 491 293 534 c 0,19,20
 293 585 293 585 269.5 615 c 128,-1,21
 246 645 246 645 201 645 c 0,22,23
 172 645 172 645 144.5 634.5 c 128,-1,24
 117 624 117 624 97 608 c 1,25,-1
 69 661 l 1,26,27
 96 685 96 685 135 698.5 c 128,-1,28
 174 712 174 712 217 712 c 0,29,30
 291 712 291 712 329.5 666.5 c 128,-1,31
 368 621 368 621 368 547 c 0,0,1
EndSplineSet
Substitution2: "'sups' Superscript lookup 8 subtable" twosuperior
Substitution2: "'aalt' Access All Alternates lookup 0 subtable" twosuperior
EndChar

StartChar: three
Encoding: 51 51 22
Width: 450
Flags: W
LayerCount: 2
Fore
SplineSet
93 76 m 1,0,1
 112 65 112 65 136.5 59 c 128,-1,2
 161 53 161 53 193 53 c 0,3,4
 220 53 220 53 242.5 64 c 128,-1,5
 265 75 265 75 281.5 95 c 128,-1,6
 298 115 298 115 307 142.5 c 128,-1,7
 316 170 316 170 316 203 c 0,8,9
 316 277 316 277 283.5 311 c 128,-1,10
 251 345 251 345 193 345 c 2,11,-1
 133 345 l 1,12,-1
 133 374 l 1,13,-1
 249 598 l 1,14,-1
 288 640 l 1,15,-1
 233 633 l 1,16,-1
 76 633 l 1,17,-1
 76 700 l 1,18,-1
 366 700 l 1,19,-1
 366 671 l 1,20,-1
 238 432 l 1,21,-1
 208 403 l 1,22,-1
 208 401 l 1,23,-1
 237 407 l 1,24,25
 268 407 268 407 296 394.5 c 128,-1,26
 324 382 324 382 344 357.5 c 128,-1,27
 364 333 364 333 376 297 c 128,-1,28
 388 261 388 261 388 213 c 0,29,30
 388 159 388 159 372.5 117 c 128,-1,31
 357 75 357 75 330.5 46.5 c 128,-1,32
 304 18 304 18 268.5 3 c 128,-1,33
 233 -12 233 -12 193 -12 c 0,34,35
 158 -12 158 -12 127 -6 c 128,-1,36
 96 0 96 0 73 11 c 1,37,-1
 93 76 l 1,0,1
EndSplineSet
Substitution2: "'sups' Superscript lookup 8 subtable" threesuperior
Substitution2: "'aalt' Access All Alternates lookup 0 subtable" threesuperior
EndChar

StartChar: four
Encoding: 52 52 23
Width: 450
Flags: W
LayerCount: 2
Fore
SplineSet
431 215 m 1,0,-1
 338 215 l 1,1,-1
 338 0 l 1,2,-1
 266 0 l 1,3,-1
 266 215 l 1,4,-1
 20 215 l 1,5,-1
 20 249 l 1,6,-1
 285 711 l 1,7,-1
 338 711 l 1,8,-1
 338 280 l 1,9,-1
 431 280 l 1,10,-1
 431 215 l 1,0,-1
266 504 m 1,11,-1
 278 590 l 1,12,-1
 275 590 l 1,13,-1
 245 513 l 1,14,-1
 135 322 l 1,15,-1
 97 273 l 1,16,-1
 152 280 l 1,17,-1
 266 280 l 1,18,-1
 266 504 l 1,11,-1
EndSplineSet
EndChar

StartChar: five
Encoding: 53 53 24
Width: 450
Flags: W
LayerCount: 2
Fore
SplineSet
357 700 m 1,0,-1
 357 630 l 1,1,-1
 167 630 l 1,2,-1
 167 426 l 1,3,-1
 201 429 l 1,4,5
 281 428 281 428 327 374 c 128,-1,6
 373 320 373 320 374 219 c 1,7,8
 373 163 373 163 357.5 120 c 128,-1,9
 342 77 342 77 315 47.5 c 128,-1,10
 288 18 288 18 252 3 c 128,-1,11
 216 -12 216 -12 175 -12 c 0,12,13
 106 -12 106 -12 64 7 c 1,14,-1
 82 71 l 1,15,16
 100 62 100 62 122 58.5 c 128,-1,17
 144 55 144 55 173 55 c 0,18,19
 230 55 230 55 265.5 96.5 c 128,-1,20
 301 138 301 138 302 213 c 1,21,22
 301 290 301 290 265.5 327 c 128,-1,23
 230 364 230 364 167 364 c 1,24,-1
 101 359 l 1,25,-1
 101 700 l 1,26,-1
 357 700 l 1,0,-1
EndSplineSet
EndChar

StartChar: six
Encoding: 54 54 25
Width: 450
Flags: W
LayerCount: 2
Fore
SplineSet
405 211 m 1,0,1
 404 161 404 161 392.5 119.5 c 128,-1,2
 381 78 381 78 358.5 49 c 128,-1,3
 336 20 336 20 303.5 4 c 128,-1,4
 271 -12 271 -12 230 -12 c 0,5,6
 146 -12 146 -12 98.5 49 c 128,-1,7
 51 110 51 110 51 235 c 0,8,9
 51 341 51 341 72.5 424 c 128,-1,10
 94 507 94 507 131 567 c 128,-1,11
 168 627 168 627 218 663.5 c 128,-1,12
 268 700 268 700 325 712 c 1,13,-1
 345 654 l 1,14,15
 300 642 300 642 263 614 c 128,-1,16
 226 586 226 586 198 546 c 128,-1,17
 170 506 170 506 151.5 456 c 128,-1,18
 133 406 133 406 126 349 c 1,19,20
 139 376 139 376 169.5 396 c 128,-1,21
 200 416 200 416 245 416 c 0,22,23
 317 416 317 416 360.5 365 c 128,-1,24
 404 314 404 314 405 211 c 1,0,1
332 204 m 0,25,26
 332 351 332 351 226 351 c 0,27,28
 188 351 188 351 161 327 c 128,-1,29
 134 303 134 303 123 273 c 1,30,31
 121 260 121 260 121 247.5 c 128,-1,32
 121 235 121 235 122 224 c 1,33,34
 121 191 121 191 127.5 160.5 c 128,-1,35
 134 130 134 130 147.5 106 c 128,-1,36
 161 82 161 82 181.5 67.5 c 128,-1,37
 202 53 202 53 230 53 c 0,38,39
 275 53 275 53 303.5 93 c 128,-1,40
 332 133 332 133 332 204 c 0,25,26
EndSplineSet
EndChar

StartChar: seven
Encoding: 55 55 26
Width: 450
Flags: W
LayerCount: 2
Fore
SplineSet
95 0 m 1,0,-1
 297 591 l 1,1,-1
 333 640 l 1,2,-1
 285 631 l 1,3,-1
 56 631 l 1,4,-1
 56 700 l 1,5,-1
 397 700 l 1,6,-1
 397 673 l 1,7,-1
 167 0 l 1,8,-1
 95 0 l 1,0,-1
EndSplineSet
EndChar

StartChar: eight
Encoding: 56 56 27
Width: 450
Flags: W
LayerCount: 2
Fore
SplineSet
58 162 m 0,0,1
 58 229 58 229 85.5 276 c 128,-1,2
 113 323 113 323 167 361 c 1,3,4
 147 376 147 376 129.5 392.5 c 128,-1,5
 112 409 112 409 99 430 c 128,-1,6
 86 451 86 451 78.5 477 c 128,-1,7
 71 503 71 503 71 537 c 0,8,9
 71 618 71 618 113.5 665 c 128,-1,10
 156 712 156 712 230 712 c 0,11,12
 299 712 299 712 339.5 669.5 c 128,-1,13
 380 627 380 627 380 553 c 0,14,15
 380 496 380 496 358 452 c 128,-1,16
 336 408 336 408 289 366 c 1,17,18
 310 351 310 351 329 333 c 128,-1,19
 348 315 348 315 362.5 292.5 c 128,-1,20
 377 270 377 270 385 241.5 c 128,-1,21
 393 213 393 213 393 176 c 0,22,23
 393 91 393 91 347.5 39.5 c 128,-1,24
 302 -12 302 -12 221 -12 c 0,25,26
 182 -12 182 -12 152 1 c 128,-1,27
 122 14 122 14 101 37 c 128,-1,28
 80 60 80 60 69 92 c 128,-1,29
 58 124 58 124 58 162 c 0,0,1
214 333 m 1,30,31
 168 299 168 299 147.5 257 c 128,-1,32
 127 215 127 215 127 173 c 0,33,34
 127 122 127 122 152 87.5 c 128,-1,35
 177 53 177 53 225 53 c 0,36,37
 264 53 264 53 292.5 81.5 c 128,-1,38
 321 110 321 110 321 172 c 0,39,40
 321 203 321 203 312 227 c 128,-1,41
 303 251 303 251 288 269.5 c 128,-1,42
 273 288 273 288 254 303.5 c 128,-1,43
 235 319 235 319 214 333 c 1,30,31
241 392 m 1,44,45
 275 426 275 426 293 460.5 c 128,-1,46
 311 495 311 495 311 537 c 0,47,48
 311 592 311 592 286.5 619.5 c 128,-1,49
 262 647 262 647 229 647 c 0,50,51
 208 647 208 647 191.5 638.5 c 128,-1,52
 175 630 175 630 164 615 c 128,-1,53
 153 600 153 600 147 580.5 c 128,-1,54
 141 561 141 561 141 539 c 0,55,56
 141 512 141 512 149 490.5 c 128,-1,57
 157 469 157 469 171 451.5 c 128,-1,58
 185 434 185 434 203 419.5 c 128,-1,59
 221 405 221 405 241 392 c 1,44,45
EndSplineSet
EndChar

StartChar: nine
Encoding: 57 57 28
Width: 450
Flags: W
LayerCount: 2
Fore
SplineSet
46 488 m 0,0,1
 46 592 46 592 90.5 652 c 128,-1,2
 135 712 135 712 223 712 c 0,3,4
 307 712 307 712 353.5 650 c 128,-1,5
 400 588 400 588 400 460 c 0,6,7
 400 347 400 347 379 263.5 c 128,-1,8
 358 180 358 180 321 122.5 c 128,-1,9
 284 65 284 65 234 32 c 128,-1,10
 184 -1 184 -1 126 -12 c 1,11,-1
 107 47 l 1,12,13
 203 72 203 72 256 147.5 c 128,-1,14
 309 223 309 223 323 337 c 1,15,16
 302 308 302 308 276.5 296 c 128,-1,17
 251 284 251 284 209 284 c 0,18,19
 177 284 177 284 147.5 296.5 c 128,-1,20
 118 309 118 309 95.5 334.5 c 128,-1,21
 73 360 73 360 59.5 398.5 c 128,-1,22
 46 437 46 437 46 488 c 0,0,1
119 496 m 0,23,24
 119 425 119 425 148 387 c 128,-1,25
 177 349 177 349 225 349 c 0,26,27
 263 349 263 349 289.5 365.5 c 128,-1,28
 316 382 316 382 328 408 c 1,29,30
 330 421 330 421 330 433 c 128,-1,31
 330 445 330 445 330 456 c 0,32,33
 330 494 330 494 323.5 528.5 c 128,-1,34
 317 563 317 563 303.5 589.5 c 128,-1,35
 290 616 290 616 269 631.5 c 128,-1,36
 248 647 248 647 219 647 c 0,37,38
 172 647 172 647 145.5 606 c 128,-1,39
 119 565 119 565 119 496 c 0,23,24
EndSplineSet
EndChar

StartChar: less
Encoding: 60 60 31
Width: 415
Flags: W
LayerCount: 2
Fore
SplineSet
36 305 m 1,0,-1
 36 334 l 1,1,-1
 336 557 l 1,2,-1
 375 503 l 1,3,-1
 184 358 l 1,4,-1
 110 320 l 1,5,-1
 183 288 l 1,6,-1
 379 144 l 1,7,-1
 341 90 l 1,8,-1
 36 305 l 1,0,-1
EndSplineSet
EndChar

StartChar: greater
Encoding: 62 62 33
Width: 415
Flags: W
LayerCount: 2
Fore
SplineSet
379 344 m 1,0,-1
 379 315 l 1,1,-1
 81 92 l 1,2,-1
 40 145 l 1,3,-1
 232 290 l 1,4,-1
 305 328 l 1,5,-1
 233 360 l 1,6,-1
 36 504 l 1,7,-1
 76 557 l 1,8,-1
 379 344 l 1,0,-1
EndSplineSet
EndChar

StartChar: question
Encoding: 63 63 34
Width: 358
Flags: W
LayerCount: 2
Fore
SplineSet
123 177 m 1,0,1
 120 221 120 221 128.5 255 c 128,-1,2
 137 289 137 289 152 317.5 c 128,-1,3
 167 346 167 346 184.5 371 c 128,-1,4
 202 396 202 396 218 422.5 c 128,-1,5
 234 449 234 449 244.5 478.5 c 128,-1,6
 255 508 255 508 255 545 c 0,7,8
 255 591 255 591 235 619 c 128,-1,9
 215 647 215 647 167 647 c 0,10,11
 138 647 138 647 110 636.5 c 128,-1,12
 82 626 82 626 60 610 c 1,13,-1
 32 666 l 1,14,15
 62 686 62 686 97.5 699 c 128,-1,16
 133 712 133 712 184 712 c 0,17,18
 256 712 256 712 293 670 c 128,-1,19
 330 628 330 628 330 555 c 0,20,21
 330 512 330 512 319 478 c 128,-1,22
 308 444 308 444 292 415.5 c 128,-1,23
 276 387 276 387 257 361 c 128,-1,24
 238 335 238 335 221.5 307.5 c 128,-1,25
 205 280 205 280 194 248.5 c 128,-1,26
 183 217 183 217 183 177 c 1,27,-1
 123 177 l 1,0,1
108 45 m 0,28,29
 108 73 108 73 121.5 87 c 128,-1,30
 135 101 135 101 158 101 c 256,31,32
 181 101 181 101 194.5 87 c 128,-1,33
 208 73 208 73 208 45 c 0,34,35
 208 16 208 16 194.5 2 c 128,-1,36
 181 -12 181 -12 158 -12 c 256,37,38
 135 -12 135 -12 121.5 2 c 128,-1,39
 108 16 108 16 108 45 c 0,28,29
EndSplineSet
EndChar

StartChar: at
Encoding: 64 64 35
Width: 857
Flags: W
LayerCount: 2
Fore
SplineSet
565 491 m 1,0,-1
 598 491 l 1,1,-1
 557 200 l 2,2,3
 548 133 548 133 551.5 100.5 c 128,-1,4
 555 68 555 68 581 68 c 256,5,6
 607 68 607 68 633 85 c 128,-1,7
 659 102 659 102 679.5 135 c 128,-1,8
 700 168 700 168 712.5 216 c 128,-1,9
 725 264 725 264 725 326 c 0,10,11
 725 397 725 397 704.5 450.5 c 128,-1,12
 684 504 684 504 647.5 540 c 128,-1,13
 611 576 611 576 559 594.5 c 128,-1,14
 507 613 507 613 444 613 c 0,15,16
 379 613 379 613 322 586.5 c 128,-1,17
 265 560 265 560 223 511 c 128,-1,18
 181 462 181 462 156.5 394 c 128,-1,19
 132 326 132 326 132 242 c 0,20,21
 132 155 132 155 154.5 91 c 128,-1,22
 177 27 177 27 218 -16 c 128,-1,23
 259 -59 259 -59 315 -80 c 128,-1,24
 371 -101 371 -101 439 -101 c 0,25,26
 463 -101 463 -101 494.5 -95 c 128,-1,27
 526 -89 526 -89 549 -77 c 1,28,-1
 567 -133 l 1,29,30
 533 -149 533 -149 499.5 -155.5 c 128,-1,31
 466 -162 466 -162 429 -162 c 0,32,33
 356 -162 356 -162 290.5 -139 c 128,-1,34
 225 -116 225 -116 175.5 -67.5 c 128,-1,35
 126 -19 126 -19 97 56.5 c 128,-1,36
 68 132 68 132 68 236 c 0,37,38
 68 339 68 339 98.5 420.5 c 128,-1,39
 129 502 129 502 180.5 558 c 128,-1,40
 232 614 232 614 301 644 c 128,-1,41
 370 674 370 674 447 674 c 0,42,43
 521 674 521 674 583.5 652 c 128,-1,44
 646 630 646 630 692 586 c 128,-1,45
 738 542 738 542 763.5 477 c 128,-1,46
 789 412 789 412 789 326 c 0,47,48
 789 257 789 257 771 198 c 128,-1,49
 753 139 753 139 722.5 96 c 128,-1,50
 692 53 692 53 651.5 28.5 c 128,-1,51
 611 4 611 4 565 4 c 0,52,53
 546 4 546 4 530.5 9 c 128,-1,54
 515 14 515 14 505.5 26 c 128,-1,55
 496 38 496 38 492 58 c 128,-1,56
 488 78 488 78 492 107 c 1,57,-1
 488 107 l 1,58,59
 477 87 477 87 462 68.5 c 128,-1,60
 447 50 447 50 429.5 35.5 c 128,-1,61
 412 21 412 21 391.5 12.5 c 128,-1,62
 371 4 371 4 349 4 c 0,63,64
 307 4 307 4 277.5 41.5 c 128,-1,65
 248 79 248 79 248 150 c 0,66,67
 248 224 248 224 264.5 288 c 128,-1,68
 281 352 281 352 309.5 399 c 128,-1,69
 338 446 338 446 376 472.5 c 128,-1,70
 414 499 414 499 457 499 c 0,71,72
 486 499 486 499 504.5 489 c 128,-1,73
 523 479 523 479 540 462 c 1,74,-1
 565 491 l 1,0,-1
519 400 m 1,75,76
 506 418 506 418 492.5 426 c 128,-1,77
 479 434 479 434 459 434 c 0,78,79
 429 434 429 434 403 411.5 c 128,-1,80
 377 389 377 389 358 351.5 c 128,-1,81
 339 314 339 314 328 266 c 128,-1,82
 317 218 317 218 317 167 c 0,83,84
 317 122 317 122 330.5 95.5 c 128,-1,85
 344 69 344 69 376 69 c 0,86,87
 391 69 391 69 407 80 c 128,-1,88
 423 91 423 91 438.5 108.5 c 128,-1,89
 454 126 454 126 468 148 c 128,-1,90
 482 170 482 170 492 192 c 1,91,-1
 519 400 l 1,75,76
EndSplineSet
Position2: "'case' Case-Sensitive Forms lookup 1 per glyph data 0" dx=0 dy=51 dh=0 dv=0
Position2: "'cpsp' Capital Spacing lookup 0 subtable" dx=40 dy=0 dh=80 dv=0
EndChar

StartChar: A
Encoding: 65 65 36
Width: 473
Flags: W
LayerCount: 2
Fore
SplineSet
333 196 m 5,0,-1
 135 196 l 5,1,-1
 79 0 l 5,2,-1
 5 0 l 5,3,-1
 216 711 l 5,4,-1
 257 711 l 5,5,-1
 468 0 l 5,6,-1
 390 0 l 5,7,-1
 333 196 l 5,0,-1
155 263 m 5,8,-1
 315 263 l 5,9,-1
 254 479 l 5,10,-1
 235 584 l 5,11,-1
 233 584 l 5,12,-1
 214 477 l 5,13,-1
 155 263 l 5,8,-1
EndSplineSet
Position2: "'cpsp' Capital Spacing lookup 0 subtable" dx=40 dy=0 dh=80 dv=0
EndChar

StartChar: B
Encoding: 66 66 37
Width: 471
Flags: W
LayerCount: 2
Fore
SplineSet
411 541 m 0,0,1
 411 515 411 515 405 489 c 128,-1,2
 399 463 399 463 386 440 c 128,-1,3
 373 417 373 417 353.5 399 c 128,-1,4
 334 381 334 381 306 372 c 1,5,-1
 306 368 l 1,6,7
 330 363 330 363 352 351.5 c 128,-1,8
 374 340 374 340 391 319.5 c 128,-1,9
 408 299 408 299 418 269.5 c 128,-1,10
 428 240 428 240 428 199 c 0,11,12
 428 145 428 145 411 105.5 c 128,-1,13
 394 66 394 66 364.5 41 c 128,-1,14
 335 16 335 16 296.5 4 c 128,-1,15
 258 -8 258 -8 215 -8 c 0,16,17
 201 -8 201 -8 182.5 -8 c 128,-1,18
 164 -8 164 -8 143 -6.5 c 128,-1,19
 122 -5 122 -5 101.5 -2.5 c 128,-1,20
 81 0 81 0 64 5 c 1,21,-1
 64 694 l 1,22,23
 94 700 94 700 134.5 704 c 128,-1,24
 175 708 175 708 222 708 c 0,25,26
 256 708 256 708 290 701.5 c 128,-1,27
 324 695 324 695 351 677 c 128,-1,28
 378 659 378 659 394.5 626.5 c 128,-1,29
 411 594 411 594 411 541 c 0,0,1
221 61 m 0,30,31
 248 61 248 61 271 69.5 c 128,-1,32
 294 78 294 78 311.5 95 c 128,-1,33
 329 112 329 112 339 136.5 c 128,-1,34
 349 161 349 161 349 194 c 0,35,36
 349 235 349 235 336.5 260.5 c 128,-1,37
 324 286 324 286 304 300 c 128,-1,38
 284 314 284 314 258.5 319 c 128,-1,39
 233 324 233 324 206 324 c 2,40,-1
 139 324 l 1,41,-1
 139 68 l 1,42,43
 145 66 145 66 154.5 65 c 128,-1,44
 164 64 164 64 175.5 63 c 128,-1,45
 187 62 187 62 199 61.5 c 128,-1,46
 211 61 211 61 221 61 c 0,30,31
180 389 m 2,47,48
 194 389 194 389 212 390 c 128,-1,49
 230 391 230 391 242 393 c 1,50,51
 279 408 279 408 305.5 441.5 c 128,-1,52
 332 475 332 475 332 524 c 0,53,54
 332 557 332 557 323 579.5 c 128,-1,55
 314 602 314 602 298.5 615 c 128,-1,56
 283 628 283 628 262 633.5 c 128,-1,57
 241 639 241 639 218 639 c 0,58,59
 192 639 192 639 171 637.5 c 128,-1,60
 150 636 150 636 139 634 c 1,61,-1
 139 389 l 1,62,-1
 180 389 l 2,47,48
EndSplineSet
Position2: "'cpsp' Capital Spacing lookup 0 subtable" dx=40 dy=0 dh=80 dv=0
EndChar

StartChar: C
Encoding: 67 67 38
Width: 458
Flags: W
LayerCount: 2
Fore
SplineSet
430 27 m 1,0,1
 405 6 405 6 367 -3 c 128,-1,2
 329 -12 329 -12 287 -12 c 0,3,4
 234 -12 234 -12 189 8 c 128,-1,5
 144 28 144 28 111.5 71.5 c 128,-1,6
 79 115 79 115 61 184 c 128,-1,7
 43 253 43 253 43 350 c 0,8,9
 43 450 43 450 63.5 519 c 128,-1,10
 84 588 84 588 118 631 c 128,-1,11
 152 674 152 674 196.5 693 c 128,-1,12
 241 712 241 712 288 712 c 0,13,14
 336 712 336 712 367.5 705 c 128,-1,15
 399 698 399 698 422 688 c 1,16,-1
 404 620 l 1,17,18
 384 631 384 631 357 637 c 128,-1,19
 330 643 330 643 295 643 c 256,20,21
 260 643 260 643 229 627.5 c 128,-1,22
 198 612 198 612 174 577.5 c 128,-1,23
 150 543 150 543 136 487 c 128,-1,24
 122 431 122 431 122 350 c 0,25,26
 122 204 122 204 172 130.5 c 128,-1,27
 222 57 222 57 305 57 c 0,28,29
 339 57 339 57 366 66.5 c 128,-1,30
 393 76 393 76 412 89 c 1,31,-1
 430 27 l 1,0,1
EndSplineSet
Position2: "'cpsp' Capital Spacing lookup 0 subtable" dx=40 dy=0 dh=80 dv=0
EndChar

StartChar: D
Encoding: 68 68 39
Width: 525
Flags: W
LayerCount: 2
Fore
SplineSet
64 700 m 1,0,1
 80 703 80 703 99.5 704.5 c 128,-1,2
 119 706 119 706 139 706.5 c 128,-1,3
 159 707 159 707 178.5 707.5 c 128,-1,4
 198 708 198 708 215 708 c 0,5,6
 288 708 288 708 339 683 c 128,-1,7
 390 658 390 658 422 611.5 c 128,-1,8
 454 565 454 565 468 500 c 128,-1,9
 482 435 482 435 482 355 c 0,10,11
 482 283 482 283 468.5 217 c 128,-1,12
 455 151 455 151 423 101 c 128,-1,13
 391 51 391 51 338.5 21 c 128,-1,14
 286 -9 286 -9 207 -9 c 0,15,16
 194 -9 194 -9 174 -8.5 c 128,-1,17
 154 -8 154 -8 132.5 -6.5 c 128,-1,18
 111 -5 111 -5 92.5 -4 c 128,-1,19
 74 -3 74 -3 64 -1 c 1,20,-1
 64 700 l 1,0,1
219 639 m 0,21,22
 209 639 209 639 197.5 639 c 128,-1,23
 186 639 186 639 175 638 c 128,-1,24
 164 637 164 637 154.5 636 c 128,-1,25
 145 635 145 635 139 634 c 1,26,-1
 139 64 l 1,27,28
 143 63 143 63 153.5 62.5 c 128,-1,29
 164 62 164 62 175.5 61.5 c 128,-1,30
 187 61 187 61 197.5 60.5 c 128,-1,31
 208 60 208 60 213 60 c 0,32,33
 268 60 268 60 305 84 c 128,-1,34
 342 108 342 108 363.5 148.5 c 128,-1,35
 385 189 385 189 394 242.5 c 128,-1,36
 403 296 403 296 403 356 c 0,37,38
 403 409 403 409 395 460 c 128,-1,39
 387 511 387 511 366.5 550.5 c 128,-1,40
 346 590 346 590 310.5 614.5 c 128,-1,41
 275 639 275 639 219 639 c 0,21,22
EndSplineSet
Position2: "'cpsp' Capital Spacing lookup 0 subtable" dx=40 dy=0 dh=80 dv=0
EndChar

StartChar: E
Encoding: 69 69 40
Width: 429
Flags: W
LayerCount: 2
Fore
SplineSet
64 700 m 1,0,-1
 375 700 l 1,1,-1
 375 631 l 1,2,-1
 139 631 l 1,3,-1
 139 394 l 1,4,-1
 356 394 l 1,5,-1
 356 325 l 1,6,-1
 139 325 l 1,7,-1
 139 69 l 1,8,-1
 380 69 l 1,9,-1
 380 0 l 1,10,-1
 64 0 l 1,11,-1
 64 700 l 1,0,-1
EndSplineSet
Position2: "'cpsp' Capital Spacing lookup 0 subtable" dx=40 dy=0 dh=80 dv=0
EndChar

StartChar: F
Encoding: 70 70 41
Width: 413
Flags: W
LayerCount: 2
Fore
SplineSet
64 700 m 1,0,-1
 375 700 l 1,1,-1
 375 631 l 1,2,-1
 139 631 l 1,3,-1
 139 384 l 1,4,-1
 359 384 l 1,5,-1
 359 315 l 1,6,-1
 139 315 l 1,7,-1
 139 0 l 1,8,-1
 64 0 l 1,9,-1
 64 700 l 1,0,-1
EndSplineSet
Position2: "'cpsp' Capital Spacing lookup 0 subtable" dx=40 dy=0 dh=80 dv=0
EndChar

StartChar: G
Encoding: 71 71 42
Width: 492
Flags: W
LayerCount: 2
Fore
SplineSet
257 349 m 1,0,-1
 450 349 l 1,1,-1
 450 41 l 1,2,3
 422 15 422 15 378 1.5 c 128,-1,4
 334 -12 334 -12 289 -12 c 0,5,6
 233 -12 233 -12 187.5 9 c 128,-1,7
 142 30 142 30 110 74.5 c 128,-1,8
 78 119 78 119 60.5 187 c 128,-1,9
 43 255 43 255 43 350 c 0,10,11
 43 448 43 448 64 516.5 c 128,-1,12
 85 585 85 585 120.5 628.5 c 128,-1,13
 156 672 156 672 201.5 692 c 128,-1,14
 247 712 247 712 295 712 c 256,15,16
 343 712 343 712 375.5 705.5 c 128,-1,17
 408 699 408 699 431 688 c 1,18,-1
 413 620 l 1,19,20
 393 631 393 631 365.5 637 c 128,-1,21
 338 643 338 643 302 643 c 0,22,23
 267 643 267 643 235 628 c 128,-1,24
 203 613 203 613 177.5 578.5 c 128,-1,25
 152 544 152 544 137 488 c 128,-1,26
 122 432 122 432 122 350 c 0,27,28
 122 200 122 200 169.5 128.5 c 128,-1,29
 217 57 217 57 300 57 c 0,30,31
 352 57 352 57 386 82 c 1,32,-1
 386 286 l 1,33,-1
 257 305 l 1,34,-1
 257 349 l 1,0,-1
EndSplineSet
Position2: "'cpsp' Capital Spacing lookup 0 subtable" dx=40 dy=0 dh=80 dv=0
EndChar

StartChar: H
Encoding: 72 72 43
Width: 536
Flags: W
LayerCount: 2
Fore
SplineSet
397 323 m 1,0,-1
 139 323 l 1,1,-1
 139 0 l 1,2,-1
 64 0 l 1,3,-1
 64 700 l 1,4,-1
 139 700 l 1,5,-1
 139 392 l 1,6,-1
 397 392 l 1,7,-1
 397 700 l 1,8,-1
 472 700 l 1,9,-1
 472 0 l 1,10,-1
 397 0 l 1,11,-1
 397 323 l 1,0,-1
EndSplineSet
Position2: "'cpsp' Capital Spacing lookup 0 subtable" dx=40 dy=0 dh=80 dv=0
EndChar

StartChar: I
Encoding: 73 73 44
Width: 233
Flags: W
LayerCount: 2
Fore
SplineSet
79 700 m 5,0,-1
 154 700 l 5,1,-1
 154 0 l 5,2,-1
 79 0 l 5,3,-1
 79 700 l 5,0,-1
EndSplineSet
Position2: "'cpsp' Capital Spacing lookup 0 subtable" dx=40 dy=0 dh=80 dv=0
EndChar

StartChar: J
Encoding: 74 74 45
Width: 241
Flags: W
LayerCount: 2
Fore
SplineSet
93 700 m 1,0,-1
 168 700 l 1,1,-1
 168 157 l 2,2,3
 168 75 168 75 141.5 32.5 c 128,-1,4
 115 -10 115 -10 49 -10 c 0,5,6
 33 -10 33 -10 10.5 -6 c 128,-1,7
 -12 -2 -12 -2 -26 6 c 1,8,-1
 -10 71 l 1,9,10
 0 65 0 65 12.5 62 c 128,-1,11
 25 59 25 59 38 59 c 0,12,13
 56 59 56 59 67 67 c 128,-1,14
 78 75 78 75 84 89.5 c 128,-1,15
 90 104 90 104 91.5 124.5 c 128,-1,16
 93 145 93 145 93 171 c 2,17,-1
 93 700 l 1,0,-1
EndSplineSet
Position2: "'cpsp' Capital Spacing lookup 0 subtable" dx=40 dy=0 dh=80 dv=0
EndChar

StartChar: K
Encoding: 75 75 46
Width: 493
Flags: W
LayerCount: 2
Fore
SplineSet
175 324 m 1,0,-1
 139 324 l 1,1,-1
 139 0 l 1,2,-1
 64 0 l 1,3,-1
 64 700 l 1,4,-1
 139 700 l 1,5,-1
 139 374 l 1,6,-1
 174 388 l 1,7,-1
 356 700 l 1,8,-1
 442 700 l 1,9,-1
 259 398 l 1,10,-1
 224 366 l 1,11,-1
 265 326 l 1,12,-1
 468 0 l 1,13,-1
 373 0 l 1,14,-1
 175 324 l 1,0,-1
EndSplineSet
Position2: "'cpsp' Capital Spacing lookup 0 subtable" dx=40 dy=0 dh=80 dv=0
EndChar

StartChar: L
Encoding: 76 76 47
Width: 415
Flags: W
LayerCount: 2
Fore
SplineSet
401 0 m 1,0,-1
 64 0 l 1,1,-1
 64 700 l 1,2,-1
 139 700 l 1,3,-1
 139 69 l 1,4,-1
 401 69 l 1,5,-1
 401 0 l 1,0,-1
EndSplineSet
Position2: "'cpsp' Capital Spacing lookup 0 subtable" dx=40 dy=0 dh=80 dv=0
EndChar

StartChar: M
Encoding: 77 77 48
Width: 637
Flags: W
LayerCount: 2
Fore
SplineSet
498 460 m 1,0,-1
 507 566 l 1,1,-1
 503 566 l 1,2,-1
 471 467 l 1,3,-1
 330 163 l 1,4,-1
 305 163 l 1,5,-1
 157 467 l 1,6,-1
 126 566 l 1,7,-1
 122 566 l 1,8,-1
 136 460 l 1,9,-1
 136 0 l 1,10,-1
 64 0 l 1,11,-1
 64 700 l 1,12,-1
 127 700 l 1,13,-1
 296 356 l 1,14,-1
 321 274 l 1,15,-1
 323 274 l 1,16,-1
 347 357 l 1,17,-1
 507 700 l 1,18,-1
 573 700 l 1,19,-1
 573 0 l 1,20,-1
 498 0 l 1,21,-1
 498 460 l 1,0,-1
EndSplineSet
Position2: "'cpsp' Capital Spacing lookup 0 subtable" dx=40 dy=0 dh=80 dv=0
EndChar

StartChar: N
Encoding: 78 78 49
Width: 538
Flags: W
LayerCount: 2
Fore
SplineSet
171 444 m 1,0,-1
 128 554 l 1,1,-1
 125 554 l 1,2,-1
 136 444 l 1,3,-1
 136 0 l 1,4,-1
 64 0 l 1,5,-1
 64 711 l 1,6,-1
 109 711 l 1,7,-1
 368 257 l 1,8,-1
 409 152 l 1,9,-1
 413 152 l 1,10,-1
 402 257 l 1,11,-1
 402 700 l 1,12,-1
 474 700 l 1,13,-1
 474 -11 l 1,14,-1
 428 -11 l 1,15,-1
 171 444 l 1,0,-1
EndSplineSet
Position2: "'cpsp' Capital Spacing lookup 0 subtable" dx=40 dy=0 dh=80 dv=0
EndChar

StartChar: O
Encoding: 79 79 50
Width: 549
Flags: W
LayerCount: 2
Fore
SplineSet
43 350 m 4,0,1
 43 528 43 528 100 620 c 132,-1,2
 157 712 157 712 274 712 c 4,3,4
 337 712 337 712 381 686.5 c 132,-1,5
 425 661 425 661 452.5 614 c 132,-1,6
 480 567 480 567 493 500 c 132,-1,7
 506 433 506 433 506 350 c 4,8,9
 506 172 506 172 448.5 80 c 132,-1,10
 391 -12 391 -12 274 -12 c 4,11,12
 212 -12 212 -12 168 13.5 c 132,-1,13
 124 39 124 39 96 86 c 132,-1,14
 68 133 68 133 55.5 200 c 132,-1,15
 43 267 43 267 43 350 c 4,0,1
122 350 m 4,16,17
 122 291 122 291 130.5 238 c 132,-1,18
 139 185 139 185 157 145 c 132,-1,19
 175 105 175 105 204 81 c 132,-1,20
 233 57 233 57 274 57 c 4,21,22
 349 57 349 57 388 129 c 132,-1,23
 427 201 427 201 427 350 c 4,24,25
 427 408 427 408 418.5 461 c 132,-1,26
 410 514 410 514 392 554.5 c 132,-1,27
 374 595 374 595 345 619 c 132,-1,28
 316 643 316 643 274 643 c 4,29,30
 200 643 200 643 161 571 c 132,-1,31
 122 499 122 499 122 350 c 4,16,17
EndSplineSet
Position2: "'cpsp' Capital Spacing lookup 0 subtable" dx=40 dy=0 dh=80 dv=0
EndChar

StartChar: P
Encoding: 80 80 51
Width: 451
Flags: W
LayerCount: 2
Fore
SplineSet
64 693 m 1,0,1
 96 702 96 702 132 705 c 128,-1,2
 168 708 168 708 203 708 c 0,3,4
 243 708 243 708 282 699 c 128,-1,5
 321 690 321 690 352.5 666 c 128,-1,6
 384 642 384 642 403.5 600 c 128,-1,7
 423 558 423 558 423 493 c 0,8,9
 423 430 423 430 404.5 386 c 128,-1,10
 386 342 386 342 355.5 314.5 c 128,-1,11
 325 287 325 287 285.5 274.5 c 128,-1,12
 246 262 246 262 204 262 c 0,13,14
 200 262 200 262 191 262 c 128,-1,15
 182 262 182 262 172 262.5 c 128,-1,16
 162 263 162 263 152.5 264 c 128,-1,17
 143 265 143 265 139 266 c 1,18,-1
 139 0 l 1,19,-1
 64 0 l 1,20,-1
 64 693 l 1,0,1
207 639 m 0,21,22
 187 639 187 639 168.5 637.5 c 128,-1,23
 150 636 150 636 139 633 c 1,24,-1
 139 335 l 1,25,26
 143 333 143 333 151.5 332.5 c 128,-1,27
 160 332 160 332 169 331.5 c 128,-1,28
 178 331 178 331 186.5 331 c 128,-1,29
 195 331 195 331 199 331 c 0,30,31
 227 331 227 331 253 338 c 128,-1,32
 279 345 279 345 299 363.5 c 128,-1,33
 319 382 319 382 331.5 413.5 c 128,-1,34
 344 445 344 445 344 493 c 0,35,36
 344 535 344 535 332.5 563 c 128,-1,37
 321 591 321 591 302.5 608 c 128,-1,38
 284 625 284 625 259 632 c 128,-1,39
 234 639 234 639 207 639 c 0,21,22
EndSplineSet
Position2: "'cpsp' Capital Spacing lookup 0 subtable" dx=40 dy=0 dh=80 dv=0
EndChar

StartChar: Q
Encoding: 81 81 52
Width: 549
Flags: W
LayerCount: 2
Fore
SplineSet
566 -166 m 1,0,1
 546 -173 546 -173 527.5 -175.5 c 128,-1,2
 509 -178 509 -178 490 -178 c 0,3,4
 450 -178 450 -178 411.5 -167.5 c 128,-1,5
 373 -157 373 -157 337.5 -145 c 128,-1,6
 302 -133 302 -133 269 -122.5 c 128,-1,7
 236 -112 236 -112 206 -112 c 0,8,9
 188 -112 188 -112 170 -118 c 1,10,-1
 170 -50 l 1,11,12
 192 -44 192 -44 214 -44 c 0,13,14
 247 -44 247 -44 280.5 -54 c 128,-1,15
 314 -64 314 -64 348 -76 c 128,-1,16
 382 -88 382 -88 418.5 -98 c 128,-1,17
 455 -108 455 -108 494 -108 c 0,18,19
 530 -108 530 -108 566 -98 c 1,20,-1
 566 -166 l 1,0,1
43 350 m 0,21,22
 43 528 43 528 100 620 c 128,-1,23
 157 712 157 712 274 712 c 0,24,25
 337 712 337 712 381 686.5 c 128,-1,26
 425 661 425 661 452.5 614 c 128,-1,27
 480 567 480 567 493 500 c 128,-1,28
 506 433 506 433 506 350 c 0,29,30
 506 172 506 172 448.5 80 c 128,-1,31
 391 -12 391 -12 274 -12 c 0,32,33
 212 -12 212 -12 168 13.5 c 128,-1,34
 124 39 124 39 96 86 c 128,-1,35
 68 133 68 133 55.5 200 c 128,-1,36
 43 267 43 267 43 350 c 0,21,22
122 350 m 0,37,38
 122 291 122 291 130.5 238 c 128,-1,39
 139 185 139 185 157 145 c 128,-1,40
 175 105 175 105 204 81 c 128,-1,41
 233 57 233 57 274 57 c 0,42,43
 349 57 349 57 388 129 c 128,-1,44
 427 201 427 201 427 350 c 0,45,46
 427 408 427 408 418.5 461 c 128,-1,47
 410 514 410 514 392 554.5 c 128,-1,48
 374 595 374 595 345 619 c 128,-1,49
 316 643 316 643 274 643 c 0,50,51
 200 643 200 643 161 571 c 128,-1,52
 122 499 122 499 122 350 c 0,37,38
EndSplineSet
Position2: "'cpsp' Capital Spacing lookup 0 subtable" dx=40 dy=0 dh=80 dv=0
EndChar

StartChar: R
Encoding: 82 82 53
Width: 480
Flags: W
LayerCount: 2
Fore
SplineSet
64 693 m 1,0,1
 97 701 97 701 136.5 704.5 c 128,-1,2
 176 708 176 708 209 708 c 0,3,4
 248 708 248 708 283 698.5 c 128,-1,5
 318 689 318 689 344 666.5 c 128,-1,6
 370 644 370 644 385.5 607.5 c 128,-1,7
 401 571 401 571 401 516 c 0,8,9
 401 433 401 433 366.5 383 c 128,-1,10
 332 333 332 333 275 316 c 1,11,-1
 313 279 l 1,12,-1
 451 0 l 1,13,-1
 364 0 l 1,14,-1
 214 305 l 1,15,-1
 139 320 l 1,16,-1
 139 0 l 1,17,-1
 64 0 l 1,18,-1
 64 693 l 1,0,1
139 370 m 1,19,-1
 199 370 l 2,20,21
 256 370 256 370 289 405 c 128,-1,22
 322 440 322 440 322 512 c 0,23,24
 322 567 322 567 294.5 603 c 128,-1,25
 267 639 267 639 213 639 c 0,26,27
 193 639 193 639 171.5 637.5 c 128,-1,28
 150 636 150 636 139 633 c 1,29,-1
 139 370 l 1,19,-1
EndSplineSet
Position2: "'cpsp' Capital Spacing lookup 0 subtable" dx=40 dy=0 dh=80 dv=0
EndChar

StartChar: S
Encoding: 83 83 54
Width: 428
Flags: W
LayerCount: 2
Fore
SplineSet
59 93 m 1,0,1
 78 80 78 80 112.5 68.5 c 128,-1,2
 147 57 147 57 191 57 c 0,3,4
 247 57 247 57 282 84.5 c 128,-1,5
 317 112 317 112 317 171 c 0,6,7
 317 210 317 210 297 239 c 128,-1,8
 277 268 277 268 247 292.5 c 128,-1,9
 217 317 217 317 182.5 340.5 c 128,-1,10
 148 364 148 364 118 392.5 c 128,-1,11
 88 421 88 421 68 458 c 128,-1,12
 48 495 48 495 48 547 c 0,13,14
 48 631 48 631 98.5 671.5 c 128,-1,15
 149 712 149 712 230 712 c 0,16,17
 280 712 280 712 319 703 c 128,-1,18
 358 694 358 694 382 680 c 1,19,-1
 358 614 l 1,20,21
 340 625 340 625 306.5 634 c 128,-1,22
 273 643 273 643 229 643 c 0,23,24
 175 643 175 643 149 616.5 c 128,-1,25
 123 590 123 590 123 550 c 0,26,27
 123 515 123 515 143 488 c 128,-1,28
 163 461 163 461 193 437 c 128,-1,29
 223 413 223 413 257.5 388.5 c 128,-1,30
 292 364 292 364 322 334 c 128,-1,31
 352 304 352 304 372 266 c 128,-1,32
 392 228 392 228 392 176 c 0,33,34
 392 88 392 88 340 38 c 128,-1,35
 288 -12 288 -12 193 -12 c 0,36,37
 133 -12 133 -12 94.5 -1 c 128,-1,38
 56 10 56 10 33 24 c 1,39,-1
 59 93 l 1,0,1
EndSplineSet
Position2: "'cpsp' Capital Spacing lookup 0 subtable" dx=40 dy=0 dh=80 dv=0
EndChar

StartChar: T
Encoding: 84 84 55
Width: 447
Flags: W
LayerCount: 2
Fore
SplineSet
433 631 m 1,0,-1
 261 631 l 1,1,-1
 261 0 l 1,2,-1
 186 0 l 1,3,-1
 186 631 l 1,4,-1
 14 631 l 1,5,-1
 14 700 l 1,6,-1
 433 700 l 1,7,-1
 433 631 l 1,0,-1
EndSplineSet
Position2: "'cpsp' Capital Spacing lookup 0 subtable" dx=40 dy=0 dh=80 dv=0
EndChar

StartChar: U
Encoding: 85 85 56
Width: 521
Flags: W
LayerCount: 2
Fore
SplineSet
385 700 m 5,0,-1
 457 700 l 5,1,-1
 457 231 l 6,2,3
 457 104 457 104 407.5 47.5 c 132,-1,4
 358 -9 358 -9 267 -9 c 4,5,6
 161 -9 161 -9 112.5 46 c 132,-1,7
 64 101 64 101 64 215 c 6,8,-1
 64 700 l 5,9,-1
 139 700 l 5,10,-1
 139 254 l 6,11,12
 139 200 139 200 146 163 c 132,-1,13
 153 126 153 126 169 103 c 132,-1,14
 185 80 185 80 209 70 c 132,-1,15
 233 60 233 60 268 60 c 4,16,17
 334 60 334 60 359.5 106 c 132,-1,18
 385 152 385 152 385 254 c 6,19,-1
 385 700 l 5,0,-1
EndSplineSet
Position2: "'cpsp' Capital Spacing lookup 0 subtable" dx=40 dy=0 dh=80 dv=0
EndChar

StartChar: V
Encoding: 86 86 57
Width: 463
Flags: W
LayerCount: 2
Fore
SplineSet
218 221 m 1,0,-1
 236 114 l 1,1,-1
 238 114 l 1,2,-1
 258 223 l 1,3,-1
 388 700 l 1,4,-1
 465 700 l 1,5,-1
 253 -11 l 1,6,-1
 213 -11 l 1,7,-1
 -2 700 l 1,8,-1
 81 700 l 1,9,-1
 218 221 l 1,0,-1
EndSplineSet
Position2: "'cpsp' Capital Spacing lookup 0 subtable" dx=40 dy=0 dh=80 dv=0
EndChar

StartChar: W
Encoding: 87 87 58
Width: 672
Flags: W
LayerCount: 2
Fore
SplineSet
182 237 m 1,0,-1
 194 120 l 1,1,-1
 196 120 l 1,2,-1
 208 239 l 1,3,-1
 320 700 l 1,4,-1
 363 700 l 1,5,-1
 475 238 l 1,6,-1
 487 120 l 1,7,-1
 488 120 l 1,8,-1
 502 239 l 1,9,-1
 591 700 l 1,10,-1
 666 700 l 1,11,-1
 510 -11 l 1,12,-1
 464 -11 l 1,13,-1
 353 450 l 1,14,-1
 339 557 l 1,15,-1
 336 557 l 1,16,-1
 322 449 l 1,17,-1
 211 -11 l 1,18,-1
 164 -11 l 1,19,-1
 5 700 l 1,20,-1
 86 700 l 1,21,-1
 182 237 l 1,0,-1
EndSplineSet
Position2: "'cpsp' Capital Spacing lookup 0 subtable" dx=40 dy=0 dh=80 dv=0
EndChar

StartChar: X
Encoding: 88 88 59
Width: 500
Flags: W
LayerCount: 2
Fore
SplineSet
203 356 m 1,0,-1
 35 700 l 1,1,-1
 125 700 l 1,2,-1
 234 463 l 1,3,-1
 254 404 l 1,4,-1
 274 463 l 1,5,-1
 389 700 l 1,6,-1
 472 700 l 1,7,-1
 298 363 l 1,8,-1
 480 0 l 1,9,-1
 392 0 l 1,10,-1
 271 251 l 1,11,-1
 248 313 l 1,12,-1
 227 251 l 1,13,-1
 103 0 l 1,14,-1
 19 0 l 1,15,-1
 203 356 l 1,0,-1
EndSplineSet
Position2: "'cpsp' Capital Spacing lookup 0 subtable" dx=40 dy=0 dh=80 dv=0
EndChar

StartChar: Y
Encoding: 89 89 60
Width: 455
Flags: W
LayerCount: 2
Fore
SplineSet
191 278 m 1,0,-1
 5 700 l 1,1,-1
 93 700 l 1,2,-1
 219 395 l 1,3,-1
 232 334 l 1,4,-1
 234 334 l 1,5,-1
 247 397 l 1,6,-1
 369 700 l 1,7,-1
 450 700 l 1,8,-1
 266 279 l 1,9,-1
 266 0 l 1,10,-1
 191 0 l 1,11,-1
 191 278 l 1,0,-1
EndSplineSet
Position2: "'cpsp' Capital Spacing lookup 0 subtable" dx=40 dy=0 dh=80 dv=0
EndChar

StartChar: Z
Encoding: 90 90 61
Width: 439
Flags: W
LayerCount: 2
Fore
SplineSet
29 69 m 1,0,-1
 307 591 l 1,1,-1
 340 631 l 1,2,-1
 29 631 l 1,3,-1
 29 700 l 1,4,-1
 410 700 l 1,5,-1
 410 631 l 1,6,-1
 131 106 l 1,7,-1
 99 69 l 1,8,-1
 410 69 l 1,9,-1
 410 0 l 1,10,-1
 29 0 l 1,11,-1
 29 69 l 1,0,-1
EndSplineSet
Position2: "'cpsp' Capital Spacing lookup 0 subtable" dx=40 dy=0 dh=80 dv=0
EndChar

StartChar: bracketleft
Encoding: 91 91 62
Width: 248
Flags: W
LayerCount: 2
Fore
SplineSet
64 700 m 1,0,-1
 220 700 l 1,1,-1
 220 635 l 1,2,-1
 136 635 l 1,3,-1
 136 -165 l 1,4,-1
 220 -165 l 1,5,-1
 220 -230 l 1,6,-1
 64 -230 l 1,7,-1
 64 700 l 1,0,-1
EndSplineSet
Position2: "'case' Case-Sensitive Forms lookup 1 per glyph data 3" dx=0 dy=100 dh=0 dv=0
EndChar

StartChar: backslash
Encoding: 92 92 63
Width: 316
Flags: W
LayerCount: 2
Fore
SplineSet
330 -117 m 1,0,-1
 270 -140 l 1,1,-1
 -28 689 l 1,2,-1
 33 712 l 1,3,-1
 330 -117 l 1,0,-1
EndSplineSet
EndChar

StartChar: bracketright
Encoding: 93 93 64
Width: 248
Flags: W
LayerCount: 2
Fore
SplineSet
184 -230 m 1,0,-1
 29 -230 l 1,1,-1
 29 -165 l 1,2,-1
 112 -165 l 1,3,-1
 112 635 l 1,4,-1
 29 635 l 1,5,-1
 29 700 l 1,6,-1
 184 700 l 1,7,-1
 184 -230 l 1,0,-1
EndSplineSet
Position2: "'case' Case-Sensitive Forms lookup 1 per glyph data 3" dx=0 dy=100 dh=0 dv=0
EndChar

StartChar: asciicircum
Encoding: 94 94 65
Width: 412
Flags: W
LayerCount: 2
Fore
SplineSet
191 711 m 1,0,-1
 221 711 l 1,1,-1
 360 435 l 1,2,-1
 285 435 l 1,3,-1
 223 570 l 1,4,-1
 205 639 l 1,5,-1
 181 569 l 1,6,-1
 109 435 l 1,7,-1
 40 435 l 1,8,-1
 191 711 l 1,0,-1
EndSplineSet
EndChar

StartChar: underscore
Encoding: 95 95 66
Width: 334
Flags: W
LayerCount: 2
Fore
SplineSet
0 -140 m 1,0,-1
 334 -140 l 1,1,-1
 334 -205 l 1,2,-1
 0 -205 l 1,3,-1
 0 -140 l 1,0,-1
EndSplineSet
EndChar

StartChar: grave
Encoding: 96 96 67
Width: 255
Flags: W
LayerCount: 2
Fore
SplineSet
195 571 m 1,0,-1
 154 571 l 1,1,-1
 60 699 l 1,2,-1
 60 720 l 1,3,-1
 143 720 l 1,4,-1
 195 571 l 1,0,-1
EndSplineSet
EndChar

StartChar: a
Encoding: 97 97 68
Width: 400
Flags: W
LayerCount: 2
Fore
SplineSet
54 470 m 5,0,1
 83 488 83 488 124.5 498 c 132,-1,2
 166 508 166 508 212 508 c 4,3,4
 254 508 254 508 279.5 495.5 c 132,-1,5
 305 483 305 483 319.5 461.5 c 132,-1,6
 334 440 334 440 338.5 412.5 c 132,-1,7
 343 385 343 385 343 355 c 4,8,9
 343 295 343 295 340.5 238 c 132,-1,10
 338 181 338 181 338 130 c 4,11,12
 338 92 338 92 340.5 59.5 c 132,-1,13
 343 27 343 27 350 -2 c 5,14,-1
 295 -2 l 5,15,-1
 278 57 l 5,16,-1
 274 57 l 5,17,18
 259 31 259 31 230 12 c 132,-1,19
 201 -7 201 -7 152 -7 c 4,20,21
 98 -7 98 -7 63.5 30.5 c 132,-1,22
 29 68 29 68 29 134 c 4,23,24
 29 177 29 177 43.5 206 c 132,-1,25
 58 235 58 235 84.5 253 c 132,-1,26
 111 271 111 271 147.5 278.5 c 132,-1,27
 184 286 184 286 229 286 c 4,28,29
 239 286 239 286 249 286 c 132,-1,30
 259 286 259 286 270 285 c 5,31,32
 273 316 273 316 273 340 c 4,33,34
 273 397 273 397 256 420 c 132,-1,35
 239 443 239 443 194 443 c 4,36,37
 166 443 166 443 133 434.5 c 132,-1,38
 100 426 100 426 78 413 c 5,39,-1
 54 470 l 5,0,1
271 228 m 5,40,41
 261 229 261 229 251 229.5 c 132,-1,42
 241 230 241 230 231 230 c 4,43,44
 207 230 207 230 184 226 c 132,-1,45
 161 222 161 222 143 212 c 132,-1,46
 125 202 125 202 114.5 185 c 132,-1,47
 104 168 104 168 104 142 c 4,48,49
 104 102 104 102 123.5 80 c 132,-1,50
 143 58 143 58 174 58 c 4,51,52
 216 58 216 58 239 78 c 132,-1,53
 262 98 262 98 271 122 c 5,54,-1
 271 228 l 5,40,41
EndSplineSet
Substitution2: "Single Substitution lookup 13 subtable" ordfeminine
EndChar

StartChar: b
Encoding: 98 98 69
Width: 434
Flags: W
LayerCount: 2
Fore
SplineSet
59 700 m 1,0,-1
 131 700 l 1,1,-1
 131 462 l 1,2,-1
 134 462 l 1,3,4
 175 512 175 512 243 512 c 0,5,6
 320 512 320 512 358.5 451 c 128,-1,7
 397 390 397 390 397 258 c 0,8,9
 397 123 397 123 345.5 57 c 128,-1,10
 294 -9 294 -9 200 -9 c 0,11,12
 154 -9 154 -9 116 1.5 c 128,-1,13
 78 12 78 12 59 26 c 1,14,-1
 59 700 l 1,0,-1
131 73 m 1,15,16
 145 65 145 65 165.5 60.5 c 128,-1,17
 186 56 186 56 209 56 c 0,18,19
 261 56 261 56 291.5 105.5 c 128,-1,20
 322 155 322 155 322 258 c 0,21,22
 322 301 322 301 316.5 335.5 c 128,-1,23
 311 370 311 370 299.5 395 c 128,-1,24
 288 420 288 420 269.5 433.5 c 128,-1,25
 251 447 251 447 225 447 c 0,26,27
 189 447 189 447 165.5 425.5 c 128,-1,28
 142 404 142 404 131 367 c 1,29,-1
 131 73 l 1,15,16
EndSplineSet
EndChar

StartChar: c
Encoding: 99 99 70
Width: 356
Flags: W
LayerCount: 2
Fore
SplineSet
335 25 m 1,0,1
 310 6 310 6 278 -3 c 128,-1,2
 246 -12 246 -12 211 -12 c 0,3,4
 163 -12 163 -12 130 6.5 c 128,-1,5
 97 25 97 25 76.5 59.5 c 128,-1,6
 56 94 56 94 46.5 142.5 c 128,-1,7
 37 191 37 191 37 250 c 0,8,9
 37 378 37 378 82.5 445 c 128,-1,10
 128 512 128 512 213 512 c 0,11,12
 252 512 252 512 280 505 c 128,-1,13
 308 498 308 498 328 487 c 1,14,-1
 308 424 l 1,15,16
 268 447 268 447 221 447 c 0,17,18
 167 447 167 447 139.5 399.5 c 128,-1,19
 112 352 112 352 112 250 c 0,20,21
 112 209 112 209 118 173 c 128,-1,22
 124 137 124 137 138 110.5 c 128,-1,23
 152 84 152 84 174 68.5 c 128,-1,24
 196 53 196 53 229 53 c 0,25,26
 255 53 255 53 277.5 62 c 128,-1,27
 300 71 300 71 314 83 c 1,28,-1
 335 25 l 1,0,1
EndSplineSet
EndChar

StartChar: d
Encoding: 100 100 71
Width: 433
Flags: W
LayerCount: 2
Fore
SplineSet
374 172 m 2,0,1
 374 121 374 121 375 79.5 c 128,-1,2
 376 38 376 38 382 -2 c 1,3,-1
 333 -2 l 1,4,-1
 317 58 l 1,5,-1
 313 58 l 1,6,7
 299 28 299 28 269 8 c 128,-1,8
 239 -12 239 -12 197 -12 c 0,9,10
 116 -12 116 -12 76.5 51 c 128,-1,11
 37 114 37 114 37 249 c 0,12,13
 37 377 37 377 85.5 443 c 128,-1,14
 134 509 134 509 219 509 c 0,15,16
 248 509 248 509 265 505.5 c 128,-1,17
 282 502 282 502 302 494 c 1,18,-1
 302 700 l 1,19,-1
 374 700 l 1,20,-1
 374 172 l 2,0,1
302 421 m 1,21,22
 288 433 288 433 270.5 438.5 c 128,-1,23
 253 444 253 444 224 444 c 0,24,25
 171 444 171 444 141.5 396 c 128,-1,26
 112 348 112 348 112 248 c 0,27,28
 112 204 112 204 117.5 168.5 c 128,-1,29
 123 133 123 133 134.5 107 c 128,-1,30
 146 81 146 81 164.5 67 c 128,-1,31
 183 53 183 53 210 53 c 0,32,33
 282 53 282 53 302 138 c 1,34,-1
 302 421 l 1,21,22
EndSplineSet
EndChar

StartChar: e
Encoding: 101 101 72
Width: 413
Flags: W
LayerCount: 2
Fore
SplineSet
358 34 m 1,0,1
 334 12 334 12 297 0 c 128,-1,2
 260 -12 260 -12 219 -12 c 0,3,4
 172 -12 172 -12 137.5 6.5 c 128,-1,5
 103 25 103 25 80.5 59.5 c 128,-1,6
 58 94 58 94 47.5 142 c 128,-1,7
 37 190 37 190 37 250 c 0,8,9
 37 378 37 378 84 445 c 128,-1,10
 131 512 131 512 217 512 c 0,11,12
 245 512 245 512 272.5 505 c 128,-1,13
 300 498 300 498 322 477 c 128,-1,14
 344 456 344 456 357.5 418 c 128,-1,15
 371 380 371 380 371 319 c 0,16,17
 371 302 371 302 369.5 282.5 c 128,-1,18
 368 263 368 263 366 242 c 1,19,-1
 112 242 l 1,20,21
 112 199 112 199 119 164 c 128,-1,22
 126 129 126 129 141 104.5 c 128,-1,23
 156 80 156 80 179.5 66.5 c 128,-1,24
 203 53 203 53 238 53 c 0,25,26
 265 53 265 53 291.5 63 c 128,-1,27
 318 73 318 73 332 87 c 1,28,-1
 358 34 l 1,0,1
302 302 m 1,29,30
 304 377 304 377 281 412 c 128,-1,31
 258 447 258 447 218 447 c 0,32,33
 172 447 172 447 145 412 c 128,-1,34
 118 377 118 377 113 302 c 1,35,-1
 302 302 l 1,29,30
EndSplineSet
EndChar

StartChar: f
Encoding: 102 102 73
Width: 257
Flags: W
LayerCount: 2
Fore
SplineSet
16 500 m 1,0,-1
 77 500 l 1,1,-1
 77 528 l 2,2,3
 77 622 77 622 104 664 c 128,-1,4
 131 706 131 706 196 706 c 0,5,6
 222 706 222 706 243 703 c 128,-1,7
 264 700 264 700 286 690 c 1,8,-1
 268 628 l 1,9,10
 250 636 250 636 234.5 638.5 c 128,-1,11
 219 641 219 641 205 641 c 0,12,13
 185 641 185 641 174 633 c 128,-1,14
 163 625 163 625 157.5 608 c 128,-1,15
 152 591 152 591 150.5 564.5 c 128,-1,16
 149 538 149 538 149 500 c 1,17,-1
 253 500 l 1,18,-1
 253 435 l 1,19,-1
 149 435 l 1,20,-1
 149 0 l 1,21,-1
 77 0 l 1,22,-1
 77 435 l 1,23,-1
 16 435 l 1,24,-1
 16 500 l 1,0,-1
EndSplineSet
EndChar

StartChar: g
Encoding: 103 103 74
Width: 432
Flags: W
LayerCount: 2
Fore
SplineSet
374 -23 m 2,0,1
 374 -120 374 -120 331 -166 c 128,-1,2
 288 -212 288 -212 206 -212 c 0,3,4
 156 -212 156 -212 124 -203.5 c 128,-1,5
 92 -195 92 -195 72 -184 c 1,6,-1
 93 -122 l 1,7,8
 113 -131 113 -131 137 -139 c 128,-1,9
 161 -147 161 -147 196 -147 c 0,10,11
 257 -147 257 -147 279.5 -113 c 128,-1,12
 302 -79 302 -79 302 1 c 2,13,-1
 302 38 l 1,14,-1
 299 38 l 1,15,16
 283 15 283 15 258 2 c 128,-1,17
 233 -11 233 -11 194 -11 c 0,18,19
 113 -11 113 -11 75 51.5 c 128,-1,20
 37 114 37 114 37 248 c 0,21,22
 37 377 37 377 86.5 443 c 128,-1,23
 136 509 136 509 233 509 c 0,24,25
 280 509 280 509 314 500 c 128,-1,26
 348 491 348 491 374 479 c 1,27,-1
 374 -23 l 2,0,1
302 428 m 1,28,29
 272 444 272 444 225 444 c 0,30,31
 174 444 174 444 143 397.5 c 128,-1,32
 112 351 112 351 112 249 c 0,33,34
 112 207 112 207 117 171.5 c 128,-1,35
 122 136 122 136 134 109.5 c 128,-1,36
 146 83 146 83 164.5 68.5 c 128,-1,37
 183 54 183 54 210 54 c 0,38,39
 248 54 248 54 270 74 c 128,-1,40
 292 94 292 94 302 134 c 1,41,-1
 302 428 l 1,28,29
EndSplineSet
EndChar

StartChar: h
Encoding: 104 104 75
Width: 440
Flags: W
LayerCount: 2
Fore
SplineSet
315 0 m 1,0,-1
 315 304 l 2,1,2
 315 374 315 374 298.5 410.5 c 128,-1,3
 282 447 282 447 233 447 c 0,4,5
 198 447 198 447 169.5 422 c 128,-1,6
 141 397 141 397 131 359 c 1,7,-1
 131 0 l 1,8,-1
 59 0 l 1,9,-1
 59 700 l 1,10,-1
 131 700 l 1,11,-1
 131 453 l 1,12,-1
 134 453 l 1,13,14
 154 479 154 479 183.5 495.5 c 128,-1,15
 213 512 213 512 257 512 c 0,16,17
 290 512 290 512 314.5 503 c 128,-1,18
 339 494 339 494 355 472 c 128,-1,19
 371 450 371 450 379 413.5 c 128,-1,20
 387 377 387 377 387 323 c 2,21,-1
 387 0 l 1,22,-1
 315 0 l 1,0,-1
EndSplineSet
EndChar

StartChar: i
Encoding: 105 105 76
Width: 217
Flags: W
LayerCount: 2
Fore
SplineSet
71 500 m 5,0,-1
 143 500 l 5,1,-1
 143 0 l 5,2,-1
 71 0 l 5,3,-1
 71 500 l 5,0,-1
58 652 m 0,4,5
 58 676 58 676 71.5 691 c 128,-1,6
 85 706 85 706 107 706 c 256,7,8
 129 706 129 706 143.5 691.5 c 128,-1,9
 158 677 158 677 158 652 c 0,10,11
 158 628 158 628 143.5 614.5 c 128,-1,12
 129 601 129 601 107 601 c 256,13,14
 85 601 85 601 71.5 615 c 128,-1,15
 58 629 58 629 58 652 c 0,4,5
EndSplineSet
EndChar

StartChar: j
Encoding: 106 106 77
Width: 215
Flags: W
LayerCount: 2
Fore
SplineSet
72 500 m 1,0,-1
 144 500 l 1,1,-1
 144 -27 l 2,2,3
 144 -130 144 -130 111 -175.5 c 128,-1,4
 78 -221 78 -221 4 -210 c 1,5,-1
 4 -145 l 1,6,7
 26 -145 26 -145 39.5 -136 c 128,-1,8
 53 -127 53 -127 60.5 -108.5 c 128,-1,9
 68 -90 68 -90 70 -62.5 c 128,-1,10
 72 -35 72 -35 72 2 c 2,11,-1
 72 500 l 1,0,-1
58 652 m 0,12,13
 58 676 58 676 71.5 691 c 128,-1,14
 85 706 85 706 107 706 c 256,15,16
 129 706 129 706 143.5 691.5 c 128,-1,17
 158 677 158 677 158 652 c 0,18,19
 158 628 158 628 143.5 614.5 c 128,-1,20
 129 601 129 601 107 601 c 256,21,22
 85 601 85 601 71.5 615 c 128,-1,23
 58 629 58 629 58 652 c 0,12,13
EndSplineSet
EndChar

StartChar: k
Encoding: 107 107 78
Width: 388
Flags: W
LayerCount: 2
Fore
SplineSet
168 225 m 1,0,-1
 131 225 l 1,1,-1
 131 0 l 1,2,-1
 59 0 l 1,3,-1
 59 700 l 1,4,-1
 131 700 l 1,5,-1
 131 274 l 1,6,-1
 164 288 l 1,7,-1
 281 500 l 1,8,-1
 364 500 l 1,9,-1
 246 298 l 1,10,-1
 211 266 l 1,11,-1
 252 227 l 1,12,-1
 381 0 l 1,13,-1
 294 0 l 1,14,-1
 168 225 l 1,0,-1
EndSplineSet
EndChar

StartChar: l
Encoding: 108 108 79
Width: 233
Flags: W
LayerCount: 2
Fore
SplineSet
136 119 m 2,0,1
 136 84 136 84 145.5 69 c 128,-1,2
 155 54 155 54 172 54 c 0,3,4
 193 54 193 54 221 65 c 1,5,-1
 228 7 l 1,6,7
 215 -1 215 -1 191.5 -6 c 128,-1,8
 168 -11 168 -11 149 -11 c 0,9,10
 111 -11 111 -11 87.5 12.5 c 128,-1,11
 64 36 64 36 64 95 c 2,12,-1
 64 700 l 1,13,-1
 136 700 l 1,14,-1
 136 119 l 2,0,1
EndSplineSet
Substitution2: "'aalt' Access All Alternates lookup 0 subtable" l.var
EndChar

StartChar: m
Encoding: 109 109 80
Width: 651
Flags: W
LayerCount: 2
Fore
SplineSet
293 0 m 1,0,-1
 293 297 l 2,1,2
 293 337 293 337 290.5 365.5 c 128,-1,3
 288 394 288 394 280 412 c 128,-1,4
 272 430 272 430 258 438.5 c 128,-1,5
 244 447 244 447 221 447 c 0,6,7
 187 447 187 447 163.5 420.5 c 128,-1,8
 140 394 140 394 131 360 c 1,9,-1
 131 0 l 1,10,-1
 59 0 l 1,11,-1
 59 500 l 1,12,-1
 110 500 l 1,13,-1
 123 447 l 1,14,-1
 126 447 l 1,15,16
 147 476 147 476 176 494 c 128,-1,17
 205 512 205 512 250 512 c 0,18,19
 288 512 288 512 312.5 495.5 c 128,-1,20
 337 479 337 479 351 437 c 1,21,22
 369 472 369 472 402.5 492 c 128,-1,23
 436 512 436 512 476 512 c 0,24,25
 509 512 509 512 532.5 503.5 c 128,-1,26
 556 495 556 495 570.5 473.5 c 128,-1,27
 585 452 585 452 592 416.5 c 128,-1,28
 599 381 599 381 599 327 c 2,29,-1
 599 0 l 1,30,-1
 527 0 l 1,31,-1
 527 318 l 2,32,33
 527 383 527 383 514.5 415 c 128,-1,34
 502 447 502 447 457 447 c 0,35,36
 419 447 419 447 396.5 423.5 c 128,-1,37
 374 400 374 400 365 360 c 1,38,-1
 365 0 l 1,39,-1
 293 0 l 1,0,-1
EndSplineSet
EndChar

StartChar: n
Encoding: 110 110 81
Width: 439
Flags: W
LayerCount: 2
Fore
SplineSet
315 0 m 1,0,-1
 315 305 l 2,1,2
 315 380 315 380 297.5 413.5 c 128,-1,3
 280 447 280 447 235 447 c 0,4,5
 195 447 195 447 169 423 c 128,-1,6
 143 399 143 399 131 364 c 1,7,-1
 131 0 l 1,8,-1
 59 0 l 1,9,-1
 59 500 l 1,10,-1
 111 500 l 1,11,-1
 124 447 l 1,12,-1
 127 447 l 1,13,14
 146 474 146 474 178.5 493 c 128,-1,15
 211 512 211 512 256 512 c 0,16,17
 288 512 288 512 312.5 503 c 128,-1,18
 337 494 337 494 353.5 472.5 c 128,-1,19
 370 451 370 451 378.5 415 c 128,-1,20
 387 379 387 379 387 324 c 2,21,-1
 387 0 l 1,22,-1
 315 0 l 1,0,-1
EndSplineSet
EndChar

StartChar: o
Encoding: 111 111 82
Width: 432
Flags: W
LayerCount: 2
Fore
SplineSet
37 250 m 4,0,1
 37 385 37 385 83.5 448.5 c 132,-1,2
 130 512 130 512 216 512 c 4,3,4
 308 512 308 512 351.5 447 c 132,-1,5
 395 382 395 382 395 250 c 4,6,7
 395 114 395 114 348 51 c 132,-1,8
 301 -12 301 -12 216 -12 c 4,9,10
 124 -12 124 -12 80.5 53 c 132,-1,11
 37 118 37 118 37 250 c 4,0,1
112 250 m 4,12,13
 112 206 112 206 117.5 170 c 132,-1,14
 123 134 123 134 135.5 108 c 132,-1,15
 148 82 148 82 168 67.5 c 132,-1,16
 188 53 188 53 216 53 c 4,17,18
 268 53 268 53 294 99.5 c 132,-1,19
 320 146 320 146 320 250 c 4,20,21
 320 293 320 293 314.5 329.5 c 132,-1,22
 309 366 309 366 296.5 392 c 132,-1,23
 284 418 284 418 264 432.5 c 132,-1,24
 244 447 244 447 216 447 c 4,25,26
 165 447 165 447 138.5 400 c 132,-1,27
 112 353 112 353 112 250 c 4,12,13
EndSplineSet
Substitution2: "Single Substitution lookup 13 subtable" ordmasculine
EndChar

StartChar: p
Encoding: 112 112 83
Width: 435
Flags: W
LayerCount: 2
Fore
SplineSet
59 500 m 1,0,-1
 110 500 l 1,1,-1
 121 446 l 1,2,-1
 125 446 l 1,3,4
 162 512 162 512 241 512 c 256,5,6
 320 512 320 512 359.5 453 c 128,-1,7
 399 394 399 394 399 260 c 0,8,9
 399 197 399 197 386 146.5 c 128,-1,10
 373 96 373 96 349 60.5 c 128,-1,11
 325 25 325 25 290.5 6.5 c 128,-1,12
 256 -12 256 -12 214 -12 c 0,13,14
 185 -12 185 -12 168 -8.5 c 128,-1,15
 151 -5 151 -5 131 6 c 1,16,-1
 131 -200 l 1,17,-1
 59 -200 l 1,18,-1
 59 500 l 1,0,-1
131 79 m 1,19,20
 145 67 145 67 162.5 60 c 128,-1,21
 180 53 180 53 209 53 c 0,22,23
 262 53 262 53 293 107 c 128,-1,24
 324 161 324 161 324 261 c 0,25,26
 324 303 324 303 318.5 337 c 128,-1,27
 313 371 313 371 301 395.5 c 128,-1,28
 289 420 289 420 270.5 433.5 c 128,-1,29
 252 447 252 447 225 447 c 0,30,31
 152 447 152 447 131 358 c 1,32,-1
 131 79 l 1,19,20
EndSplineSet
EndChar

StartChar: q
Encoding: 113 113 84
Width: 432
Flags: W
LayerCount: 2
Fore
SplineSet
374 -200 m 1,0,-1
 302 -200 l 1,1,-1
 302 41 l 1,2,-1
 298 41 l 1,3,4
 282 16 282 16 257.5 2 c 128,-1,5
 233 -12 233 -12 194 -12 c 0,6,7
 115 -12 115 -12 76 51.5 c 128,-1,8
 37 115 37 115 37 248 c 0,9,10
 37 377 37 377 88 443 c 128,-1,11
 139 509 139 509 236 509 c 0,12,13
 278 509 278 509 316 499 c 128,-1,14
 354 489 354 489 374 478 c 1,15,-1
 374 -200 l 1,0,-1
302 427 m 1,16,17
 274 444 274 444 223 444 c 0,18,19
 171 444 171 444 141.5 396 c 128,-1,20
 112 348 112 348 112 249 c 0,21,22
 112 207 112 207 117 171 c 128,-1,23
 122 135 122 135 133.5 108.5 c 128,-1,24
 145 82 145 82 163.5 67.5 c 128,-1,25
 182 53 182 53 209 53 c 0,26,27
 247 53 247 53 269 75 c 128,-1,28
 291 97 291 97 302 139 c 1,29,-1
 302 427 l 1,16,17
EndSplineSet
EndChar

StartChar: r
Encoding: 114 114 85
Width: 274
Flags: W
LayerCount: 2
Fore
SplineSet
59 500 m 1,0,-1
 110 500 l 1,1,-1
 123 447 l 1,2,-1
 126 447 l 1,3,4
 140 476 140 476 162.5 492.5 c 128,-1,5
 185 509 185 509 217 509 c 0,6,7
 240 509 240 509 269 500 c 1,8,-1
 255 427 l 1,9,10
 229 436 229 436 209 436 c 0,11,12
 177 436 177 436 157 417.5 c 128,-1,13
 137 399 137 399 131 368 c 1,14,-1
 131 0 l 1,15,-1
 59 0 l 1,16,-1
 59 500 l 1,0,-1
EndSplineSet
EndChar

StartChar: s
Encoding: 115 115 86
Width: 338
Flags: W
LayerCount: 2
Fore
SplineSet
51 82 m 1,0,1
 71 70 71 70 98.5 61.5 c 128,-1,2
 126 53 126 53 155 53 c 0,3,4
 188 53 188 53 211 69.5 c 128,-1,5
 234 86 234 86 234 123 c 0,6,7
 234 154 234 154 220 174 c 128,-1,8
 206 194 206 194 184.5 210 c 128,-1,9
 163 226 163 226 138 239.5 c 128,-1,10
 113 253 113 253 91.5 272 c 128,-1,11
 70 291 70 291 56 317 c 128,-1,12
 42 343 42 343 42 383 c 0,13,14
 42 447 42 447 76.5 479.5 c 128,-1,15
 111 512 111 512 174 512 c 0,16,17
 215 512 215 512 245 504.5 c 128,-1,18
 275 497 275 497 297 484 c 1,19,-1
 278 424 l 1,20,21
 259 434 259 434 234 440.5 c 128,-1,22
 209 447 209 447 183 447 c 0,23,24
 147 447 147 447 130.5 432 c 128,-1,25
 114 417 114 417 114 385 c 0,26,27
 114 360 114 360 128 342.5 c 128,-1,28
 142 325 142 325 163.5 310.5 c 128,-1,29
 185 296 185 296 210 281 c 128,-1,30
 235 266 235 266 256.5 245.5 c 128,-1,31
 278 225 278 225 292 196.5 c 128,-1,32
 306 168 306 168 306 125 c 0,33,34
 306 97 306 97 297 72 c 128,-1,35
 288 47 288 47 269.5 28.5 c 128,-1,36
 251 10 251 10 223.5 -1 c 128,-1,37
 196 -12 196 -12 159 -12 c 0,38,39
 115 -12 115 -12 83 -3.5 c 128,-1,40
 51 5 51 5 29 19 c 1,41,-1
 51 82 l 1,0,1
EndSplineSet
Substitution2: "'hist' Historical Forms lookup 10 subtable" longs
Substitution2: "'aalt' Access All Alternates lookup 0 subtable" longs
EndChar

StartChar: t
Encoding: 116 116 87
Width: 275
Flags: W
LayerCount: 2
Fore
SplineSet
9 500 m 1,0,-1
 70 500 l 1,1,-1
 70 599 l 1,2,-1
 142 622 l 1,3,-1
 142 500 l 1,4,-1
 250 500 l 1,5,-1
 250 435 l 1,6,-1
 142 435 l 1,7,-1
 142 137 l 2,8,9
 142 93 142 93 152.5 73.5 c 128,-1,10
 163 54 163 54 187 54 c 0,11,12
 207 54 207 54 221.5 58.5 c 128,-1,13
 236 63 236 63 253 70 c 1,14,-1
 267 13 l 1,15,16
 245 2 245 2 218.5 -4.5 c 128,-1,17
 192 -11 192 -11 163 -11 c 0,18,19
 113 -11 113 -11 91.5 21.5 c 128,-1,20
 70 54 70 54 70 127 c 2,21,-1
 70 435 l 1,22,-1
 9 435 l 1,23,-1
 9 500 l 1,0,-1
EndSplineSet
EndChar

StartChar: u
Encoding: 117 117 88
Width: 434
Flags: W
LayerCount: 2
Fore
SplineSet
124 500 m 5,0,-1
 124 194 l 6,1,2
 124 118 124 118 139.5 85.5 c 132,-1,3
 155 53 155 53 196 53 c 4,4,5
 217 53 217 53 233.5 61.5 c 132,-1,6
 250 70 250 70 263 84 c 132,-1,7
 276 98 276 98 286 116 c 132,-1,8
 296 134 296 134 302 153 c 5,9,-1
 302 500 l 5,10,-1
 374 500 l 5,11,-1
 374 142 l 6,12,13
 374 106 374 106 376.5 67.5 c 132,-1,14
 379 29 379 29 384 0 c 5,15,-1
 333 0 l 5,16,-1
 315 70 l 5,17,-1
 312 70 l 5,18,19
 295 37 295 37 263 12.5 c 132,-1,20
 231 -12 231 -12 183 -12 c 4,21,22
 151 -12 151 -12 127 -4 c 132,-1,23
 103 4 103 4 86 25 c 132,-1,24
 69 46 69 46 60.5 82.5 c 132,-1,25
 52 119 52 119 52 176 c 6,26,-1
 52 500 l 5,27,-1
 124 500 l 5,0,-1
EndSplineSet
EndChar

StartChar: v
Encoding: 118 118 89
Width: 388
Flags: W
LayerCount: 2
Fore
SplineSet
180 207 m 1,0,-1
 200 108 l 1,1,-1
 202 108 l 1,2,-1
 220 209 l 1,3,-1
 308 500 l 1,4,-1
 384 500 l 1,5,-1
 213 -11 l 1,6,-1
 178 -11 l 1,7,-1
 4 500 l 1,8,-1
 86 500 l 1,9,-1
 180 207 l 1,0,-1
EndSplineSet
EndChar

StartChar: w
Encoding: 119 119 90
Width: 590
Flags: W
LayerCount: 2
Fore
SplineSet
326 500 m 1,0,-1
 415 208 l 1,1,-1
 433 112 l 1,2,-1
 435 112 l 1,3,-1
 450 210 l 1,4,-1
 518 500 l 1,5,-1
 586 500 l 1,6,-1
 453 -11 l 1,7,-1
 412 -11 l 1,8,-1
 311 317 l 1,9,-1
 297 401 l 1,10,-1
 295 401 l 1,11,-1
 281 316 l 1,12,-1
 183 -11 l 1,13,-1
 142 -11 l 1,14,-1
 5 500 l 1,15,-1
 82 500 l 1,16,-1
 159 209 l 1,17,-1
 171 112 l 1,18,-1
 173 112 l 1,19,-1
 191 211 l 1,20,-1
 273 500 l 1,21,-1
 326 500 l 1,0,-1
EndSplineSet
EndChar

StartChar: x
Encoding: 120 120 91
Width: 412
Flags: W
LayerCount: 2
Fore
SplineSet
161 256 m 1,0,-1
 29 500 l 1,1,-1
 115 500 l 1,2,-1
 189 357 l 1,3,-1
 209 301 l 1,4,-1
 230 357 l 1,5,-1
 306 500 l 1,6,-1
 385 500 l 1,7,-1
 252 260 l 1,8,-1
 393 0 l 1,9,-1
 311 0 l 1,10,-1
 227 157 l 1,11,-1
 205 217 l 1,12,-1
 182 157 l 1,13,-1
 98 0 l 1,14,-1
 19 0 l 1,15,-1
 161 256 l 1,0,-1
EndSplineSet
EndChar

StartChar: y
Encoding: 121 121 92
Width: 376
Flags: W
LayerCount: 2
Fore
SplineSet
183 177 m 1,0,-1
 204 80 l 1,1,-1
 209 80 l 1,2,-1
 224 177 l 1,3,-1
 300 500 l 1,4,-1
 373 500 l 1,5,-1
 254 51 l 2,6,7
 240 -3 240 -3 226 -50 c 128,-1,8
 212 -97 212 -97 195.5 -131.5 c 128,-1,9
 179 -166 179 -166 158.5 -185.5 c 128,-1,10
 138 -205 138 -205 110 -205 c 256,11,12
 82 -205 82 -205 61 -196 c 1,13,-1
 73 -128 l 1,14,15
 87 -133 87 -133 101 -130 c 128,-1,16
 115 -127 115 -127 127.5 -113 c 128,-1,17
 140 -99 140 -99 150.5 -71.5 c 128,-1,18
 161 -44 161 -44 169 0 c 1,19,-1
 7 500 l 1,20,-1
 89 500 l 1,21,-1
 183 177 l 1,0,-1
EndSplineSet
EndChar

StartChar: z
Encoding: 122 122 93
Width: 360
Flags: W
LayerCount: 2
Fore
SplineSet
32 65 m 1,0,-1
 218 392 l 1,1,-1
 253 435 l 1,2,-1
 32 435 l 1,3,-1
 32 500 l 1,4,-1
 324 500 l 1,5,-1
 324 435 l 1,6,-1
 137 105 l 1,7,-1
 103 65 l 1,8,-1
 324 65 l 1,9,-1
 324 0 l 1,10,-1
 32 0 l 1,11,-1
 32 65 l 1,0,-1
EndSplineSet
EndChar

StartChar: braceleft
Encoding: 123 123 94
Width: 282
Flags: W
LayerCount: 2
Fore
SplineSet
107 114 m 2,0,1
 107 165 107 165 90.5 184 c 128,-1,2
 74 203 74 203 43 203 c 1,3,-1
 43 268 l 1,4,5
 74 268 74 268 90.5 288 c 128,-1,6
 107 308 107 308 107 352 c 2,7,-1
 107 599 l 2,8,9
 107 646 107 646 125.5 673.5 c 128,-1,10
 144 701 144 701 186 701 c 2,11,-1
 260 701 l 1,12,-1
 260 636 l 1,13,-1
 221 636 l 2,14,15
 198 636 198 636 188.5 623.5 c 128,-1,16
 179 611 179 611 179 579 c 2,17,-1
 179 335 l 2,18,19
 179 291 179 291 162.5 268 c 128,-1,20
 146 245 146 245 123 240 c 1,21,-1
 123 234 l 1,22,23
 146 230 146 230 162.5 203.5 c 128,-1,24
 179 177 179 177 179 135 c 2,25,-1
 179 -108 l 2,26,27
 179 -139 179 -139 188.5 -152 c 128,-1,28
 198 -165 198 -165 222 -165 c 2,29,-1
 260 -165 l 1,30,-1
 260 -230 l 1,31,-1
 186 -230 l 2,32,33
 107 -230 107 -230 107 -129 c 2,34,-1
 107 114 l 2,0,1
EndSplineSet
Position2: "'case' Case-Sensitive Forms lookup 1 per glyph data 3" dx=0 dy=100 dh=0 dv=0
EndChar

StartChar: bar
Encoding: 124 124 95
Width: 190
Flags: W
LayerCount: 2
Fore
SplineSet
65 700 m 1,0,-1
 126 700 l 1,1,-1
 126 -130 l 1,2,-1
 65 -130 l 1,3,-1
 65 700 l 1,0,-1
EndSplineSet
EndChar

StartChar: braceright
Encoding: 125 125 96
Width: 282
Flags: W
LayerCount: 2
Fore
SplineSet
175 -129 m 2,0,1
 175 -230 175 -230 96 -230 c 2,2,-1
 22 -230 l 1,3,-1
 22 -165 l 1,4,-1
 60 -165 l 2,5,6
 84 -165 84 -165 93.5 -152 c 128,-1,7
 103 -139 103 -139 103 -108 c 2,8,-1
 103 135 l 2,9,10
 103 177 103 177 119.5 203.5 c 128,-1,11
 136 230 136 230 159 234 c 1,12,-1
 159 240 l 1,13,14
 136 245 136 245 119.5 268 c 128,-1,15
 103 291 103 291 103 335 c 2,16,-1
 103 579 l 2,17,18
 103 611 103 611 93.5 623.5 c 128,-1,19
 84 636 84 636 61 636 c 2,20,-1
 22 636 l 1,21,-1
 22 701 l 1,22,-1
 96 701 l 2,23,24
 138 701 138 701 156.5 673.5 c 128,-1,25
 175 646 175 646 175 599 c 2,26,-1
 175 352 l 2,27,28
 175 308 175 308 191.5 288 c 128,-1,29
 208 268 208 268 239 268 c 1,30,-1
 239 203 l 1,31,32
 208 203 208 203 191.5 184 c 128,-1,33
 175 165 175 165 175 114 c 2,34,-1
 175 -129 l 2,0,1
EndSplineSet
Position2: "'case' Case-Sensitive Forms lookup 1 per glyph data 3" dx=0 dy=100 dh=0 dv=0
EndChar

StartChar: asciitilde
Encoding: 126 126 97
Width: 415
Flags: W
LayerCount: 2
Fore
SplineSet
23 361 m 1,0,1
 59 394 59 394 88 407 c 128,-1,2
 117 420 117 420 142 420 c 0,3,4
 165 420 165 420 185 411.5 c 128,-1,5
 205 403 205 403 223 393.5 c 128,-1,6
 241 384 241 384 258.5 375.5 c 128,-1,7
 276 367 276 367 294 367 c 0,8,9
 308 367 308 367 324 374 c 128,-1,10
 340 381 340 381 357 400 c 1,11,-1
 391 340 l 1,12,13
 359 313 359 313 334 302.5 c 128,-1,14
 309 292 309 292 288 292 c 0,15,16
 266 292 266 292 247.5 300.5 c 128,-1,17
 229 309 229 309 211.5 319.5 c 128,-1,18
 194 330 194 330 176.5 338.5 c 128,-1,19
 159 347 159 347 140 347 c 0,20,21
 122 347 122 347 101.5 337 c 128,-1,22
 81 327 81 327 56 302 c 1,23,-1
 23 361 l 1,0,1
EndSplineSet
EndChar

StartChar: cent
Encoding: 162 162 100
Width: 450
Flags: W
LayerCount: 2
Fore
SplineSet
382 27 m 1,0,1
 364 12 364 12 339.5 3 c 128,-1,2
 315 -6 315 -6 289 -9 c 1,3,-1
 289 -100 l 1,4,-1
 224 -100 l 1,5,-1
 224 -10 l 1,6,7
 183 -4 183 -4 155 17 c 128,-1,8
 127 38 127 38 109.5 71.5 c 128,-1,9
 92 105 92 105 84 150.5 c 128,-1,10
 76 196 76 196 76 250 c 0,11,12
 76 364 76 364 114 430 c 128,-1,13
 152 496 152 496 224 509 c 1,14,-1
 224 600 l 1,15,-1
 289 600 l 1,16,-1
 289 511 l 1,17,18
 316 509 316 509 337 503 c 128,-1,19
 358 497 358 497 375 487 c 1,20,-1
 355 424 l 1,21,22
 340 433 340 433 321.5 438.5 c 128,-1,23
 303 444 303 444 283 446 c 1,24,-1
 283 53 l 1,25,26
 308 55 308 55 328 64 c 128,-1,27
 348 73 348 73 361 84 c 1,28,-1
 382 27 l 1,0,1
148 250 m 1,29,30
 151 214 151 214 155.5 182.5 c 128,-1,31
 160 151 160 151 170 126 c 128,-1,32
 180 101 180 101 196 83 c 128,-1,33
 212 65 212 65 235 58 c 1,34,-1
 235 443 l 1,35,36
 192 432 192 432 171.5 385 c 128,-1,37
 151 338 151 338 148 250 c 1,29,30
EndSplineSet
EndChar

StartChar: sterling
Encoding: 163 163 101
Width: 450
Flags: W
LayerCount: 2
Fore
SplineSet
42 382 m 1,0,-1
 96 382 l 1,1,2
 86 411 86 411 79 444 c 128,-1,3
 72 477 72 477 72 522 c 0,4,5
 72 619 72 619 118 665.5 c 128,-1,6
 164 712 164 712 242 712 c 0,7,8
 291 712 291 712 327 704 c 128,-1,9
 363 696 363 696 388 684 c 1,10,-1
 364 620 l 1,11,12
 345 630 345 630 315.5 637.5 c 128,-1,13
 286 645 286 645 244 645 c 0,14,15
 198 645 198 645 172.5 613 c 128,-1,16
 147 581 147 581 147 519 c 0,17,18
 147 477 147 477 156 445 c 128,-1,19
 165 413 165 413 176 382 c 1,20,-1
 303 382 l 1,21,-1
 303 317 l 1,22,-1
 199 317 l 1,23,24
 206 294 206 294 210.5 268 c 128,-1,25
 215 242 215 242 215 210 c 0,26,27
 215 181 215 181 206.5 147 c 128,-1,28
 198 113 198 113 183 92 c 1,29,-1
 144 57 l 1,30,-1
 144 53 l 1,31,-1
 203 67 l 1,32,-1
 404 67 l 1,33,-1
 404 0 l 1,34,-1
 42 0 l 1,35,-1
 42 67 l 1,36,37
 67 68 67 68 85.5 80 c 128,-1,38
 104 92 104 92 116 111.5 c 128,-1,39
 128 131 128 131 134 155.5 c 128,-1,40
 140 180 140 180 140 204 c 0,41,42
 140 238 140 238 134 265 c 128,-1,43
 128 292 128 292 120 317 c 1,44,-1
 42 317 l 1,45,-1
 42 382 l 1,0,-1
EndSplineSet
EndChar

StartChar: currency
Encoding: 164 164 102
Width: 450
Flags: W
LayerCount: 2
Fore
SplineSet
46 579 m 1,0,-1
 115 512 l 1,1,-1
 134 481 l 1,2,3
 171 510 171 510 225 510 c 0,4,5
 251 510 251 510 274.5 502.5 c 128,-1,6
 298 495 298 495 316 481 c 1,7,-1
 335 512 l 1,8,-1
 405 579 l 1,9,-1
 447 536 l 1,10,-1
 380 467 l 1,11,-1
 349 448 l 1,12,13
 377 409 377 409 377 358 c 0,14,15
 377 302 377 302 349 267 c 1,16,-1
 380 248 l 1,17,-1
 447 179 l 1,18,-1
 405 136 l 1,19,-1
 335 204 l 1,20,-1
 317 234 l 1,21,22
 278 206 278 206 225 206 c 0,23,24
 171 206 171 206 134 234 c 1,25,-1
 115 204 l 1,26,-1
 46 136 l 1,27,-1
 3 179 l 1,28,-1
 71 248 l 1,29,-1
 101 267 l 1,30,31
 73 304 73 304 73 358 c 0,32,33
 73 384 73 384 80.5 406.5 c 128,-1,34
 88 429 88 429 101 448 c 1,35,-1
 71 467 l 1,36,-1
 3 536 l 1,37,-1
 46 579 l 1,0,-1
135 358 m 0,38,39
 135 317 135 317 160 290.5 c 128,-1,40
 185 264 185 264 225 264 c 256,41,42
 265 264 265 264 290.5 290.5 c 128,-1,43
 316 317 316 317 316 358 c 0,44,45
 316 397 316 397 290.5 424 c 128,-1,46
 265 451 265 451 225 451 c 256,47,48
 185 451 185 451 160 424 c 128,-1,49
 135 397 135 397 135 358 c 0,38,39
EndSplineSet
EndChar

StartChar: yen
Encoding: 165 165 103
Width: 450
Flags: W
LayerCount: 2
Fore
SplineSet
89 326 m 1,0,-1
 168 326 l 1,1,-1
 3 700 l 1,2,-1
 91 700 l 1,3,-1
 217 395 l 1,4,-1
 230 334 l 1,5,-1
 232 334 l 1,6,-1
 245 397 l 1,7,-1
 367 700 l 1,8,-1
 448 700 l 1,9,-1
 284 326 l 1,10,-1
 364 326 l 1,11,-1
 364 268 l 1,12,-1
 264 268 l 1,13,-1
 264 197 l 1,14,-1
 364 197 l 1,15,-1
 364 139 l 1,16,-1
 264 139 l 1,17,-1
 264 0 l 1,18,-1
 189 0 l 1,19,-1
 189 139 l 1,20,-1
 89 139 l 1,21,-1
 89 197 l 1,22,-1
 189 197 l 1,23,-1
 189 268 l 1,24,-1
 89 268 l 1,25,-1
 89 326 l 1,0,-1
EndSplineSet
EndChar

StartChar: brokenbar
Encoding: 166 166 104
Width: 189
Flags: W
LayerCount: 2
Fore
SplineSet
64 206 m 1,0,-1
 125 206 l 1,1,-1
 125 -130 l 1,2,-1
 64 -130 l 1,3,-1
 64 206 l 1,0,-1
125 364 m 1,4,-1
 64 364 l 1,5,-1
 64 700 l 1,6,-1
 125 700 l 1,7,-1
 125 364 l 1,4,-1
EndSplineSet
EndChar

StartChar: section
Encoding: 167 167 105
Width: 405
Flags: W
LayerCount: 2
Fore
SplineSet
45 353 m 0,0,1
 45 384 45 384 58 414.5 c 128,-1,2
 71 445 71 445 94 468 c 1,3,-1
 128 483 l 1,4,5
 106 500 106 500 90.5 524 c 128,-1,6
 75 548 75 548 75 590 c 0,7,8
 75 643 75 643 108.5 677.5 c 128,-1,9
 142 712 142 712 208 712 c 0,10,11
 250 712 250 712 281 704 c 128,-1,12
 312 696 312 696 334 685 c 1,13,-1
 316 623 l 1,14,15
 295 633 295 633 269.5 640 c 128,-1,16
 244 647 244 647 216 647 c 0,17,18
 180 647 180 647 163.5 630 c 128,-1,19
 147 613 147 613 147 588 c 0,20,21
 147 562 147 562 163 546 c 128,-1,22
 179 530 179 530 202.5 517.5 c 128,-1,23
 226 505 226 505 253.5 493 c 128,-1,24
 281 481 281 481 304.5 463 c 128,-1,25
 328 445 328 445 344 417.5 c 128,-1,26
 360 390 360 390 360 347 c 0,27,28
 360 316 360 316 348 284.5 c 128,-1,29
 336 253 336 253 313 230 c 1,30,-1
 277 216 l 1,31,32
 298 200 298 200 314 175.5 c 128,-1,33
 330 151 330 151 330 110 c 0,34,35
 330 50 330 50 292.5 19 c 128,-1,36
 255 -12 255 -12 194 -12 c 0,37,38
 152 -12 152 -12 122 -4.5 c 128,-1,39
 92 3 92 3 70 17 c 1,40,-1
 89 78 l 1,41,42
 108 67 108 67 133 60 c 128,-1,43
 158 53 158 53 186 53 c 0,44,45
 258 53 258 53 258 114 c 0,46,47
 258 138 258 138 242 153.5 c 128,-1,48
 226 169 226 169 202.5 181.5 c 128,-1,49
 179 194 179 194 151.5 206 c 128,-1,50
 124 218 124 218 100.5 236.5 c 128,-1,51
 77 255 77 255 61 282.5 c 128,-1,52
 45 310 45 310 45 353 c 0,0,1
288 345 m 0,53,54
 288 369 288 369 278.5 385 c 128,-1,55
 269 401 269 401 253 412.5 c 128,-1,56
 237 424 237 424 216.5 433.5 c 128,-1,57
 196 443 196 443 174 453 c 1,58,59
 150 439 150 439 133.5 415 c 128,-1,60
 117 391 117 391 117 355 c 0,61,62
 117 332 117 332 126.5 315.5 c 128,-1,63
 136 299 136 299 152 286.5 c 128,-1,64
 168 274 168 274 188.5 264.5 c 128,-1,65
 209 255 209 255 231 245 c 1,66,67
 253 259 253 259 270.5 286 c 128,-1,68
 288 313 288 313 288 345 c 0,53,54
EndSplineSet
EndChar

StartChar: dieresis
Encoding: 168 168 106
Width: 365
Flags: W
LayerCount: 2
Fore
SplineSet
60 653 m 0,0,1
 60 676 60 676 71.5 689 c 128,-1,2
 83 702 83 702 103 702 c 256,3,4
 123 702 123 702 134.5 689 c 128,-1,5
 146 676 146 676 146 653 c 0,6,7
 146 632 146 632 134.5 619 c 128,-1,8
 123 606 123 606 103 606 c 256,9,10
 83 606 83 606 71.5 619 c 128,-1,11
 60 632 60 632 60 653 c 0,0,1
219 653 m 0,12,13
 219 676 219 676 230.5 689 c 128,-1,14
 242 702 242 702 262 702 c 256,15,16
 282 702 282 702 293.5 689 c 128,-1,17
 305 676 305 676 305 653 c 0,18,19
 305 632 305 632 293.5 619 c 128,-1,20
 282 606 282 606 262 606 c 256,21,22
 242 606 242 606 230.5 619 c 128,-1,23
 219 632 219 632 219 653 c 0,12,13
EndSplineSet
EndChar

StartChar: copyright
Encoding: 169 169 107
Width: 693
Flags: W
LayerCount: 2
Fore
SplineSet
50 293 m 256,0,1
 50 363 50 363 73.5 418 c 128,-1,2
 97 473 97 473 137.5 511 c 128,-1,3
 178 549 178 549 232 569.5 c 128,-1,4
 286 590 286 590 347 590 c 256,5,6
 408 590 408 590 462 569.5 c 128,-1,7
 516 549 516 549 556.5 511 c 128,-1,8
 597 473 597 473 620.5 418 c 128,-1,9
 644 363 644 363 644 293 c 256,10,11
 644 223 644 223 620.5 168 c 128,-1,12
 597 113 597 113 556.5 74.5 c 128,-1,13
 516 36 516 36 462 16 c 128,-1,14
 408 -4 408 -4 347 -4 c 0,15,16
 279 -4 279 -4 224.5 16 c 128,-1,17
 170 36 170 36 131 74.5 c 128,-1,18
 92 113 92 113 71 168 c 128,-1,19
 50 223 50 223 50 293 c 256,0,1
110 293 m 256,20,21
 110 235 110 235 128.5 190 c 128,-1,22
 147 145 147 145 179 114.5 c 128,-1,23
 211 84 211 84 254 68 c 128,-1,24
 297 52 297 52 347 52 c 0,25,26
 396 52 396 52 439.5 68 c 128,-1,27
 483 84 483 84 515 114.5 c 128,-1,28
 547 145 547 145 565.5 190 c 128,-1,29
 584 235 584 235 584 293 c 256,30,31
 584 351 584 351 565.5 396 c 128,-1,32
 547 441 547 441 515 471.5 c 128,-1,33
 483 502 483 502 439.5 518 c 128,-1,34
 396 534 396 534 347 534 c 0,35,36
 297 534 297 534 254 518 c 128,-1,37
 211 502 211 502 179 471.5 c 128,-1,38
 147 441 147 441 128.5 396 c 128,-1,39
 110 351 110 351 110 293 c 256,20,21
446 155 m 1,40,41
 426 144 426 144 402 138 c 128,-1,42
 378 132 378 132 346 132 c 0,43,44
 278 132 278 132 242 175.5 c 128,-1,45
 206 219 206 219 206 293 c 0,46,47
 206 370 206 370 244.5 411.5 c 128,-1,48
 283 453 283 453 346 453 c 0,49,50
 377 453 377 453 396 447 c 128,-1,51
 415 441 415 441 440 430 c 1,52,-1
 418 375 l 1,53,54
 399 384 399 384 382.5 388 c 128,-1,55
 366 392 366 392 354 392 c 0,56,57
 319 392 319 392 298.5 369.5 c 128,-1,58
 278 347 278 347 278 293 c 0,59,60
 278 194 278 194 361 194 c 0,61,62
 399 194 399 194 428 210 c 1,63,-1
 446 155 l 1,40,41
EndSplineSet
EndChar

StartChar: ordfeminine
Encoding: 170 170 108
Width: 316
Flags: W
LayerCount: 2
Fore
SplineSet
52 681 m 1,0,1
 73 692 73 692 106.5 700 c 128,-1,2
 140 708 140 708 182 708 c 0,3,4
 235 708 235 708 254 682 c 128,-1,5
 273 656 273 656 274 607 c 1,6,7
 273 538 273 538 270 481 c 128,-1,8
 267 424 267 424 278 380 c 1,9,-1
 228 380 l 1,10,-1
 216 422 l 1,11,-1
 213 422 l 1,12,13
 203 405 203 405 183.5 390.5 c 128,-1,14
 164 376 164 376 131 376 c 0,15,16
 86 376 86 376 61 401.5 c 128,-1,17
 36 427 36 427 36 471 c 0,18,19
 36 504 36 504 50 526 c 128,-1,20
 64 548 64 548 88 561 c 128,-1,21
 112 574 112 574 143.5 578.5 c 128,-1,22
 175 583 175 583 212 581 c 1,23,24
 214 621 214 621 205.5 638 c 128,-1,25
 197 655 197 655 165 655 c 0,26,27
 136 655 136 655 110.5 648.5 c 128,-1,28
 85 642 85 642 68 634 c 1,29,-1
 52 681 l 1,0,1
143 430 m 0,30,31
 173 430 173 430 188.5 444.5 c 128,-1,32
 204 459 204 459 212 474 c 1,33,-1
 212 531 l 1,34,35
 191 532 191 532 171 531.5 c 128,-1,36
 151 531 151 531 135 526 c 128,-1,37
 119 521 119 521 109 509.5 c 128,-1,38
 99 498 99 498 99 477 c 0,39,40
 99 457 99 457 110 443.5 c 128,-1,41
 121 430 121 430 143 430 c 0,30,31
EndSplineSet
EndChar

StartChar: guillemotleft
Encoding: 171 171 109
Width: 386
Flags: W
LayerCount: 2
Fore
SplineSet
178 259 m 1,0,-1
 305 487 l 1,1,-1
 353 454 l 1,2,-1
 273 301 l 1,3,-1
 235 260 l 1,4,-1
 273 224 l 1,5,-1
 358 74 l 1,6,-1
 310 40 l 1,7,-1
 178 259 l 1,0,-1
29 259 m 1,8,-1
 158 489 l 1,9,-1
 208 455 l 1,10,-1
 126 301 l 1,11,-1
 88 260 l 1,12,-1
 126 224 l 1,13,-1
 214 73 l 1,14,-1
 163 38 l 1,15,-1
 29 259 l 1,8,-1
EndSplineSet
Position2: "'case' Case-Sensitive Forms lookup 1 per glyph data 3" dx=0 dy=100 dh=0 dv=0
EndChar

StartChar: logicalnot
Encoding: 172 172 110
Width: 415
Flags: W
LayerCount: 2
Fore
SplineSet
36 391 m 1,0,-1
 379 391 l 1,1,-1
 379 200 l 1,2,-1
 314 200 l 1,3,-1
 314 322 l 1,4,-1
 36 322 l 1,5,-1
 36 391 l 1,0,-1
EndSplineSet
EndChar

StartChar: uni00AD
Encoding: 173 173 111
Width: 291
Flags: W
LayerCount: 2
Fore
SplineSet
47 320 m 1,0,-1
 244 320 l 1,1,-1
 244 251 l 1,2,-1
 47 251 l 1,3,-1
 47 320 l 1,0,-1
EndSplineSet
EndChar

StartChar: registered
Encoding: 174 174 112
Width: 591
Flags: W
LayerCount: 2
Fore
SplineSet
72 490 m 256,0,1
 72 544 72 544 90 585.5 c 128,-1,2
 108 627 108 627 138.5 655.5 c 128,-1,3
 169 684 169 684 209.5 698.5 c 128,-1,4
 250 713 250 713 295 713 c 0,5,6
 342 713 342 713 383 698.5 c 128,-1,7
 424 684 424 684 454 655.5 c 128,-1,8
 484 627 484 627 501.5 585.5 c 128,-1,9
 519 544 519 544 519 490 c 256,10,11
 519 436 519 436 501 394 c 128,-1,12
 483 352 483 352 452.5 323.5 c 128,-1,13
 422 295 422 295 381.5 280.5 c 128,-1,14
 341 266 341 266 295 266 c 0,15,16
 248 266 248 266 207.5 280.5 c 128,-1,17
 167 295 167 295 137 323.5 c 128,-1,18
 107 352 107 352 89.5 394 c 128,-1,19
 72 436 72 436 72 490 c 256,0,1
126 490 m 0,20,21
 126 446 126 446 139.5 413.5 c 128,-1,22
 153 381 153 381 176 359 c 128,-1,23
 199 337 199 337 229.5 326.5 c 128,-1,24
 260 316 260 316 295 316 c 0,25,26
 332 316 332 316 363 326.5 c 128,-1,27
 394 337 394 337 416.5 358.5 c 128,-1,28
 439 380 439 380 452 412.5 c 128,-1,29
 465 445 465 445 465 490 c 0,30,31
 465 533 465 533 451.5 565.5 c 128,-1,32
 438 598 438 598 415 620 c 128,-1,33
 392 642 392 642 361 652.5 c 128,-1,34
 330 663 330 663 295 663 c 0,35,36
 258 663 258 663 227 652.5 c 128,-1,37
 196 642 196 642 173.5 620 c 128,-1,38
 151 598 151 598 138.5 565.5 c 128,-1,39
 126 533 126 533 126 490 c 0,20,21
208 599 m 1,40,41
 222 603 222 603 246.5 605.5 c 128,-1,42
 271 608 271 608 293 608 c 0,43,44
 328 608 328 608 353.5 593 c 128,-1,45
 379 578 379 578 379 542 c 0,46,47
 379 515 379 515 362 500.5 c 128,-1,48
 345 486 345 486 319 484 c 1,49,-1
 343 473 l 1,50,-1
 405 380 l 1,51,-1
 353 380 l 1,52,-1
 293 468 l 1,53,-1
 252 481 l 1,54,-1
 252 380 l 1,55,-1
 208 380 l 1,56,-1
 208 599 l 1,40,41
283 570 m 0,57,58
 275 570 275 570 266 569.5 c 128,-1,59
 257 569 257 569 252 566 c 1,60,-1
 252 506 l 1,61,-1
 281 506 l 2,62,63
 332 506 332 506 332 540 c 0,64,65
 332 570 332 570 283 570 c 0,57,58
EndSplineSet
EndChar

StartChar: macron
Encoding: 175 175 113
Width: 363
Flags: W
LayerCount: 2
Fore
SplineSet
60 643 m 1,0,-1
 303 643 l 1,1,-1
 303 584 l 1,2,-1
 60 584 l 1,3,-1
 60 643 l 1,0,-1
EndSplineSet
EndChar

StartChar: degree
Encoding: 176 176 114
Width: 342
Flags: W
LayerCount: 2
Fore
SplineSet
62 571 m 0,0,1
 62 634 62 634 94 673 c 128,-1,2
 126 712 126 712 179 712 c 0,3,4
 231 712 231 712 264 675.5 c 128,-1,5
 297 639 297 639 297 571 c 256,6,7
 297 503 297 503 264 466.5 c 128,-1,8
 231 430 231 430 179 430 c 0,9,10
 126 430 126 430 94 466.5 c 128,-1,11
 62 503 62 503 62 571 c 0,0,1
119 571 m 256,12,13
 119 532 119 532 135.5 507.5 c 128,-1,14
 152 483 152 483 179 483 c 256,15,16
 206 483 206 483 223 507.5 c 128,-1,17
 240 532 240 532 240 571 c 256,18,19
 240 610 240 610 223 634.5 c 128,-1,20
 206 659 206 659 179 659 c 256,21,22
 152 659 152 659 135.5 634.5 c 128,-1,23
 119 610 119 610 119 571 c 256,12,13
EndSplineSet
EndChar

StartChar: plusminus
Encoding: 177 177 115
Width: 415
Flags: W
LayerCount: 2
Fore
SplineSet
35 469 m 1,0,-1
 174 469 l 1,1,-1
 174 624 l 1,2,-1
 241 624 l 1,3,-1
 241 469 l 1,4,-1
 380 469 l 1,5,-1
 380 402 l 1,6,-1
 241 402 l 1,7,-1
 241 297 l 1,8,-1
 174 297 l 1,9,-1
 174 402 l 1,10,-1
 35 402 l 1,11,-1
 35 469 l 1,0,-1
35 247 m 1,12,-1
 380 247 l 1,13,-1
 380 180 l 1,14,-1
 35 180 l 1,15,-1
 35 247 l 1,12,-1
EndSplineSet
EndChar

StartChar: acute
Encoding: 180 180 118
Width: 245
Flags: W
LayerCount: 2
Fore
SplineSet
107 720 m 1,0,-1
 185 720 l 1,1,-1
 185 699 l 1,2,-1
 103 571 l 1,3,-1
 60 571 l 1,4,-1
 107 720 l 1,0,-1
EndSplineSet
EndChar

StartChar: mu
Encoding: 181 181 119
AltUni2: 0003bc.ffffffff.0
Width: 450
Flags: W
LayerCount: 2
Fore
SplineSet
125 500 m 1,0,-1
 125 198 l 2,1,2
 125 126 125 126 145.5 89.5 c 128,-1,3
 166 53 166 53 213 53 c 0,4,5
 255 53 255 53 283 78 c 128,-1,6
 311 103 311 103 324 145 c 1,7,-1
 324 500 l 1,8,-1
 396 500 l 1,9,-1
 396 163 l 2,10,11
 396 122 396 122 398 80.5 c 128,-1,12
 400 39 400 39 408 0 c 1,13,-1
 357 0 l 1,14,-1
 334 62 l 1,15,-1
 331 62 l 1,16,17
 315 30 315 30 283 9 c 128,-1,18
 251 -12 251 -12 205 -12 c 0,19,20
 168 -12 168 -12 147.5 1 c 128,-1,21
 127 14 127 14 113 34 c 1,22,-1
 108 34 l 1,23,-1
 126 -67 l 1,24,-1
 126 -200 l 1,25,-1
 53 -200 l 1,26,-1
 53 500 l 1,27,-1
 125 500 l 1,0,-1
EndSplineSet
EndChar

StartChar: paragraph
Encoding: 182 182 120
Width: 403
Flags: W
LayerCount: 2
Fore
SplineSet
278 700 m 1,0,-1
 339 700 l 1,1,-1
 339 -130 l 1,2,-1
 278 -130 l 1,3,-1
 278 700 l 1,0,-1
148 310 m 1,4,5
 121 310 121 310 99.5 325.5 c 128,-1,6
 78 341 78 341 62 368 c 128,-1,7
 46 395 46 395 37.5 430.5 c 128,-1,8
 29 466 29 466 29 506 c 0,9,10
 29 545 29 545 38.5 580.5 c 128,-1,11
 48 616 48 616 66 642.5 c 128,-1,12
 84 669 84 669 109.5 684.5 c 128,-1,13
 135 700 135 700 168 700 c 2,14,-1
 209 700 l 1,15,-1
 209 -130 l 1,16,-1
 148 -130 l 1,17,-1
 148 310 l 1,4,5
EndSplineSet
EndChar

StartChar: cedilla
Encoding: 184 184 122
Width: 262
Flags: W
LayerCount: 2
Fore
SplineSet
156 0 m 1,0,-1
 137 -43 l 1,1,2
 202 -58 202 -58 202 -118 c 0,3,4
 202 -157 202 -157 173.5 -182.5 c 128,-1,5
 145 -208 145 -208 97 -208 c 0,6,7
 77 -208 77 -208 60 -204 c 1,8,-1
 67 -165 l 1,9,10
 90 -167 90 -167 103.5 -164 c 128,-1,11
 117 -161 117 -161 124 -155 c 128,-1,12
 131 -149 131 -149 133 -141.5 c 128,-1,13
 135 -134 135 -134 135 -127 c 0,14,15
 135 -99 135 -99 66 -90 c 1,16,-1
 106 0 l 1,17,-1
 156 0 l 1,0,-1
EndSplineSet
EndChar

StartChar: ordmasculine
Encoding: 186 186 124
Width: 323
Flags: W
LayerCount: 2
Fore
SplineSet
34 542 m 0,0,1
 34 588 34 588 43.5 620.5 c 128,-1,2
 53 653 53 653 70.5 673.5 c 128,-1,3
 88 694 88 694 111.5 703 c 128,-1,4
 135 712 135 712 162 712 c 256,5,6
 189 712 189 712 212.5 703.5 c 128,-1,7
 236 695 236 695 253.5 675.5 c 128,-1,8
 271 656 271 656 280.5 623 c 128,-1,9
 290 590 290 590 290 542 c 256,10,11
 290 494 290 494 280.5 461 c 128,-1,12
 271 428 271 428 253.5 408.5 c 128,-1,13
 236 389 236 389 212.5 380.5 c 128,-1,14
 189 372 189 372 162 372 c 256,15,16
 135 372 135 372 111.5 380.5 c 128,-1,17
 88 389 88 389 70.5 408.5 c 128,-1,18
 53 428 53 428 43.5 461 c 128,-1,19
 34 494 34 494 34 542 c 0,0,1
99 542 m 0,20,21
 99 477 99 477 116.5 452 c 128,-1,22
 134 427 134 427 162 427 c 0,23,24
 176 427 176 427 187.5 432 c 128,-1,25
 199 437 199 437 207 449.5 c 128,-1,26
 215 462 215 462 219.5 484.5 c 128,-1,27
 224 507 224 507 224 542 c 0,28,29
 224 576 224 576 219.5 598.5 c 128,-1,30
 215 621 215 621 207 634 c 128,-1,31
 199 647 199 647 187.5 652 c 128,-1,32
 176 657 176 657 162 657 c 0,33,34
 147 657 147 657 135.5 652 c 128,-1,35
 124 647 124 647 116 634 c 128,-1,36
 108 621 108 621 103.5 598.5 c 128,-1,37
 99 576 99 576 99 542 c 0,20,21
EndSplineSet
EndChar

StartChar: guillemotright
Encoding: 187 187 125
Width: 386
Flags: W
LayerCount: 2
Fore
SplineSet
208 268 m 1,0,-1
 81 40 l 1,1,-1
 32 72 l 1,2,-1
 113 226 l 1,3,-1
 151 267 l 1,4,-1
 113 303 l 1,5,-1
 28 454 l 1,6,-1
 76 487 l 1,7,-1
 208 268 l 1,0,-1
357 268 m 1,8,-1
 228 38 l 1,9,-1
 177 71 l 1,10,-1
 260 226 l 1,11,-1
 298 267 l 1,12,-1
 260 303 l 1,13,-1
 172 455 l 1,14,-1
 223 489 l 1,15,-1
 357 268 l 1,8,-1
EndSplineSet
Position2: "'case' Case-Sensitive Forms lookup 1 per glyph data 3" dx=0 dy=100 dh=0 dv=0
EndChar

StartChar: Aring
Encoding: 197 197 135
Width: 473
Flags: W
LayerCount: 2
Fore
SplineSet
148 768 m 0,0,1
 148 805 148 805 169 829 c 128,-1,2
 190 853 190 853 238 852 c 1,3,4
 281 853 281 853 304.5 831.5 c 128,-1,5
 328 810 328 810 328 768 c 0,6,7
 328 737 328 737 312 715.5 c 128,-1,8
 296 694 296 694 264 687 c 1,9,-1
 468 0 l 1,10,-1
 390 0 l 1,11,-1
 333 196 l 1,12,-1
 135 196 l 1,13,-1
 79 0 l 1,14,-1
 5 0 l 1,15,-1
 209 687 l 1,16,17
 179 695 179 695 163.5 715.5 c 128,-1,18
 148 736 148 736 148 768 c 0,0,1
155 263 m 1,19,-1
 315 263 l 1,20,-1
 254 479 l 1,21,-1
 235 584 l 1,22,-1
 233 584 l 1,23,-1
 214 477 l 1,24,-1
 155 263 l 1,19,-1
202 768 m 0,25,26
 202 750 202 750 210.5 738.5 c 128,-1,27
 219 727 219 727 238 727 c 0,28,29
 274 727 274 727 274 768 c 0,30,31
 274 811 274 811 238 812 c 1,32,33
 202 811 202 811 202 768 c 0,25,26
EndSplineSet
Position2: "'cpsp' Capital Spacing lookup 0 subtable" dx=40 dy=0 dh=80 dv=0
EndChar

StartChar: Ccedilla
Encoding: 199 199 137
Width: 458
Flags: W
LayerCount: 2
Fore
SplineSet
430 27 m 1,0,1
 409 9 409 9 378 0 c 128,-1,2
 347 -9 347 -9 312 -11 c 1,3,-1
 298 -43 l 1,4,5
 363 -58 363 -58 363 -118 c 0,6,7
 363 -157 363 -157 334.5 -182.5 c 128,-1,8
 306 -208 306 -208 258 -208 c 0,9,10
 238 -208 238 -208 221 -204 c 1,11,-1
 228 -165 l 1,12,13
 251 -167 251 -167 264.5 -164 c 128,-1,14
 278 -161 278 -161 285 -155 c 128,-1,15
 292 -149 292 -149 294 -141.5 c 128,-1,16
 296 -134 296 -134 296 -127 c 0,17,18
 296 -99 296 -99 227 -90 c 1,19,-1
 262 -10 l 1,20,21
 214 -6 214 -6 173.5 16.5 c 128,-1,22
 133 39 133 39 104 82.5 c 128,-1,23
 75 126 75 126 59 192 c 128,-1,24
 43 258 43 258 43 350 c 0,25,26
 43 450 43 450 63.5 519 c 128,-1,27
 84 588 84 588 118 631 c 128,-1,28
 152 674 152 674 196.5 693 c 128,-1,29
 241 712 241 712 288 712 c 0,30,31
 336 712 336 712 367.5 705 c 128,-1,32
 399 698 399 698 422 688 c 1,33,-1
 404 620 l 1,34,35
 384 631 384 631 357 637 c 128,-1,36
 330 643 330 643 295 643 c 256,37,38
 260 643 260 643 229 627.5 c 128,-1,39
 198 612 198 612 174 577.5 c 128,-1,40
 150 543 150 543 136 487 c 128,-1,41
 122 431 122 431 122 350 c 0,42,43
 122 204 122 204 172 131 c 128,-1,44
 222 58 222 58 305 58 c 0,45,46
 339 58 339 58 366 67.5 c 128,-1,47
 393 77 393 77 412 90 c 1,48,-1
 430 27 l 1,0,1
EndSplineSet
Position2: "'cpsp' Capital Spacing lookup 0 subtable" dx=40 dy=0 dh=80 dv=0
EndChar

StartChar: Eth
Encoding: 208 208 146
Width: 531
Flags: W
LayerCount: 2
Fore
SplineSet
-1 393 m 1,0,-1
 70 393 l 1,1,-1
 70 700 l 1,2,3
 86 703 86 703 105.5 704.5 c 128,-1,4
 125 706 125 706 145 706.5 c 128,-1,5
 165 707 165 707 184.5 707.5 c 128,-1,6
 204 708 204 708 221 708 c 0,7,8
 294 708 294 708 345 683 c 128,-1,9
 396 658 396 658 428 611.5 c 128,-1,10
 460 565 460 565 474 500 c 128,-1,11
 488 435 488 435 488 355 c 0,12,13
 488 283 488 283 474.5 217 c 128,-1,14
 461 151 461 151 429 101 c 128,-1,15
 397 51 397 51 344.5 21 c 128,-1,16
 292 -9 292 -9 213 -9 c 0,17,18
 200 -9 200 -9 180 -8.5 c 128,-1,19
 160 -8 160 -8 138.5 -6.5 c 128,-1,20
 117 -5 117 -5 98.5 -4 c 128,-1,21
 80 -3 80 -3 70 -1 c 1,22,-1
 70 334 l 1,23,-1
 -1 334 l 1,24,-1
 -1 393 l 1,0,-1
225 639 m 0,25,26
 215 639 215 639 203.5 639 c 128,-1,27
 192 639 192 639 181 638 c 128,-1,28
 170 637 170 637 160.5 636 c 128,-1,29
 151 635 151 635 145 634 c 1,30,-1
 145 393 l 1,31,-1
 262 393 l 1,32,-1
 262 334 l 1,33,-1
 145 334 l 1,34,-1
 145 64 l 1,35,36
 149 63 149 63 159.5 62.5 c 128,-1,37
 170 62 170 62 181.5 61.5 c 128,-1,38
 193 61 193 61 203.5 60.5 c 128,-1,39
 214 60 214 60 219 60 c 0,40,41
 274 60 274 60 311 84 c 128,-1,42
 348 108 348 108 369.5 148.5 c 128,-1,43
 391 189 391 189 400 242.5 c 128,-1,44
 409 296 409 296 409 356 c 0,45,46
 409 409 409 409 401 460 c 128,-1,47
 393 511 393 511 372.5 550.5 c 128,-1,48
 352 590 352 590 316.5 614.5 c 128,-1,49
 281 639 281 639 225 639 c 0,25,26
EndSplineSet
Position2: "'cpsp' Capital Spacing lookup 0 subtable" dx=40 dy=0 dh=80 dv=0
EndChar

StartChar: multiply
Encoding: 215 215 153
Width: 415
Flags: W
LayerCount: 2
Fore
SplineSet
104 513 m 1,0,-1
 208 391 l 1,1,-1
 313 513 l 1,2,-1
 362 467 l 1,3,-1
 253 339 l 1,4,-1
 362 209 l 1,5,-1
 313 164 l 1,6,-1
 208 286 l 1,7,-1
 103 163 l 1,8,-1
 53 208 l 1,9,-1
 164 339 l 1,10,-1
 54 467 l 1,11,-1
 104 513 l 1,0,-1
EndSplineSet
EndChar

StartChar: Oslash
Encoding: 216 216 154
Width: 549
Flags: W
LayerCount: 2
Fore
SplineSet
43 350 m 0,0,1
 43 528 43 528 100 620 c 128,-1,2
 157 712 157 712 274 712 c 0,3,4
 319 712 319 712 354.5 698.5 c 128,-1,5
 390 685 390 685 416 660 c 1,6,-1
 446 713 l 1,7,-1
 494 686 l 1,8,-1
 453 613 l 1,9,10
 481 565 481 565 493.5 499 c 128,-1,11
 506 433 506 433 506 350 c 0,12,13
 506 172 506 172 448.5 80 c 128,-1,14
 391 -12 391 -12 274 -12 c 0,15,16
 187 -12 187 -12 134 38 c 1,17,-1
 107 -12 l 1,18,-1
 58 16 l 1,19,-1
 96 85 l 1,20,21
 68 133 68 133 55.5 199.5 c 128,-1,22
 43 266 43 266 43 350 c 0,0,1
122 350 m 0,23,24
 122 301 122 301 127.5 256.5 c 128,-1,25
 133 212 133 212 145 174 c 1,26,-1
 375 586 l 1,27,28
 357 613 357 613 332 628 c 128,-1,29
 307 643 307 643 274 643 c 0,30,31
 200 643 200 643 161 571 c 128,-1,32
 122 499 122 499 122 350 c 0,23,24
427 350 m 0,33,34
 427 398 427 398 421.5 442 c 128,-1,35
 416 486 416 486 404 523 c 1,36,-1
 175 111 l 1,37,38
 193 85 193 85 217.5 71 c 128,-1,39
 242 57 242 57 274 57 c 0,40,41
 349 57 349 57 388 129 c 128,-1,42
 427 201 427 201 427 350 c 0,33,34
EndSplineSet
Position2: "'cpsp' Capital Spacing lookup 0 subtable" dx=40 dy=0 dh=80 dv=0
EndChar

StartChar: Thorn
Encoding: 222 222 160
Width: 452
Flags: W
LayerCount: 2
Fore
SplineSet
65 700 m 1,0,-1
 140 700 l 1,1,-1
 140 622 l 1,2,3
 171 625 171 625 204 625 c 0,4,5
 244 625 244 625 283 615.5 c 128,-1,6
 322 606 322 606 353.5 582 c 128,-1,7
 385 558 385 558 404.5 516 c 128,-1,8
 424 474 424 474 424 409 c 0,9,10
 424 346 424 346 405.5 302 c 128,-1,11
 387 258 387 258 356.5 231 c 128,-1,12
 326 204 326 204 286.5 191.5 c 128,-1,13
 247 179 247 179 205 179 c 0,14,15
 201 179 201 179 192 179 c 128,-1,16
 183 179 183 179 173 179.5 c 128,-1,17
 163 180 163 180 153.5 181 c 128,-1,18
 144 182 144 182 140 183 c 1,19,-1
 140 0 l 1,20,-1
 65 0 l 1,21,-1
 65 700 l 1,0,-1
140 252 m 1,22,23
 144 250 144 250 152.5 249.5 c 128,-1,24
 161 249 161 249 170 248 c 128,-1,25
 179 247 179 247 187.5 247 c 128,-1,26
 196 247 196 247 200 247 c 0,27,28
 228 247 228 247 254 254 c 128,-1,29
 280 261 280 261 300 279.5 c 128,-1,30
 320 298 320 298 332.5 329.5 c 128,-1,31
 345 361 345 361 345 410 c 0,32,33
 345 451 345 451 333.5 479 c 128,-1,34
 322 507 322 507 303.5 524.5 c 128,-1,35
 285 542 285 542 260 549.5 c 128,-1,36
 235 557 235 557 208 557 c 0,37,38
 188 557 188 557 169.5 556 c 128,-1,39
 151 555 151 555 140 552 c 1,40,-1
 140 252 l 1,22,23
EndSplineSet
Position2: "'cpsp' Capital Spacing lookup 0 subtable" dx=40 dy=0 dh=80 dv=0
EndChar

StartChar: germandbls
Encoding: 223 223 161
Width: 488
Flags: W
LayerCount: 2
Fore
SplineSet
77 500 m 1,0,-1
 77 525 l 2,1,2
 77 624 77 624 118.5 665 c 128,-1,3
 160 706 160 706 231 706 c 0,4,5
 264 706 264 706 292.5 697 c 128,-1,6
 321 688 321 688 342.5 670.5 c 128,-1,7
 364 653 364 653 376 627.5 c 128,-1,8
 388 602 388 602 388 569 c 256,9,10
 388 536 388 536 372 512.5 c 128,-1,11
 356 489 356 489 337.5 470 c 128,-1,12
 319 451 319 451 303 432 c 128,-1,13
 287 413 287 413 287 389 c 0,14,15
 287 366 287 366 299.5 350 c 128,-1,16
 312 334 312 334 330.5 320 c 128,-1,17
 349 306 349 306 371 291.5 c 128,-1,18
 393 277 393 277 411.5 257 c 128,-1,19
 430 237 430 237 442.5 208.5 c 128,-1,20
 455 180 455 180 455 138 c 0,21,22
 455 110 455 110 445 83 c 128,-1,23
 435 56 435 56 416 35 c 128,-1,24
 397 14 397 14 369 1 c 128,-1,25
 341 -12 341 -12 304 -12 c 256,26,27
 267 -12 267 -12 243.5 -6 c 128,-1,28
 220 0 220 0 198 14 c 1,29,-1
 218 75 l 1,30,31
 239 63 239 63 254.5 57.5 c 128,-1,32
 270 52 270 52 298 52 c 0,33,34
 332 52 332 52 357.5 75 c 128,-1,35
 383 98 383 98 383 136 c 0,36,37
 383 167 383 167 370.5 187.5 c 128,-1,38
 358 208 358 208 339 223.5 c 128,-1,39
 320 239 320 239 298.5 252.5 c 128,-1,40
 277 266 277 266 258 283.5 c 128,-1,41
 239 301 239 301 226.5 325 c 128,-1,42
 214 349 214 349 214 386 c 0,43,44
 214 419 214 419 230 442 c 128,-1,45
 246 465 246 465 265 484.5 c 128,-1,46
 284 504 284 504 300 523 c 128,-1,47
 316 542 316 542 316 566 c 0,48,49
 316 583 316 583 308.5 597 c 128,-1,50
 301 611 301 611 289 620.5 c 128,-1,51
 277 630 277 630 262.5 635.5 c 128,-1,52
 248 641 248 641 233 641 c 0,53,54
 211 641 211 641 195 634.5 c 128,-1,55
 179 628 179 628 169 612 c 128,-1,56
 159 596 159 596 154 568.5 c 128,-1,57
 149 541 149 541 149 499 c 2,58,-1
 149 0 l 1,59,-1
 77 0 l 1,60,-1
 77 435 l 1,61,-1
 16 435 l 1,62,-1
 16 500 l 1,63,-1
 77 500 l 1,0,-1
EndSplineSet
EndChar

StartChar: ccedilla
Encoding: 231 231 169
Width: 356
Flags: W
LayerCount: 2
Fore
SplineSet
335 25 m 1,0,1
 315 10 315 10 291 1.5 c 128,-1,2
 267 -7 267 -7 241 -10 c 1,3,-1
 227 -43 l 1,4,5
 292 -58 292 -58 292 -118 c 0,6,7
 292 -157 292 -157 263.5 -182.5 c 128,-1,8
 235 -208 235 -208 187 -208 c 0,9,10
 167 -208 167 -208 150 -204 c 1,11,-1
 157 -165 l 1,12,13
 180 -167 180 -167 193.5 -164 c 128,-1,14
 207 -161 207 -161 214 -155 c 128,-1,15
 221 -149 221 -149 223 -141.5 c 128,-1,16
 225 -134 225 -134 225 -127 c 0,17,18
 225 -99 225 -99 156 -90 c 1,19,-1
 191 -11 l 1,20,21
 149 -7 149 -7 119.5 13.5 c 128,-1,22
 90 34 90 34 72 67.5 c 128,-1,23
 54 101 54 101 45.5 147.5 c 128,-1,24
 37 194 37 194 37 250 c 0,25,26
 37 378 37 378 82.5 445 c 128,-1,27
 128 512 128 512 213 512 c 0,28,29
 252 512 252 512 280 505 c 128,-1,30
 308 498 308 498 328 487 c 1,31,-1
 308 425 l 1,32,33
 270 447 270 447 221 447 c 0,34,35
 167 447 167 447 139.5 399.5 c 128,-1,36
 112 352 112 352 112 250 c 0,37,38
 112 209 112 209 118 173.5 c 128,-1,39
 124 138 124 138 138 111.5 c 128,-1,40
 152 85 152 85 174 70 c 128,-1,41
 196 55 196 55 229 55 c 0,42,43
 255 55 255 55 277.5 63.5 c 128,-1,44
 300 72 300 72 314 84 c 1,45,-1
 335 25 l 1,0,1
EndSplineSet
EndChar

StartChar: eth
Encoding: 240 240 178
Width: 450
Flags: W
LayerCount: 2
Fore
SplineSet
169 589 m 1,0,-1
 226 627 l 1,1,2
 194 653 194 653 159 668 c 1,3,-1
 191 712 l 1,4,5
 207 704 207 704 229 692 c 128,-1,6
 251 680 251 680 275 659 c 1,7,-1
 335 699 l 1,8,-1
 359 660 l 1,9,-1
 309 627 l 1,10,11
 329 604 329 604 347 573 c 128,-1,12
 365 542 365 542 379 501.5 c 128,-1,13
 393 461 393 461 401 410 c 128,-1,14
 409 359 409 359 409 296 c 0,15,16
 409 210 409 210 394.5 151.5 c 128,-1,17
 380 93 380 93 355 56.5 c 128,-1,18
 330 20 330 20 296.5 4 c 128,-1,19
 263 -12 263 -12 224 -12 c 0,20,21
 176 -12 176 -12 141 7 c 128,-1,22
 106 26 106 26 84 60.5 c 128,-1,23
 62 95 62 95 51.5 143.5 c 128,-1,24
 41 192 41 192 41 251 c 0,25,26
 41 308 41 308 53 355.5 c 128,-1,27
 65 403 65 403 88.5 437.5 c 128,-1,28
 112 472 112 472 145.5 491 c 128,-1,29
 179 510 179 510 222 510 c 0,30,31
 257 510 257 510 284 498 c 128,-1,32
 311 486 311 486 325 468 c 1,33,34
 314 506 314 506 297.5 537.5 c 128,-1,35
 281 569 281 569 260 594 c 1,36,-1
 194 551 l 1,37,-1
 169 589 l 1,0,-1
115 251 m 0,38,39
 115 146 115 146 147 100 c 128,-1,40
 179 54 179 54 229 54 c 0,41,42
 252 54 252 54 272 67 c 128,-1,43
 292 80 292 80 306.5 108 c 128,-1,44
 321 136 321 136 329.5 181 c 128,-1,45
 338 226 338 226 338 290 c 0,46,47
 338 300 338 300 337.5 314.5 c 128,-1,48
 337 329 337 329 336 343.5 c 128,-1,49
 335 358 335 358 333.5 371 c 128,-1,50
 332 384 332 384 331 392 c 1,51,52
 317 418 317 418 288 431 c 128,-1,53
 259 444 259 444 230 444 c 0,54,55
 200 444 200 444 178.5 430 c 128,-1,56
 157 416 157 416 142.5 390.5 c 128,-1,57
 128 365 128 365 121.5 329.5 c 128,-1,58
 115 294 115 294 115 251 c 0,38,39
EndSplineSet
EndChar

StartChar: divide
Encoding: 247 247 185
Width: 415
Flags: W
LayerCount: 2
Fore
SplineSet
35 373 m 1,0,-1
 379 373 l 1,1,-1
 379 306 l 1,2,-1
 35 306 l 1,3,-1
 35 373 l 1,0,-1
157 508 m 0,4,5
 157 536 157 536 170.5 550 c 128,-1,6
 184 564 184 564 207 564 c 256,7,8
 230 564 230 564 243.5 550 c 128,-1,9
 257 536 257 536 257 508 c 0,10,11
 257 479 257 479 243.5 465 c 128,-1,12
 230 451 230 451 207 451 c 256,13,14
 184 451 184 451 170.5 465 c 128,-1,15
 157 479 157 479 157 508 c 0,4,5
157 171 m 0,16,17
 157 199 157 199 170.5 213 c 128,-1,18
 184 227 184 227 207 227 c 256,19,20
 230 227 230 227 243.5 213 c 128,-1,21
 257 199 257 199 257 171 c 0,22,23
 257 142 257 142 243.5 128 c 128,-1,24
 230 114 230 114 207 114 c 256,25,26
 184 114 184 114 170.5 128 c 128,-1,27
 157 142 157 142 157 171 c 0,16,17
EndSplineSet
EndChar

StartChar: oslash
Encoding: 248 248 186
Width: 436
Flags: W
LayerCount: 2
Fore
SplineSet
40 250 m 0,0,1
 40 381 40 381 86.5 446.5 c 128,-1,2
 133 512 133 512 219 512 c 0,3,4
 277 512 277 512 317 483 c 1,5,-1
 336 515 l 1,6,-1
 385 485 l 1,7,-1
 358 437 l 1,8,9
 378 404 378 404 388 357 c 128,-1,10
 398 310 398 310 398 250 c 0,11,12
 398 117 398 117 351.5 52.5 c 128,-1,13
 305 -12 305 -12 219 -12 c 0,14,15
 157 -12 157 -12 116 20 c 1,16,-1
 95 -14 l 1,17,-1
 46 18 l 1,18,-1
 76 69 l 1,19,20
 40 135 40 135 40 250 c 0,0,1
323 250 m 0,21,22
 323 282 323 282 320.5 310.5 c 128,-1,23
 318 339 318 339 311 362 c 1,24,-1
 151 87 l 1,25,26
 177 53 177 53 219 53 c 0,27,28
 271 53 271 53 297 100 c 128,-1,29
 323 147 323 147 323 250 c 0,21,22
115 250 m 0,30,31
 115 220 115 220 117 193 c 128,-1,32
 119 166 119 166 125 143 c 1,33,-1
 282 418 l 1,34,35
 270 432 270 432 254.5 439.5 c 128,-1,36
 239 447 239 447 219 447 c 0,37,38
 168 447 168 447 141.5 400 c 128,-1,39
 115 353 115 353 115 250 c 0,30,31
EndSplineSet
EndChar

StartChar: thorn
Encoding: 254 254 192
Width: 435
Flags: W
LayerCount: 2
Fore
SplineSet
59 700 m 1,0,-1
 131 700 l 1,1,-1
 131 460 l 1,2,-1
 134 460 l 1,3,4
 150 484 150 484 176.5 498 c 128,-1,5
 203 512 203 512 241 512 c 0,6,7
 320 512 320 512 359 453 c 128,-1,8
 398 394 398 394 398 260 c 0,9,10
 398 197 398 197 385 146.5 c 128,-1,11
 372 96 372 96 348 61 c 128,-1,12
 324 26 324 26 290 7 c 128,-1,13
 256 -12 256 -12 214 -12 c 0,14,15
 185 -12 185 -12 166.5 -8 c 128,-1,16
 148 -4 148 -4 131 5 c 1,17,-1
 131 -200 l 1,18,-1
 59 -200 l 1,19,-1
 59 700 l 1,0,-1
224 447 m 0,20,21
 189 447 189 447 165 424.5 c 128,-1,22
 141 402 141 402 131 362 c 1,23,-1
 131 78 l 1,24,25
 145 66 145 66 162.5 59.5 c 128,-1,26
 180 53 180 53 209 53 c 0,27,28
 262 53 262 53 292.5 107 c 128,-1,29
 323 161 323 161 323 261 c 0,30,31
 323 303 323 303 317.5 337 c 128,-1,32
 312 371 312 371 300.5 395.5 c 128,-1,33
 289 420 289 420 270 433.5 c 128,-1,34
 251 447 251 447 224 447 c 0,20,21
EndSplineSet
EndChar

StartChar: Aogonek
Encoding: 260 260 198
Width: 473
Flags: W
LayerCount: 2
Fore
SplineSet
333 196 m 1,0,-1
 135 196 l 1,1,-1
 79 0 l 1,2,-1
 5 0 l 1,3,-1
 216 711 l 1,4,-1
 257 711 l 1,5,-1
 468 0 l 1,6,-1
 447 0 l 1,7,8
 425 -16 425 -16 412.5 -38 c 128,-1,9
 400 -60 400 -60 400 -88 c 0,10,11
 401 -117 401 -117 419.5 -132.5 c 128,-1,12
 438 -148 438 -148 475 -133 c 1,13,-1
 485 -173 l 1,14,15
 474 -184 474 -184 453.5 -190 c 128,-1,16
 433 -196 433 -196 414 -196 c 0,17,18
 374 -196 374 -196 351 -172 c 128,-1,19
 328 -148 328 -148 327 -110 c 1,20,21
 328 -72 328 -72 346 -44.5 c 128,-1,22
 364 -17 364 -17 395 0 c 1,23,-1
 390 0 l 1,24,-1
 333 196 l 1,0,-1
155 263 m 1,25,-1
 315 263 l 1,26,-1
 254 479 l 1,27,-1
 235 584 l 1,28,-1
 233 584 l 1,29,-1
 214 477 l 1,30,-1
 155 263 l 1,25,-1
EndSplineSet
Position2: "'cpsp' Capital Spacing lookup 0 subtable" dx=40 dy=0 dh=80 dv=0
EndChar

StartChar: aogonek
Encoding: 261 261 199
Width: 400
Flags: W
LayerCount: 2
Fore
SplineSet
54 470 m 1,0,1
 83 488 83 488 124.5 498 c 128,-1,2
 166 508 166 508 212 508 c 0,3,4
 254 508 254 508 279.5 495.5 c 128,-1,5
 305 483 305 483 319.5 461.5 c 128,-1,6
 334 440 334 440 338.5 412.5 c 128,-1,7
 343 385 343 385 343 355 c 0,8,9
 343 295 343 295 340.5 238 c 128,-1,10
 338 181 338 181 338 130 c 0,11,12
 338 92 338 92 340.5 59.5 c 128,-1,13
 343 27 343 27 350 -2 c 1,14,-1
 331 -2 l 1,15,16
 310 -18 310 -18 298 -39.5 c 128,-1,17
 286 -61 286 -61 286 -88 c 0,18,19
 287 -117 287 -117 305.5 -132.5 c 128,-1,20
 324 -148 324 -148 361 -133 c 1,21,-1
 371 -173 l 1,22,23
 360 -184 360 -184 339.5 -190 c 128,-1,24
 319 -196 319 -196 300 -196 c 0,25,26
 260 -196 260 -196 236.5 -172 c 128,-1,27
 213 -148 213 -148 213 -110 c 0,28,29
 213 -68 213 -68 235 -39.5 c 128,-1,30
 257 -11 257 -11 292 6 c 1,31,-1
 278 57 l 1,32,-1
 274 57 l 1,33,34
 259 31 259 31 230 12 c 128,-1,35
 201 -7 201 -7 152 -7 c 0,36,37
 98 -7 98 -7 63.5 30.5 c 128,-1,38
 29 68 29 68 29 134 c 0,39,40
 29 177 29 177 43.5 206 c 128,-1,41
 58 235 58 235 84.5 253 c 128,-1,42
 111 271 111 271 147.5 278.5 c 128,-1,43
 184 286 184 286 229 286 c 0,44,45
 239 286 239 286 249 286 c 128,-1,46
 259 286 259 286 270 285 c 1,47,48
 273 316 273 316 273 341 c 0,49,50
 273 398 273 398 256 420.5 c 128,-1,51
 239 443 239 443 194 443 c 0,52,53
 166 443 166 443 133 434.5 c 128,-1,54
 100 426 100 426 78 413 c 1,55,-1
 54 470 l 1,0,1
271 228 m 1,56,57
 261 229 261 229 250.5 229.5 c 128,-1,58
 240 230 240 230 230 230 c 0,59,60
 206 230 206 230 183 226 c 128,-1,61
 160 222 160 222 142.5 212 c 128,-1,62
 125 202 125 202 114.5 185 c 128,-1,63
 104 168 104 168 104 142 c 0,64,65
 104 102 104 102 123 80 c 128,-1,66
 142 58 142 58 173 58 c 0,67,68
 215 58 215 58 238.5 78 c 128,-1,69
 262 98 262 98 271 122 c 1,70,-1
 271 228 l 1,56,57
EndSplineSet
EndChar

StartChar: dcroat
Encoding: 273 273 209
Width: 434
Flags: W
LayerCount: 2
Fore
SplineSet
374 633 m 1,0,-1
 438 633 l 1,1,-1
 438 574 l 1,2,-1
 374 574 l 1,3,-1
 374 172 l 2,4,5
 374 121 374 121 375 79.5 c 128,-1,6
 376 38 376 38 382 -2 c 1,7,-1
 333 -2 l 1,8,-1
 317 58 l 1,9,-1
 313 58 l 1,10,11
 299 28 299 28 269 8 c 128,-1,12
 239 -12 239 -12 197 -12 c 0,13,14
 116 -12 116 -12 76.5 51 c 128,-1,15
 37 114 37 114 37 249 c 0,16,17
 37 377 37 377 85.5 443 c 128,-1,18
 134 509 134 509 219 509 c 0,19,20
 248 509 248 509 265 505.5 c 128,-1,21
 282 502 282 502 302 494 c 1,22,-1
 302 574 l 1,23,-1
 177 574 l 1,24,-1
 177 633 l 1,25,-1
 302 633 l 1,26,-1
 302 700 l 1,27,-1
 374 700 l 1,28,-1
 374 633 l 1,0,-1
302 421 m 1,29,30
 288 433 288 433 270.5 438.5 c 128,-1,31
 253 444 253 444 224 444 c 0,32,33
 171 444 171 444 141.5 396 c 128,-1,34
 112 348 112 348 112 248 c 0,35,36
 112 204 112 204 117.5 168.5 c 128,-1,37
 123 133 123 133 134.5 107 c 128,-1,38
 146 81 146 81 164.5 67 c 128,-1,39
 183 53 183 53 210 53 c 0,40,41
 282 53 282 53 302 138 c 1,42,-1
 302 421 l 1,29,30
EndSplineSet
EndChar

StartChar: Eogonek
Encoding: 280 280 214
Width: 429
Flags: W
LayerCount: 2
Fore
SplineSet
64 700 m 1,0,-1
 375 700 l 1,1,-1
 375 631 l 1,2,-1
 139 631 l 1,3,-1
 139 394 l 1,4,-1
 356 394 l 1,5,-1
 356 325 l 1,6,-1
 139 325 l 1,7,-1
 139 69 l 1,8,-1
 380 69 l 1,9,-1
 380 0 l 1,10,-1
 349 0 l 1,11,12
 327 -16 327 -16 314.5 -38 c 128,-1,13
 302 -60 302 -60 302 -88 c 0,14,15
 303 -117 303 -117 321.5 -132.5 c 128,-1,16
 340 -148 340 -148 377 -133 c 1,17,-1
 387 -173 l 1,18,19
 376 -184 376 -184 355.5 -190 c 128,-1,20
 335 -196 335 -196 316 -196 c 0,21,22
 276 -196 276 -196 252.5 -172 c 128,-1,23
 229 -148 229 -148 229 -110 c 256,24,25
 229 -72 229 -72 247.5 -44.5 c 128,-1,26
 266 -17 266 -17 297 0 c 1,27,-1
 64 0 l 1,28,-1
 64 700 l 1,0,-1
EndSplineSet
Position2: "'cpsp' Capital Spacing lookup 0 subtable" dx=40 dy=0 dh=80 dv=0
EndChar

StartChar: eogonek
Encoding: 281 281 215
Width: 409
Flags: W
LayerCount: 2
Fore
SplineSet
358 34 m 1,0,1
 339 16 339 16 311 5 c 1,2,3
 289 -10 289 -10 275 -30 c 0,4,5
 257 -55 257 -55 258 -88 c 0,6,7
 258 -116 258 -116 276.5 -131.5 c 128,-1,8
 295 -147 295 -147 333 -130 c 1,9,-1
 343 -173 l 1,10,11
 331 -185 331 -185 310 -190.5 c 128,-1,12
 289 -196 289 -196 269 -196 c 0,13,14
 231 -196 231 -196 209 -172 c 128,-1,15
 187 -148 187 -148 187 -107 c 0,16,17
 187 -64 187 -64 212 -34 c 0,18,19
 222 -22 222 -22 236 -11 c 1,20,21
 227 -12 227 -12 219 -12 c 0,22,23
 172 -12 172 -12 137.5 6.5 c 128,-1,24
 103 25 103 25 80.5 59.5 c 128,-1,25
 58 94 58 94 47.5 142 c 128,-1,26
 37 190 37 190 37 250 c 0,27,28
 37 378 37 378 84 445 c 128,-1,29
 131 512 131 512 217 512 c 0,30,31
 249 512 249 512 280 502.5 c 128,-1,32
 311 493 311 493 333.5 464 c 128,-1,33
 356 435 356 435 366 382 c 128,-1,34
 376 329 376 329 366 242 c 1,35,-1
 111 242 l 1,36,37
 111 199 111 199 118 164 c 128,-1,38
 125 129 125 129 140 104 c 128,-1,39
 155 79 155 79 179 65.5 c 128,-1,40
 203 52 203 52 238 52 c 0,41,42
 265 52 265 52 291.5 62.5 c 128,-1,43
 318 73 318 73 332 87 c 1,44,-1
 358 34 l 1,0,1
218 448 m 0,45,46
 172 448 172 448 145 412.5 c 128,-1,47
 118 377 118 377 113 302 c 1,48,-1
 302 302 l 1,49,50
 304 377 304 377 281 412.5 c 128,-1,51
 258 448 258 448 218 448 c 0,45,46
EndSplineSet
EndChar

StartChar: gcommaaccent
Encoding: 291 291 223
Width: 432
Flags: W
LayerCount: 2
Fore
SplineSet
374 -23 m 2,0,1
 374 -120 374 -120 331 -166 c 128,-1,2
 288 -212 288 -212 206 -212 c 0,3,4
 156 -212 156 -212 124 -203.5 c 128,-1,5
 92 -195 92 -195 72 -184 c 1,6,-1
 93 -122 l 1,7,8
 113 -131 113 -131 137 -139 c 128,-1,9
 161 -147 161 -147 196 -147 c 0,10,11
 257 -147 257 -147 279.5 -113 c 128,-1,12
 302 -79 302 -79 302 1 c 2,13,-1
 302 38 l 1,14,-1
 299 38 l 1,15,16
 283 15 283 15 258 2 c 128,-1,17
 233 -11 233 -11 194 -11 c 0,18,19
 113 -11 113 -11 75 51.5 c 128,-1,20
 37 114 37 114 37 248 c 0,21,22
 37 377 37 377 86.5 443 c 128,-1,23
 136 509 136 509 233 509 c 0,24,25
 280 509 280 509 314 500 c 128,-1,26
 348 491 348 491 374 479 c 1,27,-1
 374 -23 l 2,0,1
302 428 m 1,28,29
 272 444 272 444 225 444 c 0,30,31
 174 444 174 444 143 397.5 c 128,-1,32
 112 351 112 351 112 249 c 0,33,34
 112 207 112 207 117 171.5 c 128,-1,35
 122 136 122 136 134 109.5 c 128,-1,36
 146 83 146 83 164.5 68.5 c 128,-1,37
 183 54 183 54 210 54 c 0,38,39
 248 54 248 54 270 74 c 128,-1,40
 292 94 292 94 302 134 c 1,41,-1
 302 428 l 1,28,29
280 609 m 0,42,43
 280 588 280 588 267.5 575 c 128,-1,44
 255 562 255 562 237 562 c 0,45,46
 215 562 215 562 199 579 c 128,-1,47
 183 596 183 596 183 637 c 0,48,49
 183 661 183 661 190.5 680.5 c 128,-1,50
 198 700 198 700 208.5 714.5 c 128,-1,51
 219 729 219 729 230.5 738.5 c 128,-1,52
 242 748 242 748 251 752 c 1,53,-1
 277 722 l 1,54,55
 261 713 261 713 249.5 693.5 c 128,-1,56
 238 674 238 674 238 650 c 1,57,58
 255 655 255 655 267.5 643 c 128,-1,59
 280 631 280 631 280 609 c 0,42,43
EndSplineSet
EndChar

StartChar: Hbar
Encoding: 294 294 226
Width: 549
Flags: W
LayerCount: 2
Fore
SplineSet
8 585 m 1,0,-1
 71 585 l 1,1,-1
 71 700 l 1,2,-1
 146 700 l 1,3,-1
 146 585 l 1,4,-1
 404 585 l 1,5,-1
 404 700 l 1,6,-1
 479 700 l 1,7,-1
 479 585 l 1,8,-1
 542 585 l 1,9,-1
 542 526 l 1,10,-1
 479 526 l 1,11,-1
 479 0 l 1,12,-1
 404 0 l 1,13,-1
 404 323 l 1,14,-1
 146 323 l 1,15,-1
 146 0 l 1,16,-1
 71 0 l 1,17,-1
 71 526 l 1,18,-1
 8 526 l 1,19,-1
 8 585 l 1,0,-1
404 392 m 1,20,-1
 404 526 l 1,21,-1
 146 526 l 1,22,-1
 146 392 l 1,23,-1
 404 392 l 1,20,-1
EndSplineSet
Position2: "'cpsp' Capital Spacing lookup 0 subtable" dx=40 dy=0 dh=80 dv=0
EndChar

StartChar: hbar
Encoding: 295 295 227
Width: 441
Flags: W
LayerCount: 2
Fore
SplineSet
-4 633 m 1,0,-1
 60 633 l 1,1,-1
 60 700 l 1,2,-1
 132 700 l 1,3,-1
 132 633 l 1,4,-1
 261 633 l 1,5,-1
 261 574 l 1,6,-1
 132 574 l 1,7,-1
 132 453 l 1,8,-1
 135 453 l 1,9,10
 155 479 155 479 184.5 495.5 c 128,-1,11
 214 512 214 512 258 512 c 0,12,13
 291 512 291 512 315.5 503 c 128,-1,14
 340 494 340 494 356 472 c 128,-1,15
 372 450 372 450 380 413.5 c 128,-1,16
 388 377 388 377 388 323 c 2,17,-1
 388 0 l 1,18,-1
 316 0 l 1,19,-1
 316 304 l 2,20,21
 316 374 316 374 299.5 410.5 c 128,-1,22
 283 447 283 447 234 447 c 0,23,24
 199 447 199 447 170.5 422 c 128,-1,25
 142 397 142 397 132 359 c 1,26,-1
 132 0 l 1,27,-1
 60 0 l 1,28,-1
 60 574 l 1,29,-1
 -4 574 l 1,30,-1
 -4 633 l 1,0,-1
EndSplineSet
EndChar

StartChar: Iogonek
Encoding: 302 302 230
Width: 234
Flags: W
LayerCount: 2
Fore
SplineSet
79 700 m 1,0,-1
 154 700 l 1,1,-1
 154 0 l 1,2,-1
 141 0 l 1,3,4
 121 -15 121 -15 108.5 -36.5 c 128,-1,5
 96 -58 96 -58 97 -89 c 0,6,7
 97 -117 97 -117 115 -133 c 128,-1,8
 133 -149 133 -149 171 -134 c 1,9,-1
 181 -173 l 1,10,11
 169 -185 169 -185 148.5 -190.5 c 128,-1,12
 128 -196 128 -196 109 -196 c 0,13,14
 71 -196 71 -196 47 -173 c 128,-1,15
 23 -150 23 -150 23 -109 c 0,16,17
 23 -74 23 -74 41.5 -45.5 c 128,-1,18
 60 -17 60 -17 91 0 c 1,19,-1
 79 0 l 1,20,-1
 79 700 l 1,0,-1
EndSplineSet
Position2: "'cpsp' Capital Spacing lookup 0 subtable" dx=40 dy=0 dh=80 dv=0
EndChar

StartChar: iogonek
Encoding: 303 303 231
Width: 217
Flags: W
LayerCount: 2
Fore
SplineSet
72 500 m 1,0,-1
 144 500 l 1,1,-1
 144 0 l 1,2,-1
 130 0 l 1,3,4
 110 -16 110 -16 97 -38.5 c 128,-1,5
 84 -61 84 -61 85 -89 c 0,6,7
 85 -103 85 -103 90.5 -114.5 c 128,-1,8
 96 -126 96 -126 105.5 -133 c 128,-1,9
 115 -140 115 -140 129 -140 c 128,-1,10
 143 -140 143 -140 161 -130 c 1,11,-1
 170 -173 l 1,12,13
 158 -185 158 -185 137 -190.5 c 128,-1,14
 116 -196 116 -196 96 -196 c 0,15,16
 58 -196 58 -196 36 -172.5 c 128,-1,17
 14 -149 14 -149 14 -108 c 0,18,19
 14 -73 14 -73 31.5 -45 c 128,-1,20
 49 -17 49 -17 79 0 c 1,21,-1
 72 0 l 1,22,-1
 72 500 l 1,0,-1
58 652 m 0,23,24
 58 676 58 676 71.5 691 c 128,-1,25
 85 706 85 706 107 706 c 256,26,27
 129 706 129 706 143.5 691.5 c 128,-1,28
 158 677 158 677 158 652 c 0,29,30
 158 628 158 628 143.5 614.5 c 128,-1,31
 129 601 129 601 107 601 c 256,32,33
 85 601 85 601 71.5 615 c 128,-1,34
 58 629 58 629 58 652 c 0,23,24
EndSplineSet
EndChar

StartChar: dotlessi
Encoding: 305 305 233
Width: 217
Flags: W
LayerCount: 2
Fore
SplineSet
72 500 m 1,0,-1
 144 500 l 1,1,-1
 144 0 l 1,2,-1
 72 0 l 1,3,-1
 72 500 l 1,0,-1
EndSplineSet
EndChar

StartChar: Lslash
Encoding: 321 321 244
Width: 418
Flags: W
LayerCount: 2
Fore
SplineSet
15 290 m 1,0,-1
 67 338 l 1,1,-1
 67 700 l 1,2,-1
 142 700 l 1,3,-1
 142 407 l 1,4,-1
 232 491 l 1,5,-1
 232 408 l 1,6,-1
 142 326 l 1,7,-1
 142 69 l 1,8,-1
 404 69 l 1,9,-1
 404 0 l 1,10,-1
 67 0 l 1,11,-1
 67 258 l 1,12,-1
 15 211 l 1,13,-1
 15 290 l 1,0,-1
EndSplineSet
Position2: "'cpsp' Capital Spacing lookup 0 subtable" dx=40 dy=0 dh=80 dv=0
EndChar

StartChar: lslash
Encoding: 322 322 245
Width: 234
Flags: W
LayerCount: 2
Fore
SplineSet
8 288 m 1,0,-1
 68 343 l 1,1,-1
 68 700 l 1,2,-1
 140 700 l 1,3,-1
 140 410 l 1,4,-1
 225 489 l 1,5,-1
 225 406 l 1,6,-1
 140 329 l 1,7,-1
 140 119 l 2,8,9
 140 84 140 84 149.5 69 c 128,-1,10
 159 54 159 54 176 54 c 0,11,12
 197 54 197 54 225 65 c 1,13,-1
 232 7 l 1,14,15
 219 -1 219 -1 195.5 -6 c 128,-1,16
 172 -11 172 -11 153 -11 c 0,17,18
 115 -11 115 -11 91.5 12.5 c 128,-1,19
 68 36 68 36 68 95 c 2,20,-1
 68 263 l 1,21,-1
 8 209 l 1,22,-1
 8 288 l 1,0,-1
EndSplineSet
EndChar

StartChar: OE
Encoding: 338 338 256
Width: 748
Flags: W
LayerCount: 2
Fore
SplineSet
383 623 m 1,0,1
 361 634 361 634 333 638.5 c 128,-1,2
 305 643 305 643 275 643 c 0,3,4
 202 643 202 643 162 571 c 128,-1,5
 122 499 122 499 122 350 c 0,6,7
 122 291 122 291 130.5 238 c 128,-1,8
 139 185 139 185 158 145 c 128,-1,9
 177 105 177 105 207 81 c 128,-1,10
 237 57 237 57 280 57 c 0,11,12
 303 57 303 57 327 59 c 128,-1,13
 351 61 351 61 383 73 c 1,14,-1
 383 623 l 1,0,1
383 0 m 1,15,16
 363 -5 363 -5 335 -8.5 c 128,-1,17
 307 -12 307 -12 273 -12 c 0,18,19
 213 -12 213 -12 169.5 13.5 c 128,-1,20
 126 39 126 39 98 86.5 c 128,-1,21
 70 134 70 134 56.5 200.5 c 128,-1,22
 43 267 43 267 43 350 c 0,23,24
 43 527 43 527 101.5 619.5 c 128,-1,25
 160 712 160 712 273 712 c 0,26,27
 309 712 309 712 333.5 708.5 c 128,-1,28
 358 705 358 705 383 700 c 1,29,-1
 694 700 l 1,30,-1
 694 631 l 1,31,-1
 458 631 l 1,32,-1
 458 394 l 1,33,-1
 674 394 l 1,34,-1
 674 325 l 1,35,-1
 458 325 l 1,36,-1
 458 69 l 1,37,-1
 699 69 l 1,38,-1
 699 0 l 1,39,-1
 383 0 l 1,15,16
EndSplineSet
Position2: "'cpsp' Capital Spacing lookup 0 subtable" dx=40 dy=0 dh=80 dv=0
EndChar

StartChar: oe
Encoding: 339 339 257
Width: 692
Flags: W
LayerCount: 2
Fore
SplineSet
112 250 m 0,0,1
 112 211 112 211 117.5 175.5 c 128,-1,2
 123 140 123 140 135.5 113 c 128,-1,3
 148 86 148 86 168 69.5 c 128,-1,4
 188 53 188 53 216 53 c 0,5,6
 319 53 319 53 319 250 c 0,7,8
 319 289 319 289 313.5 324.5 c 128,-1,9
 308 360 308 360 296 387.5 c 128,-1,10
 284 415 284 415 264 431 c 128,-1,11
 244 447 244 447 216 447 c 0,12,13
 112 447 112 447 112 250 c 0,0,1
355 75 m 1,14,15
 312 -12 312 -12 215 -12 c 0,16,17
 124 -12 124 -12 80.5 56 c 128,-1,18
 37 124 37 124 37 250 c 0,19,20
 37 378 37 378 83.5 445 c 128,-1,21
 130 512 130 512 216 512 c 0,22,23
 267 512 267 512 301.5 489.5 c 128,-1,24
 336 467 336 467 356 426 c 1,25,26
 376 464 376 464 411.5 488 c 128,-1,27
 447 512 447 512 496 512 c 0,28,29
 524 512 524 512 551.5 504.5 c 128,-1,30
 579 497 579 497 601 476 c 128,-1,31
 623 455 623 455 636.5 417 c 128,-1,32
 650 379 650 379 650 318 c 0,33,34
 650 301 650 301 648.5 282 c 128,-1,35
 647 263 647 263 645 242 c 1,36,-1
 389 242 l 1,37,38
 390 155 390 155 419.5 103.5 c 128,-1,39
 449 52 449 52 517 52 c 0,40,41
 544 52 544 52 572 63 c 128,-1,42
 600 74 600 74 614 88 c 1,43,-1
 640 35 l 1,44,45
 616 12 616 12 577.5 0 c 128,-1,46
 539 -12 539 -12 497 -12 c 0,47,48
 447 -12 447 -12 411 12 c 128,-1,49
 375 36 375 36 355 75 c 1,14,15
496 448 m 0,50,51
 451 448 451 448 423.5 412 c 128,-1,52
 396 376 396 376 391 301 c 1,53,-1
 581 301 l 1,54,55
 583 376 583 376 560 412 c 128,-1,56
 537 448 537 448 496 448 c 0,50,51
EndSplineSet
EndChar

StartChar: Scedilla
Encoding: 350 350 268
Width: 428
Flags: W
LayerCount: 2
Fore
SplineSet
59 93 m 1,0,1
 78 80 78 80 112.5 68.5 c 128,-1,2
 147 57 147 57 191 57 c 0,3,4
 247 57 247 57 282 84.5 c 128,-1,5
 317 112 317 112 317 171 c 0,6,7
 317 210 317 210 297 239 c 128,-1,8
 277 268 277 268 247 292.5 c 128,-1,9
 217 317 217 317 182.5 340.5 c 128,-1,10
 148 364 148 364 118 392.5 c 128,-1,11
 88 421 88 421 68 458 c 128,-1,12
 48 495 48 495 48 547 c 0,13,14
 48 631 48 631 98.5 671.5 c 128,-1,15
 149 712 149 712 230 712 c 0,16,17
 280 712 280 712 319 703 c 128,-1,18
 358 694 358 694 382 680 c 1,19,-1
 358 614 l 1,20,21
 340 625 340 625 306.5 634 c 128,-1,22
 273 643 273 643 229 643 c 0,23,24
 175 643 175 643 149 616.5 c 128,-1,25
 123 590 123 590 123 550 c 0,26,27
 123 515 123 515 143 488 c 128,-1,28
 163 461 163 461 193 437 c 128,-1,29
 223 413 223 413 257.5 388.5 c 128,-1,30
 292 364 292 364 322 334 c 128,-1,31
 352 304 352 304 372 266 c 128,-1,32
 392 228 392 228 392 176 c 0,33,34
 392 98 392 98 350.5 50 c 128,-1,35
 309 2 309 2 234 -9 c 1,36,-1
 219 -43 l 1,37,38
 284 -58 284 -58 284 -118 c 0,39,40
 284 -157 284 -157 255.5 -182.5 c 128,-1,41
 227 -208 227 -208 179 -208 c 0,42,43
 159 -208 159 -208 142 -204 c 1,44,-1
 149 -165 l 1,45,46
 172 -167 172 -167 185.5 -164 c 128,-1,47
 199 -161 199 -161 206 -155 c 128,-1,48
 213 -149 213 -149 215 -141.5 c 128,-1,49
 217 -134 217 -134 217 -127 c 0,50,51
 217 -99 217 -99 148 -90 c 1,52,-1
 182 -12 l 1,53,54
 126 -10 126 -10 90 0 c 128,-1,55
 54 10 54 10 33 24 c 1,56,-1
 59 93 l 1,0,1
EndSplineSet
Substitution2: "'locl' Localized Forms in Latin lookup 4 subtable" Scommaaccent
Substitution2: "'locl' Localized Forms in Latin lookup 3 subtable" Scommaaccent
Substitution2: "'aalt' Access All Alternates lookup 0 subtable" Scommaaccent
Position2: "'cpsp' Capital Spacing lookup 0 subtable" dx=40 dy=0 dh=80 dv=0
EndChar

StartChar: scedilla
Encoding: 351 351 269
Width: 338
Flags: W
LayerCount: 2
Fore
SplineSet
51 82 m 1,0,1
 71 70 71 70 98.5 62 c 128,-1,2
 126 54 126 54 155 54 c 0,3,4
 188 54 188 54 211 70 c 128,-1,5
 234 86 234 86 234 123 c 0,6,7
 234 154 234 154 220 174 c 128,-1,8
 206 194 206 194 184.5 210 c 128,-1,9
 163 226 163 226 138 239.5 c 128,-1,10
 113 253 113 253 91.5 272 c 128,-1,11
 70 291 70 291 56 317 c 128,-1,12
 42 343 42 343 42 383 c 0,13,14
 42 447 42 447 76.5 479.5 c 128,-1,15
 111 512 111 512 174 512 c 0,16,17
 215 512 215 512 245 504.5 c 128,-1,18
 275 497 275 497 297 484 c 1,19,-1
 278 424 l 1,20,21
 259 434 259 434 234 440.5 c 128,-1,22
 209 447 209 447 183 447 c 0,23,24
 147 447 147 447 130.5 432 c 128,-1,25
 114 417 114 417 114 385 c 0,26,27
 114 360 114 360 128 342.5 c 128,-1,28
 142 325 142 325 163.5 310.5 c 128,-1,29
 185 296 185 296 210 281 c 128,-1,30
 235 266 235 266 256.5 245.5 c 128,-1,31
 278 225 278 225 292 196.5 c 128,-1,32
 306 168 306 168 306 125 c 0,33,34
 306 75 306 75 277 37 c 128,-1,35
 248 -1 248 -1 190 -9 c 1,36,-1
 175 -43 l 1,37,38
 240 -58 240 -58 240 -118 c 0,39,40
 240 -157 240 -157 211.5 -182.5 c 128,-1,41
 183 -208 183 -208 135 -208 c 0,42,43
 115 -208 115 -208 98 -204 c 1,44,-1
 105 -165 l 1,45,46
 128 -167 128 -167 141.5 -164 c 128,-1,47
 155 -161 155 -161 162 -155 c 128,-1,48
 169 -149 169 -149 171 -141.5 c 128,-1,49
 173 -134 173 -134 173 -127 c 0,50,51
 173 -99 173 -99 104 -90 c 1,52,-1
 139 -11 l 1,53,54
 103 -9 103 -9 75.5 -1 c 128,-1,55
 48 7 48 7 29 19 c 1,56,-1
 51 82 l 1,0,1
EndSplineSet
Substitution2: "'locl' Localized Forms in Latin lookup 4 subtable" scommaaccent
Substitution2: "'locl' Localized Forms in Latin lookup 3 subtable" scommaaccent
Substitution2: "'aalt' Access All Alternates lookup 0 subtable" scommaaccent
EndChar

StartChar: Tcedilla
Encoding: 354 354 272
Width: 447
Flags: W
LayerCount: 2
Fore
SplineSet
186 0 m 1,0,-1
 186 631 l 1,1,-1
 14 631 l 1,2,-1
 14 700 l 1,3,-1
 433 700 l 1,4,-1
 433 631 l 1,5,-1
 261 631 l 1,6,-1
 261 0 l 1,7,-1
 249 0 l 1,8,-1
 230 -43 l 1,9,10
 295 -58 295 -58 295 -118 c 0,11,12
 295 -157 295 -157 266.5 -182.5 c 128,-1,13
 238 -208 238 -208 190 -208 c 0,14,15
 170 -208 170 -208 153 -204 c 1,16,-1
 160 -165 l 1,17,18
 183 -167 183 -167 196.5 -164 c 128,-1,19
 210 -161 210 -161 217 -155 c 128,-1,20
 224 -149 224 -149 226 -141.5 c 128,-1,21
 228 -134 228 -134 228 -127 c 0,22,23
 228 -99 228 -99 159 -90 c 1,24,-1
 199 0 l 1,25,-1
 186 0 l 1,0,-1
EndSplineSet
Substitution2: "'locl' Localized Forms in Latin lookup 4 subtable" Tcommaaccent
Substitution2: "'locl' Localized Forms in Latin lookup 3 subtable" Tcommaaccent
Substitution2: "'aalt' Access All Alternates lookup 0 subtable" Tcommaaccent
EndChar

StartChar: tcedilla
Encoding: 355 355 273
Width: 275
Flags: W
LayerCount: 2
Fore
SplineSet
9 500 m 1,0,-1
 70 500 l 1,1,-1
 70 599 l 1,2,-1
 142 622 l 1,3,-1
 142 500 l 1,4,-1
 250 500 l 1,5,-1
 250 435 l 1,6,-1
 142 435 l 1,7,-1
 142 137 l 2,8,9
 142 93 142 93 152.5 74 c 128,-1,10
 163 55 163 55 187 55 c 0,11,12
 207 55 207 55 221.5 59.5 c 128,-1,13
 236 64 236 64 253 71 c 1,14,-1
 267 13 l 1,15,16
 237 -1 237 -1 204 -7 c 1,17,-1
 203 -7 l 1,18,-1
 187 -43 l 1,19,20
 252 -58 252 -58 252 -118 c 0,21,22
 252 -157 252 -157 223.5 -182.5 c 128,-1,23
 195 -208 195 -208 147 -208 c 0,24,25
 127 -208 127 -208 110 -204 c 1,26,-1
 117 -165 l 1,27,28
 140 -167 140 -167 153.5 -164 c 128,-1,29
 167 -161 167 -161 174 -155 c 128,-1,30
 181 -149 181 -149 183 -141.5 c 128,-1,31
 185 -134 185 -134 185 -127 c 0,32,33
 185 -99 185 -99 116 -90 c 1,34,-1
 151 -10 l 1,35,36
 108 -7 108 -7 89 25.5 c 128,-1,37
 70 58 70 58 70 127 c 2,38,-1
 70 435 l 1,39,-1
 9 435 l 1,40,-1
 9 500 l 1,0,-1
EndSplineSet
Substitution2: "'locl' Localized Forms in Latin lookup 4 subtable" tcommaaccent
Substitution2: "'locl' Localized Forms in Latin lookup 3 subtable" tcommaaccent
Substitution2: "'aalt' Access All Alternates lookup 0 subtable" tcommaaccent
EndChar

StartChar: Uogonek
Encoding: 370 370 284
Width: 521
Flags: W
LayerCount: 2
Fore
SplineSet
385 700 m 1,0,-1
 457 700 l 1,1,-1
 457 231 l 2,2,3
 457 134 457 134 427.5 78.5 c 128,-1,4
 398 23 398 23 344 3 c 1,5,6
 321 -14 321 -14 308.5 -36 c 128,-1,7
 296 -58 296 -58 296 -88 c 0,8,9
 296 -102 296 -102 301 -113.5 c 128,-1,10
 306 -125 306 -125 315 -132 c 128,-1,11
 324 -139 324 -139 337.5 -140 c 128,-1,12
 351 -141 351 -141 369 -134 c 1,13,-1
 380 -174 l 1,14,15
 369 -184 369 -184 347.5 -190 c 128,-1,16
 326 -196 326 -196 308 -196 c 0,17,18
 269 -196 269 -196 246 -171.5 c 128,-1,19
 223 -147 223 -147 222 -108 c 1,20,21
 223 -78 223 -78 236.5 -52.5 c 128,-1,22
 250 -27 250 -27 275 -9 c 1,23,-1
 267 -9 l 2,24,25
 161 -9 161 -9 112.5 46 c 128,-1,26
 64 101 64 101 64 215 c 2,27,-1
 64 700 l 1,28,-1
 139 700 l 1,29,-1
 139 254 l 2,30,31
 139 200 139 200 146 163 c 128,-1,32
 153 126 153 126 169 103 c 128,-1,33
 185 80 185 80 209 70 c 128,-1,34
 233 60 233 60 268 60 c 0,35,36
 334 60 334 60 359.5 106 c 128,-1,37
 385 152 385 152 385 254 c 2,38,-1
 385 700 l 1,0,-1
EndSplineSet
Position2: "'cpsp' Capital Spacing lookup 0 subtable" dx=40 dy=0 dh=80 dv=0
EndChar

StartChar: uogonek
Encoding: 371 371 285
Width: 434
Flags: W
LayerCount: 2
Fore
SplineSet
124 500 m 1,0,-1
 124 194 l 2,1,2
 124 118 124 118 139.5 85.5 c 128,-1,3
 155 53 155 53 196 53 c 0,4,5
 217 53 217 53 233.5 61.5 c 128,-1,6
 250 70 250 70 263 84 c 128,-1,7
 276 98 276 98 286 116 c 128,-1,8
 296 134 296 134 302 153 c 1,9,-1
 302 500 l 1,10,-1
 374 500 l 1,11,-1
 374 142 l 2,12,13
 374 106 374 106 376.5 67.5 c 128,-1,14
 379 29 379 29 384 0 c 1,15,-1
 371 0 l 1,16,17
 348 -16 348 -16 333 -37 c 128,-1,18
 318 -58 318 -58 319 -88 c 0,19,20
 319 -102 319 -102 324 -113.5 c 128,-1,21
 329 -125 329 -125 339 -132 c 128,-1,22
 349 -139 349 -139 363 -139 c 128,-1,23
 377 -139 377 -139 394 -129 c 1,24,-1
 405 -172 l 1,25,26
 393 -184 393 -184 371.5 -190 c 128,-1,27
 350 -196 350 -196 331 -196 c 0,28,29
 293 -196 293 -196 270.5 -172 c 128,-1,30
 248 -148 248 -148 248 -107 c 0,31,32
 248 -65 248 -65 270.5 -38 c 128,-1,33
 293 -11 293 -11 331 6 c 1,34,-1
 315 70 l 1,35,-1
 312 70 l 1,36,37
 295 37 295 37 263 12.5 c 128,-1,38
 231 -12 231 -12 183 -12 c 0,39,40
 151 -12 151 -12 127 -4 c 128,-1,41
 103 4 103 4 86 25 c 128,-1,42
 69 46 69 46 60.5 82.5 c 128,-1,43
 52 119 52 119 52 176 c 2,44,-1
 52 500 l 1,45,-1
 124 500 l 1,0,-1
EndSplineSet
EndChar

StartChar: longs
Encoding: 383 383 293
Width: 206
Flags: W
LayerCount: 2
Fore
SplineSet
16 500 m 1,0,-1
 77 500 l 1,1,-1
 77 528 l 2,2,3
 77 622 77 622 104 664 c 128,-1,4
 131 706 131 706 195 706 c 0,5,6
 223 706 223 706 244 702.5 c 128,-1,7
 265 699 265 699 287 689 c 1,8,-1
 269 629 l 1,9,10
 250 637 250 637 235.5 639 c 128,-1,11
 221 641 221 641 207 641 c 0,12,13
 187 641 187 641 175.5 633 c 128,-1,14
 164 625 164 625 158 608 c 128,-1,15
 152 591 152 591 150.5 564.5 c 128,-1,16
 149 538 149 538 149 500 c 2,17,-1
 149 0 l 1,18,-1
 77 0 l 1,19,-1
 77 435 l 1,20,-1
 16 435 l 1,21,-1
 16 500 l 1,0,-1
EndSplineSet
EndChar

StartChar: florin
Encoding: 402 402 294
Width: 450
Flags: W
LayerCount: 2
Fore
SplineSet
259 435 m 1,0,-1
 197 -34 l 2,1,2
 192 -71 192 -71 183 -102.5 c 128,-1,3
 174 -134 174 -134 159 -157.5 c 128,-1,4
 144 -181 144 -181 122 -194.5 c 128,-1,5
 100 -208 100 -208 69 -208 c 0,6,7
 45 -208 45 -208 16.5 -202.5 c 128,-1,8
 -12 -197 -12 -197 -32 -187 c 1,9,-1
 -12 -126 l 1,10,11
 6 -134 6 -134 22.5 -138.5 c 128,-1,12
 39 -143 39 -143 59 -143 c 0,13,14
 89 -143 89 -143 105 -107 c 128,-1,15
 121 -71 121 -71 131 8 c 2,16,-1
 184 435 l 1,17,-1
 117 435 l 1,18,-1
 117 500 l 1,19,-1
 194 500 l 1,20,-1
 203 567 l 2,21,22
 213 640 213 640 238.5 676 c 128,-1,23
 264 712 264 712 324 712 c 0,24,25
 351 712 351 712 378.5 706.5 c 128,-1,26
 406 701 406 701 427 691 c 1,27,-1
 407 631 l 1,28,29
 371 647 371 647 335 647 c 0,30,31
 305 647 305 647 293 621.5 c 128,-1,32
 281 596 281 596 274 541 c 2,33,-1
 269 500 l 1,34,-1
 366 500 l 1,35,-1
 366 435 l 1,36,-1
 259 435 l 1,0,-1
EndSplineSet
EndChar

StartChar: uni0237
Encoding: 567 567 301
Width: 215
Flags: W
LayerCount: 2
Fore
SplineSet
72 500 m 1,0,-1
 144 500 l 1,1,-1
 144 -27 l 2,2,3
 144 -130 144 -130 111 -175.5 c 128,-1,4
 78 -221 78 -221 4 -210 c 1,5,-1
 4 -145 l 1,6,7
 26 -145 26 -145 39.5 -136 c 128,-1,8
 53 -127 53 -127 60.5 -108.5 c 128,-1,9
 68 -90 68 -90 70 -62.5 c 128,-1,10
 72 -35 72 -35 72 2 c 2,11,-1
 72 500 l 1,0,-1
EndSplineSet
EndChar

StartChar: circumflex
Encoding: 710 710 303
Width: 343
Flags: W
LayerCount: 2
Fore
SplineSet
159 732 m 1,0,-1
 194 732 l 1,1,-1
 283 550 l 1,2,-1
 220 550 l 1,3,-1
 188 616 l 1,4,-1
 172 674 l 1,5,-1
 155 616 l 1,6,-1
 119 550 l 1,7,-1
 60 550 l 1,8,-1
 159 732 l 1,0,-1
EndSplineSet
EndChar

StartChar: caron
Encoding: 711 711 304
Width: 350
Flags: W
LayerCount: 2
Fore
SplineSet
191 550 m 1,0,-1
 153 550 l 1,1,-1
 60 732 l 1,2,-1
 128 732 l 1,3,-1
 159 666 l 1,4,-1
 176 608 l 1,5,-1
 193 666 l 1,6,-1
 229 732 l 1,7,-1
 290 732 l 1,8,-1
 191 550 l 1,0,-1
EndSplineSet
Substitution2: "'aalt' Access All Alternates lookup 0 subtable" caron.l
EndChar

StartChar: breve
Encoding: 728 728 305
Width: 371
Flags: W
LayerCount: 2
Fore
SplineSet
99 717 m 1,0,1
 113 681 113 681 137 659.5 c 128,-1,2
 161 638 161 638 190 638 c 0,3,4
 218 638 218 638 239.5 659 c 128,-1,5
 261 680 261 680 274 717 c 1,6,-1
 311 702 l 1,7,8
 309 676 309 676 298.5 652.5 c 128,-1,9
 288 629 288 629 272 611.5 c 128,-1,10
 256 594 256 594 234.5 583.5 c 128,-1,11
 213 573 213 573 189 573 c 0,12,13
 142 573 142 573 106.5 606 c 128,-1,14
 71 639 71 639 60 699 c 1,15,-1
 99 717 l 1,0,1
EndSplineSet
EndChar

StartChar: dotaccent
Encoding: 729 729 306
Width: 220
Flags: W
LayerCount: 2
Fore
SplineSet
60 652 m 0,0,1
 60 676 60 676 73.5 691 c 128,-1,2
 87 706 87 706 109 706 c 256,3,4
 131 706 131 706 145.5 691.5 c 128,-1,5
 160 677 160 677 160 652 c 0,6,7
 160 628 160 628 145.5 614.5 c 128,-1,8
 131 601 131 601 109 601 c 256,9,10
 87 601 87 601 73.5 615 c 128,-1,11
 60 629 60 629 60 652 c 0,0,1
EndSplineSet
EndChar

StartChar: ring
Encoding: 730 730 307
Width: 285
Flags: W
LayerCount: 2
Fore
SplineSet
60 643 m 0,0,1
 60 685 60 685 82 708.5 c 128,-1,2
 104 732 104 732 142 732 c 0,3,4
 178 732 178 732 201.5 711 c 128,-1,5
 225 690 225 690 225 643 c 0,6,7
 225 603 225 603 202.5 579 c 128,-1,8
 180 555 180 555 142 555 c 256,9,10
 104 555 104 555 82 577.5 c 128,-1,11
 60 600 60 600 60 643 c 0,0,1
108 643 m 0,12,13
 108 620 108 620 118 608.5 c 128,-1,14
 128 597 128 597 142 597 c 0,15,16
 158 597 158 597 167.5 608 c 128,-1,17
 177 619 177 619 177 643 c 256,18,19
 177 667 177 667 166.5 678.5 c 128,-1,20
 156 690 156 690 142 690 c 256,21,22
 128 690 128 690 118 679 c 128,-1,23
 108 668 108 668 108 643 c 0,12,13
EndSplineSet
EndChar

StartChar: ogonek
Encoding: 731 731 308
Width: 278
Flags: W
LayerCount: 2
Fore
SplineSet
195 10 m 1,0,1
 166 -6 166 -6 149 -30.5 c 128,-1,2
 132 -55 132 -55 132 -87 c 1,3,4
 133 -116 133 -116 152 -131.5 c 128,-1,5
 171 -147 171 -147 208 -132 c 1,6,-1
 218 -172 l 1,7,8
 207 -183 207 -183 186.5 -189 c 128,-1,9
 166 -195 166 -195 147 -195 c 0,10,11
 107 -195 107 -195 83.5 -171 c 128,-1,12
 60 -147 60 -147 60 -109 c 0,13,14
 60 -66 60 -66 84.5 -36.5 c 128,-1,15
 109 -7 109 -7 147 10 c 1,16,-1
 195 10 l 1,0,1
EndSplineSet
EndChar

StartChar: tilde
Encoding: 732 732 309
Width: 362
Flags: W
LayerCount: 2
Fore
SplineSet
60 653 m 1,0,1
 87 687 87 687 108 699.5 c 128,-1,2
 129 712 129 712 146 712 c 0,3,4
 160 712 160 712 172 706 c 128,-1,5
 184 700 184 700 195.5 693.5 c 128,-1,6
 207 687 207 687 217.5 681 c 128,-1,7
 228 675 228 675 240 675 c 0,8,9
 249 675 249 675 258.5 679.5 c 128,-1,10
 268 684 268 684 279 696 c 1,11,-1
 302 658 l 1,12,13
 278 629 278 629 259.5 618 c 128,-1,14
 241 607 241 607 225 607 c 0,15,16
 211 607 211 607 199 612.5 c 128,-1,17
 187 618 187 618 175.5 625 c 128,-1,18
 164 632 164 632 153 637.5 c 128,-1,19
 142 643 142 643 130 643 c 0,20,21
 119 643 119 643 108 637.5 c 128,-1,22
 97 632 97 632 84 618 c 1,23,-1
 60 653 l 1,0,1
EndSplineSet
EndChar

StartChar: hungarumlaut
Encoding: 733 733 310
Width: 346
Flags: W
LayerCount: 2
Fore
SplineSet
88 700 m 1,0,-1
 157 700 l 1,1,-1
 157 684 l 1,2,-1
 99 571 l 1,3,-1
 60 571 l 1,4,-1
 88 700 l 1,0,-1
211 700 m 1,5,-1
 286 700 l 1,6,-1
 286 684 l 1,7,-1
 194 571 l 1,8,-1
 152 571 l 1,9,-1
 211 700 l 1,5,-1
EndSplineSet
EndChar

StartChar: uni0394
Encoding: 916 916 312
AltUni2: 002206.ffffffff.0
Width: 459
Flags: W
LayerCount: 2
Fore
SplineSet
11 0 m 1,0,-1
 11 37 l 1,1,-1
 212 711 l 1,2,-1
 247 711 l 1,3,-1
 451 37 l 1,4,-1
 451 0 l 1,5,-1
 11 0 l 1,0,-1
91 65 m 1,6,-1
 368 65 l 1,7,-1
 247 467 l 1,8,-1
 229 581 l 1,9,-1
 226 581 l 1,10,-1
 205 465 l 1,11,-1
 91 65 l 1,6,-1
EndSplineSet
EndChar

StartChar: uni03A9
Encoding: 937 937 313
AltUni2: 002126.ffffffff.0
Width: 640
Flags: W
LayerCount: 2
Fore
SplineSet
58 65 m 1,0,-1
 149 65 l 1,1,-1
 224 55 l 1,2,-1
 224 82 l 1,3,-1
 181 92 l 1,4,5
 156 107 156 107 133.5 134 c 128,-1,6
 111 161 111 161 94.5 197.5 c 128,-1,7
 78 234 78 234 68 279 c 128,-1,8
 58 324 58 324 58 376 c 0,9,10
 58 455 58 455 76.5 517 c 128,-1,11
 95 579 95 579 129 622.5 c 128,-1,12
 163 666 163 666 211 689 c 128,-1,13
 259 712 259 712 319 712 c 0,14,15
 382 712 382 712 431 687 c 128,-1,16
 480 662 480 662 513.5 617 c 128,-1,17
 547 572 547 572 564.5 509.5 c 128,-1,18
 582 447 582 447 582 372 c 0,19,20
 582 318 582 318 571 273.5 c 128,-1,21
 560 229 560 229 542.5 193.5 c 128,-1,22
 525 158 525 158 503 133 c 128,-1,23
 481 108 481 108 460 93 c 1,24,-1
 415 82 l 1,25,-1
 415 55 l 1,26,-1
 491 65 l 1,27,-1
 582 65 l 1,28,-1
 582 0 l 1,29,-1
 349 0 l 1,30,-1
 349 116 l 1,31,32
 372 122 372 122 399 139 c 128,-1,33
 426 156 426 156 449 187.5 c 128,-1,34
 472 219 472 219 487.5 266 c 128,-1,35
 503 313 503 313 503 377 c 0,36,37
 503 425 503 425 492.5 473 c 128,-1,38
 482 521 482 521 459.5 558.5 c 128,-1,39
 437 596 437 596 402.5 619.5 c 128,-1,40
 368 643 368 643 319 643 c 0,41,42
 231 643 231 643 184 574.5 c 128,-1,43
 137 506 137 506 137 374 c 0,44,45
 137 311 137 311 151.5 265 c 128,-1,46
 166 219 166 219 188 187.5 c 128,-1,47
 210 156 210 156 237 138.5 c 128,-1,48
 264 121 264 121 290 116 c 1,49,-1
 290 0 l 1,50,-1
 58 0 l 1,51,-1
 58 65 l 1,0,-1
EndSplineSet
EndChar

StartChar: pi
Encoding: 960 960 314
Width: 535
Flags: W
LayerCount: 2
Fore
SplineSet
421 112 m 2,0,1
 421 84 421 84 428.5 72.5 c 128,-1,2
 436 61 436 61 447 61 c 0,3,4
 455 61 455 61 465 63.5 c 128,-1,5
 475 66 475 66 482 68 c 1,6,-1
 498 15 l 1,7,8
 484 9 484 9 464 2.5 c 128,-1,9
 444 -4 444 -4 418 -4 c 0,10,11
 377 -4 377 -4 363 25 c 128,-1,12
 349 54 349 54 349 106 c 2,13,-1
 349 435 l 1,14,-1
 204 435 l 1,15,-1
 204 0 l 1,16,-1
 132 0 l 1,17,-1
 132 435 l 1,18,-1
 119 435 l 2,19,20
 89 435 89 435 67 394 c 1,21,-1
 24 428 l 1,22,23
 40 464 40 464 65 482 c 128,-1,24
 90 500 90 500 133 500 c 2,25,-1
 488 500 l 1,26,-1
 488 435 l 1,27,-1
 421 435 l 1,28,-1
 421 112 l 2,0,1
EndSplineSet
EndChar

StartChar: afii10051
Encoding: 1026 1026 316
Width: 588
Flags: W
LayerCount: 2
Fore
SplineSet
262 0 m 1,0,-1
 187 0 l 1,1,-1
 187 631 l 1,2,-1
 14 631 l 1,3,-1
 14 700 l 1,4,-1
 435 700 l 1,5,-1
 435 631 l 1,6,-1
 262 631 l 1,7,-1
 262 415 l 1,8,9
 272 419 272 419 301 428 c 128,-1,10
 330 437 330 437 375 437 c 0,11,12
 408 437 408 437 438.5 427.5 c 128,-1,13
 469 418 469 418 493 394 c 128,-1,14
 517 370 517 370 531.5 329.5 c 128,-1,15
 546 289 546 289 546 226 c 0,16,17
 546 106 546 106 499.5 49 c 128,-1,18
 453 -8 453 -8 358 -8 c 0,19,20
 332 -8 332 -8 319.5 -7.5 c 128,-1,21
 307 -7 307 -7 301 -5 c 1,22,-1
 301 64 l 1,23,24
 312 62 312 62 324 61.5 c 128,-1,25
 336 61 336 61 358 61 c 0,26,27
 467 61 467 61 467 219 c 0,28,29
 467 262 467 262 458.5 291 c 128,-1,30
 450 320 450 320 434 337 c 128,-1,31
 418 354 418 354 396.5 361 c 128,-1,32
 375 368 375 368 350 368 c 0,33,34
 336 368 336 368 322 365.5 c 128,-1,35
 308 363 308 363 296 359 c 128,-1,36
 284 355 284 355 275 351.5 c 128,-1,37
 266 348 266 348 262 346 c 1,38,-1
 262 0 l 1,0,-1
EndSplineSet
Position2: "'cpsp' Capital Spacing lookup 0 subtable" dx=40 dy=0 dh=80 dv=0
EndChar

StartChar: afii10053
Encoding: 1028 1028 318
Width: 469
Flags: W
LayerCount: 2
Fore
SplineSet
432 27 m 1,0,1
 407 6 407 6 368 -3 c 128,-1,2
 329 -12 329 -12 287 -12 c 0,3,4
 234 -12 234 -12 189 8 c 128,-1,5
 144 28 144 28 111.5 71.5 c 128,-1,6
 79 115 79 115 61 184 c 128,-1,7
 43 253 43 253 43 350 c 0,8,9
 43 450 43 450 63.5 519 c 128,-1,10
 84 588 84 588 118 631 c 128,-1,11
 152 674 152 674 196.5 693 c 128,-1,12
 241 712 241 712 288 712 c 0,13,14
 336 712 336 712 369 705 c 128,-1,15
 402 698 402 698 425 688 c 1,16,-1
 406 620 l 1,17,18
 387 631 387 631 358.5 637 c 128,-1,19
 330 643 330 643 295 643 c 0,20,21
 263 643 263 643 233.5 630 c 128,-1,22
 204 617 204 617 181 587.5 c 128,-1,23
 158 558 158 558 142.5 511 c 128,-1,24
 127 464 127 464 123 396 c 1,25,-1
 365 396 l 1,26,-1
 365 327 l 1,27,-1
 122 327 l 1,28,29
 127 192 127 192 177 124.5 c 128,-1,30
 227 57 227 57 307 57 c 0,31,32
 342 57 342 57 369 66.5 c 128,-1,33
 396 76 396 76 414 89 c 1,34,-1
 432 27 l 1,0,1
EndSplineSet
Position2: "'cpsp' Capital Spacing lookup 0 subtable" dx=40 dy=0 dh=80 dv=0
EndChar

StartChar: afii10056
Encoding: 1031 1031 321
Width: 236
Flags: W
LayerCount: 2
Fore
SplineSet
19 793 m 256,0,1
 19 815 19 815 31 828 c 128,-1,2
 43 841 43 841 63 841 c 256,3,4
 83 841 83 841 94.5 828 c 128,-1,5
 106 815 106 815 106 793 c 256,6,7
 106 771 106 771 94.5 758.5 c 128,-1,8
 83 746 83 746 63 746 c 256,9,10
 43 746 43 746 31 758.5 c 128,-1,11
 19 771 19 771 19 793 c 256,0,1
130 793 m 256,12,13
 130 815 130 815 141.5 828 c 128,-1,14
 153 841 153 841 173 841 c 256,15,16
 193 841 193 841 205 828 c 128,-1,17
 217 815 217 815 217 793 c 256,18,19
 217 771 217 771 205 758.5 c 128,-1,20
 193 746 193 746 173 746 c 256,21,22
 153 746 153 746 141.5 758.5 c 128,-1,23
 130 771 130 771 130 793 c 256,12,13
80 700 m 1,24,-1
 155 700 l 1,25,-1
 155 0 l 1,26,-1
 80 0 l 1,27,-1
 80 700 l 1,24,-1
EndSplineSet
Position2: "'cpsp' Capital Spacing lookup 0 subtable" dx=40 dy=0 dh=80 dv=0
EndChar

StartChar: afii10058
Encoding: 1033 1033 323
Width: 747
Flags: W
LayerCount: 2
Fore
SplineSet
363 631 m 1,0,-1
 205 631 l 1,1,2
 197 430 197 430 184 295 c 128,-1,3
 171 160 171 160 144 87 c 0,4,5
 127 39 127 39 102 17 c 128,-1,6
 77 -5 77 -5 45 -5 c 0,7,8
 16 -5 16 -5 -4 5 c 1,9,-1
 7 73 l 1,10,11
 27 67 27 67 44 75.5 c 128,-1,12
 61 84 61 84 76 122 c 0,13,14
 87 149 87 149 96.5 194.5 c 128,-1,15
 106 240 106 240 113.5 310 c 128,-1,16
 121 380 121 380 126 476 c 128,-1,17
 131 572 131 572 133 700 c 1,18,-1
 438 700 l 1,19,-1
 438 428 l 1,20,21
 451 431 451 431 475.5 434 c 128,-1,22
 500 437 500 437 519 437 c 0,23,24
 559 437 559 437 595.5 427.5 c 128,-1,25
 632 418 632 418 660 394 c 128,-1,26
 688 370 688 370 704.5 329.5 c 128,-1,27
 721 289 721 289 721 227 c 0,28,29
 721 166 721 166 705.5 122 c 128,-1,30
 690 78 690 78 661 49 c 128,-1,31
 632 20 632 20 591 6 c 128,-1,32
 550 -8 550 -8 499 -8 c 0,33,34
 488 -8 488 -8 471.5 -7.5 c 128,-1,35
 455 -7 455 -7 436.5 -5.5 c 128,-1,36
 418 -4 418 -4 398.5 -1.5 c 128,-1,37
 379 1 379 1 363 6 c 1,38,-1
 363 631 l 1,0,-1
438 66 m 1,39,40
 450 63 450 63 469 62 c 128,-1,41
 488 61 488 61 507 61 c 0,42,43
 568 61 568 61 605 100 c 128,-1,44
 642 139 642 139 642 220 c 0,45,46
 642 263 642 263 631.5 291.5 c 128,-1,47
 621 320 621 320 602.5 337 c 128,-1,48
 584 354 584 354 559 361 c 128,-1,49
 534 368 534 368 506 368 c 0,50,51
 499 368 499 368 489 367 c 128,-1,52
 479 366 479 366 469.5 365 c 128,-1,53
 460 364 460 364 451 362 c 128,-1,54
 442 360 442 360 438 359 c 1,55,-1
 438 66 l 1,39,40
EndSplineSet
Position2: "'cpsp' Capital Spacing lookup 0 subtable" dx=40 dy=0 dh=80 dv=0
EndChar

StartChar: afii10059
Encoding: 1034 1034 324
Width: 781
Flags: W
LayerCount: 2
Fore
SplineSet
397 338 m 1,0,-1
 139 338 l 1,1,-1
 139 0 l 1,2,-1
 64 0 l 1,3,-1
 64 700 l 1,4,-1
 139 700 l 1,5,-1
 139 407 l 1,6,-1
 397 407 l 1,7,-1
 397 700 l 1,8,-1
 472 700 l 1,9,-1
 472 407 l 1,10,11
 476 408 476 408 485.5 409.5 c 128,-1,12
 495 411 495 411 507 412 c 128,-1,13
 519 413 519 413 531.5 414 c 128,-1,14
 544 415 544 415 553 415 c 0,15,16
 592 415 592 415 628.5 407 c 128,-1,17
 665 399 665 399 693 377 c 128,-1,18
 721 355 721 355 738 316 c 128,-1,19
 755 277 755 277 755 216 c 0,20,21
 755 156 755 156 739 113.5 c 128,-1,22
 723 71 723 71 694 44 c 128,-1,23
 665 17 665 17 624.5 4.5 c 128,-1,24
 584 -8 584 -8 534 -8 c 0,25,26
 523 -8 523 -8 506 -7.5 c 128,-1,27
 489 -7 489 -7 470.5 -5.5 c 128,-1,28
 452 -4 452 -4 432.5 -1 c 128,-1,29
 413 2 413 2 397 6 c 1,30,-1
 397 338 l 1,0,-1
472 67 m 1,31,32
 483 63 483 63 503 62 c 128,-1,33
 523 61 523 61 543 61 c 0,34,35
 603 61 603 61 639.5 96.5 c 128,-1,36
 676 132 676 132 676 210 c 0,37,38
 676 252 676 252 665.5 278.5 c 128,-1,39
 655 305 655 305 636.5 320 c 128,-1,40
 618 335 618 335 593.5 340.5 c 128,-1,41
 569 346 569 346 542 346 c 0,42,43
 535 346 535 346 524.5 345 c 128,-1,44
 514 344 514 344 503.5 343 c 128,-1,45
 493 342 493 342 484.5 340 c 128,-1,46
 476 338 476 338 472 337 c 1,47,-1
 472 67 l 1,31,32
EndSplineSet
Position2: "'cpsp' Capital Spacing lookup 0 subtable" dx=40 dy=0 dh=80 dv=0
EndChar

StartChar: afii10060
Encoding: 1035 1035 325
Width: 605
Flags: W
LayerCount: 2
Fore
SplineSet
261 0 m 1,0,-1
 186 0 l 1,1,-1
 186 631 l 1,2,-1
 14 631 l 1,3,-1
 14 700 l 1,4,-1
 433 700 l 1,5,-1
 433 631 l 1,6,-1
 261 631 l 1,7,-1
 261 397 l 1,8,9
 282 412 282 412 318 426 c 128,-1,10
 354 440 354 440 400 440 c 0,11,12
 435 440 435 440 463.5 430.5 c 128,-1,13
 492 421 492 421 512 398.5 c 128,-1,14
 532 376 532 376 543 338.5 c 128,-1,15
 554 301 554 301 554 245 c 2,16,-1
 554 0 l 1,17,-1
 479 0 l 1,18,-1
 479 233 l 2,19,20
 479 308 479 308 456 339.5 c 128,-1,21
 433 371 433 371 383 371 c 0,22,23
 347 371 347 371 314 358.5 c 128,-1,24
 281 346 281 346 261 326 c 1,25,-1
 261 0 l 1,0,-1
EndSplineSet
Position2: "'cpsp' Capital Spacing lookup 0 subtable" dx=40 dy=0 dh=80 dv=0
EndChar

StartChar: afii10145
Encoding: 1039 1039 328
Width: 526
Flags: W
LayerCount: 2
Fore
SplineSet
64 0 m 1,0,-1
 64 700 l 1,1,-1
 139 700 l 1,2,-1
 139 69 l 1,3,-1
 387 69 l 1,4,-1
 387 700 l 1,5,-1
 462 700 l 1,6,-1
 462 0 l 1,7,-1
 300 0 l 1,8,-1
 287 -179 l 1,9,-1
 240 -179 l 1,10,-1
 224 0 l 1,11,-1
 64 0 l 1,0,-1
EndSplineSet
Position2: "'cpsp' Capital Spacing lookup 0 subtable" dx=40 dy=0 dh=80 dv=0
EndChar

StartChar: afii10018
Encoding: 1041 1041 330
Width: 445
Flags: W
LayerCount: 2
Fore
SplineSet
64 700 m 1,0,-1
 377 700 l 1,1,-1
 377 631 l 1,2,-1
 139 631 l 1,3,-1
 139 416 l 1,4,5
 153 419 153 419 173.5 422 c 128,-1,6
 194 425 194 425 213 425 c 0,7,8
 255 425 255 425 292 415.5 c 128,-1,9
 329 406 329 406 356.5 383 c 128,-1,10
 384 360 384 360 400 320.5 c 128,-1,11
 416 281 416 281 416 221 c 256,12,13
 416 161 416 161 400.5 117.5 c 128,-1,14
 385 74 385 74 357.5 46.5 c 128,-1,15
 330 19 330 19 292 5.5 c 128,-1,16
 254 -8 254 -8 208 -8 c 0,17,18
 194 -8 194 -8 175.5 -7.5 c 128,-1,19
 157 -7 157 -7 137.5 -5.5 c 128,-1,20
 118 -4 118 -4 98.5 -1 c 128,-1,21
 79 2 79 2 64 6 c 1,22,-1
 64 700 l 1,0,-1
139 67 m 1,23,24
 150 63 150 63 172.5 62 c 128,-1,25
 195 61 195 61 215 61 c 0,26,27
 269 61 269 61 303 96 c 128,-1,28
 337 131 337 131 337 207 c 0,29,30
 337 255 337 255 326.5 284.5 c 128,-1,31
 316 314 316 314 298 330 c 128,-1,32
 280 346 280 346 255.5 351 c 128,-1,33
 231 356 231 356 203 356 c 0,34,35
 196 356 196 356 187 355 c 128,-1,36
 178 354 178 354 168.5 353 c 128,-1,37
 159 352 159 352 151 350 c 128,-1,38
 143 348 143 348 139 347 c 1,39,-1
 139 67 l 1,23,24
EndSplineSet
Position2: "'cpsp' Capital Spacing lookup 0 subtable" dx=40 dy=0 dh=80 dv=0
EndChar

StartChar: afii10020
Encoding: 1043 1043 332
Width: 357
Flags: W
LayerCount: 2
Fore
SplineSet
370 631 m 1,0,-1
 139 631 l 1,1,-1
 139 0 l 1,2,-1
 64 0 l 1,3,-1
 64 700 l 1,4,-1
 370 700 l 1,5,-1
 370 631 l 1,0,-1
EndSplineSet
Position2: "'cpsp' Capital Spacing lookup 0 subtable" dx=40 dy=0 dh=80 dv=0
EndChar

StartChar: afii10021
Encoding: 1044 1044 333
Width: 542
Flags: W
LayerCount: 2
Fore
SplineSet
521 -129 m 1,0,-1
 468 -129 l 1,1,-1
 456 0 l 1,2,-1
 68 0 l 1,3,-1
 56 -129 l 1,4,-1
 3 -129 l 1,5,-1
 3 69 l 1,6,-1
 61 69 l 1,7,8
 67 80 67 80 80.5 121 c 128,-1,9
 94 162 94 162 107.5 238.5 c 128,-1,10
 121 315 121 315 131 429.5 c 128,-1,11
 141 544 141 544 140 700 c 1,12,-1
 448 700 l 1,13,-1
 448 69 l 1,14,-1
 521 69 l 1,15,-1
 521 -129 l 1,0,-1
373 69 m 1,16,-1
 373 631 l 1,17,-1
 212 631 l 1,18,19
 207 410 207 410 186 273 c 128,-1,20
 165 136 165 136 140 69 c 1,21,-1
 373 69 l 1,16,-1
EndSplineSet
Position2: "'cpsp' Capital Spacing lookup 0 subtable" dx=40 dy=0 dh=80 dv=0
EndChar

StartChar: afii10024
Encoding: 1046 1046 335
Width: 654
Flags: W
LayerCount: 2
Fore
SplineSet
287 700 m 1,0,-1
 359 700 l 1,1,-1
 359 374 l 1,2,-1
 393 388 l 1,3,-1
 547 700 l 1,4,-1
 631 700 l 1,5,-1
 474 396 l 1,6,-1
 441 364 l 1,7,-1
 482 324 l 1,8,-1
 656 0 l 1,9,-1
 563 0 l 1,10,-1
 395 325 l 1,11,-1
 359 325 l 1,12,-1
 359 0 l 1,13,-1
 287 0 l 1,14,-1
 287 337 l 1,15,-1
 254 323 l 1,16,-1
 86 0 l 1,17,-1
 -2 0 l 1,18,-1
 170 314 l 1,19,-1
 209 351 l 1,20,-1
 172 386 l 1,21,-1
 10 700 l 1,22,-1
 98 700 l 1,23,-1
 252 386 l 1,24,-1
 287 386 l 1,25,-1
 287 700 l 1,0,-1
EndSplineSet
Position2: "'cpsp' Capital Spacing lookup 0 subtable" dx=40 dy=0 dh=80 dv=0
EndChar

StartChar: afii10025
Encoding: 1047 1047 336
Width: 434
Flags: W
LayerCount: 2
Fore
SplineSet
109 333 m 1,0,-1
 109 398 l 1,1,-1
 127 398 l 2,2,3
 142 398 142 398 164 399 c 128,-1,4
 186 400 186 400 199 403 c 0,5,6
 239 413 239 413 267.5 444.5 c 128,-1,7
 296 476 296 476 296 524 c 0,8,9
 296 590 296 590 264 616.5 c 128,-1,10
 232 643 232 643 183 643 c 0,11,12
 144 643 144 643 114 636 c 128,-1,13
 84 629 84 629 65 618 c 1,14,-1
 45 679 l 1,15,16
 63 690 63 690 104.5 701 c 128,-1,17
 146 712 146 712 198 712 c 0,18,19
 232 712 232 712 264 704 c 128,-1,20
 296 696 296 696 320.5 676.5 c 128,-1,21
 345 657 345 657 360 623.5 c 128,-1,22
 375 590 375 590 375 540 c 0,23,24
 375 489 375 489 349.5 444.5 c 128,-1,25
 324 400 324 400 271 378 c 1,26,-1
 271 374 l 1,27,28
 327 363 327 363 359.5 320.5 c 128,-1,29
 392 278 392 278 392 206 c 0,30,31
 392 148 392 148 374.5 107 c 128,-1,32
 357 66 357 66 327.5 39.5 c 128,-1,33
 298 13 298 13 259 0.5 c 128,-1,34
 220 -12 220 -12 178 -12 c 0,35,36
 125 -12 125 -12 89.5 -5 c 128,-1,37
 54 2 54 2 31 14 c 1,38,-1
 51 82 l 1,39,40
 71 71 71 71 103 64 c 128,-1,41
 135 57 135 57 181 57 c 0,42,43
 208 57 208 57 232 66.5 c 128,-1,44
 256 76 256 76 274 94 c 128,-1,45
 292 112 292 112 302.5 139.5 c 128,-1,46
 313 167 313 167 313 203 c 0,47,48
 313 268 313 268 278.5 297.5 c 128,-1,49
 244 327 244 327 186 332 c 0,50,51
 176 333 176 333 168.5 333 c 128,-1,52
 161 333 161 333 150 333 c 2,53,-1
 109 333 l 1,0,-1
EndSplineSet
Position2: "'cpsp' Capital Spacing lookup 0 subtable" dx=40 dy=0 dh=80 dv=0
EndChar

StartChar: afii10026
Encoding: 1048 1048 337
Width: 544
Flags: W
LayerCount: 2
Fore
SplineSet
405 458 m 1,0,-1
 411 550 l 1,1,-1
 408 550 l 1,2,-1
 373 456 l 1,3,-1
 114 0 l 1,4,-1
 64 0 l 1,5,-1
 64 700 l 1,6,-1
 139 700 l 1,7,-1
 139 235 l 1,8,-1
 132 145 l 1,9,-1
 136 145 l 1,10,-1
 171 239 l 1,11,-1
 431 700 l 1,12,-1
 480 700 l 1,13,-1
 480 0 l 1,14,-1
 405 0 l 1,15,-1
 405 458 l 1,0,-1
EndSplineSet
Position2: "'cpsp' Capital Spacing lookup 0 subtable" dx=40 dy=0 dh=80 dv=0
EndChar

StartChar: afii10029
Encoding: 1051 1051 340
Width: 502
Flags: W
LayerCount: 2
Fore
SplineSet
363 631 m 1,0,-1
 205 631 l 1,1,2
 197 430 197 430 184 295 c 128,-1,3
 171 160 171 160 144 87 c 0,4,5
 127 39 127 39 102 17 c 128,-1,6
 77 -5 77 -5 45 -5 c 0,7,8
 16 -5 16 -5 -4 5 c 1,9,-1
 7 74 l 1,10,11
 27 68 27 68 44 76 c 128,-1,12
 61 84 61 84 76 122 c 0,13,14
 87 149 87 149 96.5 194.5 c 128,-1,15
 106 240 106 240 113.5 310 c 128,-1,16
 121 380 121 380 126 476 c 128,-1,17
 131 572 131 572 133 700 c 1,18,-1
 438 700 l 1,19,-1
 438 0 l 1,20,-1
 363 0 l 1,21,-1
 363 631 l 1,0,-1
EndSplineSet
Position2: "'cpsp' Capital Spacing lookup 0 subtable" dx=40 dy=0 dh=80 dv=0
EndChar

StartChar: afii10033
Encoding: 1055 1055 344
Width: 526
Flags: W
LayerCount: 2
Fore
SplineSet
387 631 m 1,0,-1
 139 631 l 1,1,-1
 139 0 l 1,2,-1
 64 0 l 1,3,-1
 64 700 l 1,4,-1
 462 700 l 1,5,-1
 462 0 l 1,6,-1
 387 0 l 1,7,-1
 387 631 l 1,0,-1
EndSplineSet
Position2: "'cpsp' Capital Spacing lookup 0 subtable" dx=40 dy=0 dh=80 dv=0
EndChar

StartChar: afii10037
Encoding: 1059 1059 348
Width: 448
Flags: W
LayerCount: 2
Fore
SplineSet
228 341 m 1,0,-1
 247 252 l 1,1,-1
 252 252 l 1,2,-1
 268 344 l 1,3,-1
 372 700 l 1,4,-1
 449 700 l 1,5,-1
 306 245 l 2,6,7
 284 175 284 175 267.5 127 c 128,-1,8
 251 79 251 79 234.5 50 c 128,-1,9
 218 21 218 21 198 8 c 128,-1,10
 178 -5 178 -5 149 -5 c 0,11,12
 123 -5 123 -5 106 0 c 128,-1,13
 89 5 89 5 74 16 c 1,14,-1
 96 80 l 1,15,16
 112 69 112 69 125 66.5 c 128,-1,17
 138 64 138 64 149 64 c 0,18,19
 171 64 171 64 186 94.5 c 128,-1,20
 201 125 201 125 212 181 c 1,21,-1
 3 700 l 1,22,-1
 91 700 l 1,23,-1
 228 341 l 1,0,-1
EndSplineSet
Position2: "'cpsp' Capital Spacing lookup 0 subtable" dx=40 dy=0 dh=80 dv=0
EndChar

StartChar: afii10038
Encoding: 1060 1060 349
Width: 633
Flags: W
LayerCount: 2
Fore
SplineSet
279 78 m 1,0,1
 265 75 265 75 246 74 c 128,-1,2
 227 73 227 73 210 73 c 0,3,4
 171 73 171 73 138.5 88 c 128,-1,5
 106 103 106 103 82 136.5 c 128,-1,6
 58 170 58 170 44.5 222.5 c 128,-1,7
 31 275 31 275 31 350 c 0,8,9
 31 491 31 491 83.5 564.5 c 128,-1,10
 136 638 136 638 226 638 c 0,11,12
 237 638 237 638 253.5 637 c 128,-1,13
 270 636 270 636 279 634 c 1,14,-1
 279 720 l 1,15,-1
 354 720 l 1,16,-1
 354 631 l 1,17,18
 368 636 368 636 389 637 c 128,-1,19
 410 638 410 638 423 638 c 0,20,21
 462 638 462 638 495 621.5 c 128,-1,22
 528 605 528 605 552 571 c 128,-1,23
 576 537 576 537 589 484.5 c 128,-1,24
 602 432 602 432 602 360 c 0,25,26
 602 286 602 286 587 232 c 128,-1,27
 572 178 572 178 546 143 c 128,-1,28
 520 108 520 108 484.5 90.5 c 128,-1,29
 449 73 449 73 409 73 c 0,30,31
 400 73 400 73 382 74.5 c 128,-1,32
 364 76 364 76 354 80 c 1,33,-1
 354 -20 l 1,34,-1
 279 -20 l 1,35,-1
 279 78 l 1,0,1
410 573 m 0,36,37
 399 573 399 573 381 572 c 128,-1,38
 363 571 363 571 352 566 c 1,39,-1
 352 141 l 1,40,41
 360 139 360 139 374 138.5 c 128,-1,42
 388 138 388 138 399 138 c 0,43,44
 455 138 455 138 490 192.5 c 128,-1,45
 525 247 525 247 525 360 c 0,46,47
 525 408 525 408 517.5 447 c 128,-1,48
 510 486 510 486 495.5 514 c 128,-1,49
 481 542 481 542 459.5 557.5 c 128,-1,50
 438 573 438 573 410 573 c 0,36,37
226 138 m 0,51,52
 235 138 235 138 252.5 138.5 c 128,-1,53
 270 139 270 139 281 144 c 1,54,-1
 281 569 l 1,55,56
 271 571 271 571 257 572 c 128,-1,57
 243 573 243 573 232 573 c 0,58,59
 177 573 177 573 142.5 518 c 128,-1,60
 108 463 108 463 108 350 c 0,61,62
 108 251 108 251 138.5 194.5 c 128,-1,63
 169 138 169 138 226 138 c 0,51,52
EndSplineSet
Position2: "'cpsp' Capital Spacing lookup 0 subtable" dx=40 dy=0 dh=80 dv=0
EndChar

StartChar: afii10040
Encoding: 1062 1062 351
Width: 551
Flags: W
LayerCount: 2
Fore
SplineSet
530 -129 m 1,0,-1
 478 -129 l 1,1,-1
 465 0 l 1,2,-1
 64 0 l 1,3,-1
 64 700 l 1,4,-1
 139 700 l 1,5,-1
 139 69 l 1,6,-1
 381 69 l 1,7,-1
 381 700 l 1,8,-1
 456 700 l 1,9,-1
 456 69 l 1,10,-1
 530 69 l 1,11,-1
 530 -129 l 1,0,-1
EndSplineSet
Position2: "'cpsp' Capital Spacing lookup 0 subtable" dx=40 dy=0 dh=80 dv=0
EndChar

StartChar: afii10041
Encoding: 1063 1063 352
Width: 487
Flags: W
LayerCount: 2
Fore
SplineSet
130 700 m 1,0,-1
 130 456 l 2,1,2
 130 383 130 383 155 354.5 c 128,-1,3
 180 326 180 326 228 326 c 0,4,5
 263 326 263 326 295.5 339 c 128,-1,6
 328 352 328 352 348 373 c 1,7,-1
 348 700 l 1,8,-1
 423 700 l 1,9,-1
 423 0 l 1,10,-1
 348 0 l 1,11,-1
 348 300 l 1,12,13
 328 285 328 285 292 271 c 128,-1,14
 256 257 256 257 212 257 c 0,15,16
 180 257 180 257 151.5 265 c 128,-1,17
 123 273 123 273 101.5 293.5 c 128,-1,18
 80 314 80 314 67.5 349 c 128,-1,19
 55 384 55 384 55 439 c 2,20,-1
 55 700 l 1,21,-1
 130 700 l 1,0,-1
EndSplineSet
Position2: "'cpsp' Capital Spacing lookup 0 subtable" dx=40 dy=0 dh=80 dv=0
EndChar

StartChar: afii10042
Encoding: 1064 1064 353
Width: 699
Flags: W
LayerCount: 2
Fore
SplineSet
64 0 m 1,0,-1
 64 700 l 1,1,-1
 139 700 l 1,2,-1
 139 69 l 1,3,-1
 312 69 l 1,4,-1
 312 700 l 1,5,-1
 387 700 l 1,6,-1
 387 69 l 1,7,-1
 560 69 l 1,8,-1
 560 700 l 1,9,-1
 635 700 l 1,10,-1
 635 0 l 1,11,-1
 64 0 l 1,0,-1
EndSplineSet
Position2: "'cpsp' Capital Spacing lookup 0 subtable" dx=40 dy=0 dh=80 dv=0
EndChar

StartChar: afii10043
Encoding: 1065 1065 354
Width: 731
Flags: W
LayerCount: 2
Fore
SplineSet
64 0 m 1,0,-1
 64 700 l 1,1,-1
 139 700 l 1,2,-1
 139 69 l 1,3,-1
 312 69 l 1,4,-1
 312 700 l 1,5,-1
 387 700 l 1,6,-1
 387 69 l 1,7,-1
 560 69 l 1,8,-1
 560 700 l 1,9,-1
 635 700 l 1,10,-1
 635 69 l 1,11,-1
 710 69 l 1,12,-1
 710 -129 l 1,13,-1
 657 -129 l 1,14,-1
 645 0 l 1,15,-1
 64 0 l 1,0,-1
EndSplineSet
Position2: "'cpsp' Capital Spacing lookup 0 subtable" dx=40 dy=0 dh=80 dv=0
EndChar

StartChar: afii10044
Encoding: 1066 1066 355
Width: 513
Flags: W
LayerCount: 2
Fore
SplineSet
128 631 m 1,0,-1
 -1 631 l 1,1,-1
 -1 700 l 1,2,-1
 203 700 l 1,3,-1
 203 428 l 1,4,5
 209 429 209 429 219 431 c 128,-1,6
 229 433 229 433 240.5 434 c 128,-1,7
 252 435 252 435 264 436 c 128,-1,8
 276 437 276 437 285 437 c 0,9,10
 324 437 324 437 360.5 427.5 c 128,-1,11
 397 418 397 418 425 394 c 128,-1,12
 453 370 453 370 470 329.5 c 128,-1,13
 487 289 487 289 487 226 c 0,14,15
 487 164 487 164 471 120 c 128,-1,16
 455 76 455 76 426 47.5 c 128,-1,17
 397 19 397 19 356 5.5 c 128,-1,18
 315 -8 315 -8 265 -8 c 0,19,20
 254 -8 254 -8 237 -7.5 c 128,-1,21
 220 -7 220 -7 201.5 -5.5 c 128,-1,22
 183 -4 183 -4 163.5 -1.5 c 128,-1,23
 144 1 144 1 128 6 c 1,24,-1
 128 631 l 1,0,-1
273 61 m 0,25,26
 333 61 333 61 370.5 99 c 128,-1,27
 408 137 408 137 408 220 c 0,28,29
 408 264 408 264 397 293 c 128,-1,30
 386 322 386 322 367.5 338.5 c 128,-1,31
 349 355 349 355 324 361.5 c 128,-1,32
 299 368 299 368 272 368 c 0,33,34
 265 368 265 368 254.5 367 c 128,-1,35
 244 366 244 366 234 365 c 128,-1,36
 224 364 224 364 215.5 362 c 128,-1,37
 207 360 207 360 203 359 c 1,38,-1
 203 67 l 1,39,40
 214 64 214 64 234 62.5 c 128,-1,41
 254 61 254 61 273 61 c 0,25,26
EndSplineSet
Position2: "'cpsp' Capital Spacing lookup 0 subtable" dx=40 dy=0 dh=80 dv=0
EndChar

StartChar: afii10045
Encoding: 1067 1067 356
Width: 622
Flags: W
LayerCount: 2
Fore
SplineSet
483 700 m 1,0,-1
 558 700 l 1,1,-1
 558 0 l 1,2,-1
 483 0 l 1,3,-1
 483 700 l 1,0,-1
64 700 m 1,4,-1
 139 700 l 1,5,-1
 139 428 l 1,6,7
 148 430 148 430 169 433.5 c 128,-1,8
 190 437 190 437 210 437 c 0,9,10
 249 437 249 437 284.5 428 c 128,-1,11
 320 419 320 419 347 395.5 c 128,-1,12
 374 372 374 372 390 331 c 128,-1,13
 406 290 406 290 406 227 c 0,14,15
 406 105 406 105 349.5 48.5 c 128,-1,16
 293 -8 293 -8 192 -8 c 0,17,18
 169 -8 169 -8 132.5 -5.5 c 128,-1,19
 96 -3 96 -3 64 6 c 1,20,-1
 64 700 l 1,4,-1
199 61 m 0,21,22
 259 61 259 61 293 100 c 128,-1,23
 327 139 327 139 327 220 c 0,24,25
 327 264 327 264 317 292.5 c 128,-1,26
 307 321 307 321 289.5 338 c 128,-1,27
 272 355 272 355 248 361.5 c 128,-1,28
 224 368 224 368 196 368 c 0,29,30
 182 368 182 368 164.5 365 c 128,-1,31
 147 362 147 362 139 359 c 1,32,-1
 139 68 l 1,33,34
 159 61 159 61 199 61 c 0,21,22
EndSplineSet
Position2: "'cpsp' Capital Spacing lookup 0 subtable" dx=40 dy=0 dh=80 dv=0
EndChar

StartChar: afii10046
Encoding: 1068 1068 357
Width: 449
Flags: W
LayerCount: 2
Fore
SplineSet
64 700 m 1,0,-1
 139 700 l 1,1,-1
 139 428 l 1,2,3
 151 431 151 431 176.5 434 c 128,-1,4
 202 437 202 437 221 437 c 0,5,6
 261 437 261 437 297.5 427.5 c 128,-1,7
 334 418 334 418 362 394 c 128,-1,8
 390 370 390 370 406.5 329.5 c 128,-1,9
 423 289 423 289 423 227 c 0,10,11
 423 166 423 166 407.5 122 c 128,-1,12
 392 78 392 78 363 49 c 128,-1,13
 334 20 334 20 293 6 c 128,-1,14
 252 -8 252 -8 201 -8 c 0,15,16
 190 -8 190 -8 173 -7.5 c 128,-1,17
 156 -7 156 -7 137.5 -5.5 c 128,-1,18
 119 -4 119 -4 99.5 -1.5 c 128,-1,19
 80 1 80 1 64 6 c 1,20,-1
 64 700 l 1,0,-1
209 61 m 0,21,22
 270 61 270 61 307 100 c 128,-1,23
 344 139 344 139 344 220 c 0,24,25
 344 263 344 263 333.5 291.5 c 128,-1,26
 323 320 323 320 304.5 337 c 128,-1,27
 286 354 286 354 261 361 c 128,-1,28
 236 368 236 368 208 368 c 0,29,30
 201 368 201 368 191 367 c 128,-1,31
 181 366 181 366 170.5 365 c 128,-1,32
 160 364 160 364 151.5 362 c 128,-1,33
 143 360 143 360 139 359 c 1,34,-1
 139 67 l 1,35,36
 151 64 151 64 170.5 62.5 c 128,-1,37
 190 61 190 61 209 61 c 0,21,22
EndSplineSet
Position2: "'cpsp' Capital Spacing lookup 0 subtable" dx=40 dy=0 dh=80 dv=0
EndChar

StartChar: afii10047
Encoding: 1069 1069 358
Width: 465
Flags: W
LayerCount: 2
Fore
SplineSet
118 390 m 1,0,-1
 347 390 l 1,1,2
 342 517 342 517 293.5 580 c 128,-1,3
 245 643 245 643 169 643 c 0,4,5
 131 643 131 643 102 634 c 128,-1,6
 73 625 73 625 52 612 c 1,7,-1
 30 674 l 1,8,9
 58 692 58 692 96.5 702 c 128,-1,10
 135 712 135 712 177 712 c 0,11,12
 232 712 232 712 277 692.5 c 128,-1,13
 322 673 322 673 354 630 c 128,-1,14
 386 587 386 587 404 518 c 128,-1,15
 422 449 422 449 422 351 c 0,16,17
 422 252 422 252 402 182.5 c 128,-1,18
 382 113 382 113 347 70 c 128,-1,19
 312 27 312 27 265 7.5 c 128,-1,20
 218 -12 218 -12 163 -12 c 0,21,22
 122 -12 122 -12 88.5 -5 c 128,-1,23
 55 2 55 2 32 13 c 1,24,-1
 53 81 l 1,25,26
 72 71 72 71 103 64 c 128,-1,27
 134 57 134 57 167 57 c 0,28,29
 201 57 201 57 232.5 71.5 c 128,-1,30
 264 86 264 86 289 117.5 c 128,-1,31
 314 149 314 149 329.5 199.5 c 128,-1,32
 345 250 345 250 347 323 c 1,33,-1
 118 323 l 1,34,-1
 118 390 l 1,0,-1
EndSplineSet
Position2: "'cpsp' Capital Spacing lookup 0 subtable" dx=40 dy=0 dh=80 dv=0
EndChar

StartChar: afii10048
Encoding: 1070 1070 359
Width: 719
Flags: W
LayerCount: 2
Fore
SplineSet
139 392 m 1,0,-1
 234 392 l 1,1,2
 239 547 239 547 293 629.5 c 128,-1,3
 347 712 347 712 456 712 c 0,4,5
 517 712 517 712 559.5 686.5 c 128,-1,6
 602 661 602 661 627.5 614 c 128,-1,7
 653 567 653 567 664.5 500 c 128,-1,8
 676 433 676 433 676 350 c 0,9,10
 676 173 676 173 623.5 80.5 c 128,-1,11
 571 -12 571 -12 455 -12 c 0,12,13
 396 -12 396 -12 355 11.5 c 128,-1,14
 314 35 314 35 287 79 c 128,-1,15
 260 123 260 123 247 184.5 c 128,-1,16
 234 246 234 246 233 323 c 1,17,-1
 139 323 l 1,18,-1
 139 0 l 1,19,-1
 64 0 l 1,20,-1
 64 700 l 1,21,-1
 139 700 l 1,22,-1
 139 392 l 1,0,-1
310 350 m 0,23,24
 310 291 310 291 317.5 238 c 128,-1,25
 325 185 325 185 342 144.5 c 128,-1,26
 359 104 359 104 387 80.5 c 128,-1,27
 415 57 415 57 456 57 c 0,28,29
 531 57 531 57 564 128.5 c 128,-1,30
 597 200 597 200 597 350 c 0,31,32
 597 408 597 408 590.5 461.5 c 128,-1,33
 584 515 584 515 568 555 c 128,-1,34
 552 595 552 595 525 619 c 128,-1,35
 498 643 498 643 456 643 c 0,36,37
 381 643 381 643 345.5 571 c 128,-1,38
 310 499 310 499 310 350 c 0,23,24
EndSplineSet
Position2: "'cpsp' Capital Spacing lookup 0 subtable" dx=40 dy=0 dh=80 dv=0
EndChar

StartChar: afii10049
Encoding: 1071 1071 360
Width: 461
Flags: W
LayerCount: 2
Fore
SplineSet
397 0 m 1,0,-1
 322 0 l 1,1,-1
 322 307 l 1,2,-1
 242 286 l 1,3,-1
 106 0 l 1,4,-1
 19 0 l 1,5,-1
 142 253 l 1,6,-1
 190 295 l 1,7,8
 132 310 132 310 95.5 359.5 c 128,-1,9
 59 409 59 409 59 496 c 0,10,11
 59 558 59 558 76 599 c 128,-1,12
 93 640 93 640 122 664.5 c 128,-1,13
 151 689 151 689 190 698.5 c 128,-1,14
 229 708 229 708 273 708 c 0,15,16
 300 708 300 708 333.5 705 c 128,-1,17
 367 702 367 702 397 693 c 1,18,-1
 397 0 l 1,0,-1
267 639 m 0,19,20
 241 639 241 639 218 632.5 c 128,-1,21
 195 626 195 626 177 609.5 c 128,-1,22
 159 593 159 593 148.5 565.5 c 128,-1,23
 138 538 138 538 138 496 c 0,24,25
 138 419 138 419 175 385 c 128,-1,26
 212 351 212 351 268 351 c 2,27,-1
 322 351 l 1,28,-1
 322 633 l 1,29,30
 311 637 311 637 298 638 c 128,-1,31
 285 639 285 639 267 639 c 0,19,20
EndSplineSet
Position2: "'cpsp' Capital Spacing lookup 0 subtable" dx=40 dy=0 dh=80 dv=0
EndChar

StartChar: afii10066
Encoding: 1073 1073 362
Width: 432
Flags: W
LayerCount: 2
Fore
SplineSet
102 415 m 1,0,1
 128 462 128 462 160 480 c 128,-1,2
 192 498 192 498 240 498 c 0,3,4
 314 498 314 498 354.5 440 c 128,-1,5
 395 382 395 382 395 261 c 0,6,7
 395 122 395 122 348 55 c 128,-1,8
 301 -12 301 -12 217 -12 c 0,9,10
 172 -12 172 -12 138.5 5.5 c 128,-1,11
 105 23 105 23 82.5 60.5 c 128,-1,12
 60 98 60 98 48.5 158 c 128,-1,13
 37 218 37 218 37 303 c 0,14,15
 37 389 37 389 44.5 450 c 128,-1,16
 52 511 52 511 65.5 553 c 128,-1,17
 79 595 79 595 98 620 c 128,-1,18
 117 645 117 645 141 659.5 c 128,-1,19
 165 674 165 674 193.5 680 c 128,-1,20
 222 686 222 686 254 690 c 0,21,22
 296 695 296 695 321 702 c 128,-1,23
 346 709 346 709 361 726 c 1,24,-1
 366 655 l 1,25,26
 358 647 358 647 348 641.5 c 128,-1,27
 338 636 338 636 324 632 c 128,-1,28
 310 628 310 628 291.5 625.5 c 128,-1,29
 273 623 273 623 248 621 c 0,30,31
 214 618 214 618 188.5 608 c 128,-1,32
 163 598 163 598 144.5 575.5 c 128,-1,33
 126 553 126 553 115 514 c 128,-1,34
 104 475 104 475 100 415 c 1,35,-1
 102 415 l 1,0,1
112 249 m 0,36,37
 112 208 112 208 118 172.5 c 128,-1,38
 124 137 124 137 137 110.5 c 128,-1,39
 150 84 150 84 169.5 68.5 c 128,-1,40
 189 53 189 53 216 53 c 0,41,42
 268 53 268 53 294 102 c 128,-1,43
 320 151 320 151 320 254 c 0,44,45
 320 336 320 336 298 384.5 c 128,-1,46
 276 433 276 433 226 433 c 0,47,48
 167 433 167 433 139.5 385 c 128,-1,49
 112 337 112 337 112 249 c 0,36,37
EndSplineSet
EndChar

StartChar: afii10067
Encoding: 1074 1074 363
Width: 403
Flags: W
LayerCount: 2
Fore
SplineSet
59 499 m 1,0,1
 87 501 87 501 120 504 c 128,-1,2
 153 507 153 507 199 507 c 0,3,4
 280 507 280 507 315 476.5 c 128,-1,5
 350 446 350 446 350 384 c 0,6,7
 350 349 350 349 333.5 316 c 128,-1,8
 317 283 317 283 278 266 c 1,9,-1
 278 262 l 1,10,11
 326 251 326 251 346 221.5 c 128,-1,12
 366 192 366 192 366 141 c 0,13,14
 366 63 366 63 320 28 c 128,-1,15
 274 -7 274 -7 183 -7 c 0,16,17
 149 -7 149 -7 118 -4.5 c 128,-1,18
 87 -2 87 -2 59 1 c 1,19,-1
 59 499 l 1,0,1
131 62 m 1,20,21
 146 60 146 60 159.5 59 c 128,-1,22
 173 58 173 58 193 58 c 0,23,24
 244 58 244 58 267.5 79 c 128,-1,25
 291 100 291 100 291 147 c 0,26,27
 291 183 291 183 271 206.5 c 128,-1,28
 251 230 251 230 198 230 c 2,29,-1
 131 230 l 1,30,-1
 131 62 l 1,20,21
205 287 m 2,31,32
 219 287 219 287 232 293.5 c 128,-1,33
 245 300 245 300 255.5 311 c 128,-1,34
 266 322 266 322 272 336.5 c 128,-1,35
 278 351 278 351 278 367 c 0,36,37
 278 406 278 406 259.5 424 c 128,-1,38
 241 442 241 442 196 442 c 0,39,40
 172 442 172 442 158 441 c 128,-1,41
 144 440 144 440 131 439 c 1,42,-1
 131 287 l 1,43,-1
 205 287 l 2,31,32
EndSplineSet
EndChar

StartChar: afii10068
Encoding: 1075 1075 364
Width: 296
Flags: W
LayerCount: 2
Fore
SplineSet
297 435 m 1,0,-1
 131 435 l 1,1,-1
 131 0 l 1,2,-1
 59 0 l 1,3,-1
 59 500 l 1,4,-1
 297 500 l 1,5,-1
 297 435 l 1,0,-1
EndSplineSet
EndChar

StartChar: afii10069
Encoding: 1076 1076 365
Width: 439
Flags: W
LayerCount: 2
Fore
SplineSet
423 -127 m 1,0,-1
 373 -127 l 1,1,-1
 361 0 l 1,2,-1
 65 0 l 1,3,-1
 52 -127 l 1,4,-1
 3 -127 l 1,5,-1
 3 65 l 1,6,-1
 50 65 l 1,7,8
 56 76 56 76 66.5 105.5 c 128,-1,9
 77 135 77 135 87 187.5 c 128,-1,10
 97 240 97 240 104.5 317 c 128,-1,11
 112 394 112 394 113 500 c 1,12,-1
 364 500 l 1,13,-1
 364 65 l 1,14,-1
 423 65 l 1,15,-1
 423 -127 l 1,0,-1
292 65 m 1,16,-1
 292 435 l 1,17,-1
 179 435 l 1,18,19
 177 392 177 392 173.5 341 c 128,-1,20
 170 290 170 290 163 239.5 c 128,-1,21
 156 189 156 189 146 143 c 128,-1,22
 136 97 136 97 123 65 c 1,23,-1
 292 65 l 1,16,-1
EndSplineSet
EndChar

StartChar: afii10072
Encoding: 1078 1078 367
Width: 537
Flags: W
LayerCount: 2
Fore
SplineSet
193 221 m 1,0,-1
 81 0 l 1,1,-1
 0 0 l 1,2,-1
 123 229 l 1,3,-1
 150 259 l 1,4,-1
 109 297 l 1,5,-1
 9 500 l 1,6,-1
 85 500 l 1,7,-1
 189 284 l 1,8,-1
 230 284 l 1,9,-1
 230 500 l 1,10,-1
 302 500 l 1,11,-1
 302 274 l 1,12,-1
 339 288 l 1,13,-1
 443 500 l 1,14,-1
 518 500 l 1,15,-1
 413 297 l 1,16,-1
 381 265 l 1,17,-1
 422 225 l 1,18,-1
 537 0 l 1,19,-1
 454 0 l 1,20,-1
 342 225 l 1,21,-1
 302 225 l 1,22,-1
 302 0 l 1,23,-1
 230 0 l 1,24,-1
 230 235 l 1,25,-1
 193 221 l 1,0,-1
EndSplineSet
EndChar

StartChar: afii10073
Encoding: 1079 1079 368
Width: 351
Flags: W
LayerCount: 2
Fore
SplineSet
97 224 m 1,0,-1
 97 286 l 1,1,-1
 152 286 l 2,2,3
 166 286 166 286 179.5 292.5 c 128,-1,4
 193 299 193 299 203.5 310 c 128,-1,5
 214 321 214 321 220.5 335.5 c 128,-1,6
 227 350 227 350 227 366 c 0,7,8
 227 405 227 405 206.5 423 c 128,-1,9
 186 441 186 441 144 441 c 0,10,11
 113 441 113 441 87.5 432 c 128,-1,12
 62 423 62 423 48 413 c 1,13,-1
 27 470 l 1,14,15
 52 486 52 486 85.5 496 c 128,-1,16
 119 506 119 506 162 506 c 0,17,18
 228 506 228 506 263.5 475.5 c 128,-1,19
 299 445 299 445 299 384 c 0,20,21
 299 346 299 346 280 314 c 128,-1,22
 261 282 261 282 228 268 c 1,23,-1
 228 264 l 1,24,25
 274 253 274 253 294 222 c 128,-1,26
 314 191 314 191 314 140 c 0,27,28
 314 77 314 77 272 34.5 c 128,-1,29
 230 -8 230 -8 143 -8 c 0,30,31
 103 -8 103 -8 75.5 -0.5 c 128,-1,32
 48 7 48 7 26 19 c 1,33,-1
 45 81 l 1,34,35
 64 69 64 69 90 63 c 128,-1,36
 116 57 116 57 144 57 c 0,37,38
 193 57 193 57 217.5 80 c 128,-1,39
 242 103 242 103 242 146 c 0,40,41
 242 182 242 182 219 203 c 128,-1,42
 196 224 196 224 142 224 c 2,43,-1
 97 224 l 1,0,-1
EndSplineSet
EndChar

StartChar: afii10074
Encoding: 1080 1080 369
Width: 439
Flags: W
LayerCount: 2
Fore
SplineSet
308 288 m 1,0,-1
 314 364 l 1,1,-1
 310 364 l 1,2,-1
 275 280 l 1,3,-1
 106 0 l 1,4,-1
 59 0 l 1,5,-1
 59 500 l 1,6,-1
 131 500 l 1,7,-1
 131 203 l 1,8,-1
 125 130 l 1,9,-1
 129 130 l 1,10,-1
 162 212 l 1,11,-1
 333 500 l 1,12,-1
 380 500 l 1,13,-1
 380 0 l 1,14,-1
 308 0 l 1,15,-1
 308 288 l 1,0,-1
EndSplineSet
EndChar

StartChar: afii10076
Encoding: 1082 1082 371
Width: 387
Flags: W
LayerCount: 2
Fore
SplineSet
168 225 m 1,0,-1
 131 225 l 1,1,-1
 131 0 l 1,2,-1
 59 0 l 1,3,-1
 59 500 l 1,4,-1
 131 500 l 1,5,-1
 131 274 l 1,6,-1
 165 288 l 1,7,-1
 287 500 l 1,8,-1
 364 500 l 1,9,-1
 245 299 l 1,10,-1
 210 266 l 1,11,-1
 253 226 l 1,12,-1
 381 0 l 1,13,-1
 295 0 l 1,14,-1
 168 225 l 1,0,-1
EndSplineSet
EndChar

StartChar: afii10077
Encoding: 1083 1083 372
Width: 407
Flags: W
LayerCount: 2
Fore
SplineSet
276 435 m 1,0,-1
 167 435 l 1,1,2
 164 350 164 350 159 270.5 c 128,-1,3
 154 191 154 191 141.5 130 c 128,-1,4
 129 69 129 69 106 32.5 c 128,-1,5
 83 -4 83 -4 45 -4 c 0,6,7
 28 -4 28 -4 16 -2 c 128,-1,8
 4 0 4 0 -6 5 c 1,9,-1
 5 68 l 1,10,11
 26 62 26 62 42.5 70.5 c 128,-1,12
 59 79 59 79 71 122.5 c 128,-1,13
 83 166 83 166 90.5 255.5 c 128,-1,14
 98 345 98 345 101 500 c 1,15,-1
 348 500 l 1,16,-1
 348 0 l 1,17,-1
 276 0 l 1,18,-1
 276 435 l 1,0,-1
EndSplineSet
EndChar

StartChar: afii10078
Encoding: 1084 1084 373
Width: 522
Flags: W
LayerCount: 2
Fore
SplineSet
391 297 m 1,0,-1
 398 392 l 1,1,-1
 394 392 l 1,2,-1
 364 307 l 1,3,-1
 271 115 l 1,4,-1
 245 115 l 1,5,-1
 148 307 l 1,6,-1
 121 392 l 1,7,-1
 116 392 l 1,8,-1
 124 298 l 1,9,-1
 124 0 l 1,10,-1
 59 0 l 1,11,-1
 59 500 l 1,12,-1
 131 500 l 1,13,-1
 240 283 l 1,14,-1
 262 218 l 1,15,-1
 264 218 l 1,16,-1
 288 285 l 1,17,-1
 389 500 l 1,18,-1
 463 500 l 1,19,-1
 463 0 l 1,20,-1
 391 0 l 1,21,-1
 391 297 l 1,0,-1
EndSplineSet
EndChar

StartChar: afii10079
Encoding: 1085 1085 374
Width: 434
Flags: W
LayerCount: 2
Fore
SplineSet
304 223 m 1,0,-1
 131 223 l 1,1,-1
 131 0 l 1,2,-1
 59 0 l 1,3,-1
 59 500 l 1,4,-1
 131 500 l 1,5,-1
 131 288 l 1,6,-1
 304 288 l 1,7,-1
 304 500 l 1,8,-1
 376 500 l 1,9,-1
 376 0 l 1,10,-1
 304 0 l 1,11,-1
 304 223 l 1,0,-1
EndSplineSet
EndChar

StartChar: afii10081
Encoding: 1087 1087 376
Width: 430
Flags: W
LayerCount: 2
Fore
SplineSet
299 435 m 1,0,-1
 131 435 l 1,1,-1
 131 0 l 1,2,-1
 59 0 l 1,3,-1
 59 500 l 1,4,-1
 371 500 l 1,5,-1
 371 0 l 1,6,-1
 299 0 l 1,7,-1
 299 435 l 1,0,-1
EndSplineSet
EndChar

StartChar: afii10084
Encoding: 1090 1090 379
Width: 320
Flags: W
LayerCount: 2
Fore
SplineSet
319 435 m 1,0,-1
 196 435 l 1,1,-1
 196 0 l 1,2,-1
 124 0 l 1,3,-1
 124 435 l 1,4,-1
 1 435 l 1,5,-1
 1 500 l 1,6,-1
 319 500 l 1,7,-1
 319 435 l 1,0,-1
EndSplineSet
EndChar

StartChar: afii10086
Encoding: 1092 1092 381
Width: 550
Flags: W
LayerCount: 2
Fore
SplineSet
240 -4 m 1,0,1
 226 -10 226 -10 211.5 -11 c 128,-1,2
 197 -12 197 -12 185 -12 c 0,3,4
 111 -12 111 -12 72 50.5 c 128,-1,5
 33 113 33 113 33 250 c 0,6,7
 33 383 33 383 76.5 445.5 c 128,-1,8
 120 508 120 508 201 508 c 0,9,10
 224 508 224 508 240 504 c 1,11,-1
 240 700 l 1,12,-1
 310 700 l 1,13,-1
 310 503 l 1,14,15
 324 506 324 506 335.5 507 c 128,-1,16
 347 508 347 508 357 508 c 0,17,18
 397 508 397 508 427 495 c 128,-1,19
 457 482 457 482 477 453 c 128,-1,20
 497 424 497 424 507 376.5 c 128,-1,21
 517 329 517 329 517 260 c 0,22,23
 517 125 517 125 474.5 56.5 c 128,-1,24
 432 -12 432 -12 354 -12 c 0,25,26
 346 -12 346 -12 332 -10.5 c 128,-1,27
 318 -9 318 -9 310 -5 c 1,28,-1
 310 -200 l 1,29,-1
 240 -200 l 1,30,-1
 240 -4 l 1,0,1
343 446 m 0,31,32
 333 446 333 446 326 445.5 c 128,-1,33
 319 445 319 445 308 441 c 1,34,-1
 308 53 l 1,35,36
 316 51 316 51 325.5 50.5 c 128,-1,37
 335 50 335 50 347 50 c 0,38,39
 445 50 445 50 445 260 c 0,40,41
 445 352 445 352 422.5 399 c 128,-1,42
 400 446 400 446 343 446 c 0,31,32
203 50 m 0,43,44
 213 50 213 50 222 51 c 128,-1,45
 231 52 231 52 242 55 c 1,46,-1
 242 442 l 1,47,48
 225 446 225 446 205 446 c 0,49,50
 158 446 158 446 131.5 400.5 c 128,-1,51
 105 355 105 355 105 250 c 0,52,53
 105 158 105 158 128.5 104 c 128,-1,54
 152 50 152 50 203 50 c 0,43,44
EndSplineSet
EndChar

StartChar: afii10088
Encoding: 1094 1094 383
Width: 442
Flags: W
LayerCount: 2
Fore
SplineSet
426 -127 m 1,0,-1
 376 -127 l 1,1,-1
 364 0 l 1,2,-1
 59 0 l 1,3,-1
 59 500 l 1,4,-1
 131 500 l 1,5,-1
 131 65 l 1,6,-1
 296 65 l 1,7,-1
 296 500 l 1,8,-1
 368 500 l 1,9,-1
 368 65 l 1,10,-1
 426 65 l 1,11,-1
 426 -127 l 1,0,-1
EndSplineSet
EndChar

StartChar: afii10089
Encoding: 1095 1095 384
Width: 396
Flags: W
LayerCount: 2
Fore
SplineSet
108 500 m 1,0,-1
 108 354 l 2,1,2
 108 329 108 329 110.5 309 c 128,-1,3
 113 289 113 289 120 274.5 c 128,-1,4
 127 260 127 260 140 252.5 c 128,-1,5
 153 245 153 245 174 245 c 0,6,7
 209 245 209 245 231 254 c 128,-1,8
 253 263 253 263 265 274 c 1,9,-1
 265 500 l 1,10,-1
 337 500 l 1,11,-1
 337 0 l 1,12,-1
 265 0 l 1,13,-1
 265 210 l 1,14,15
 253 201 253 201 227.5 190.5 c 128,-1,16
 202 180 202 180 159 180 c 0,17,18
 130 180 130 180 107 187.5 c 128,-1,19
 84 195 84 195 68.5 212 c 128,-1,20
 53 229 53 229 44.5 258 c 128,-1,21
 36 287 36 287 36 331 c 2,22,-1
 36 500 l 1,23,-1
 108 500 l 1,0,-1
EndSplineSet
EndChar

StartChar: afii10090
Encoding: 1096 1096 385
Width: 594
Flags: W
LayerCount: 2
Fore
SplineSet
59 0 m 1,0,-1
 59 500 l 1,1,-1
 131 500 l 1,2,-1
 131 65 l 1,3,-1
 261 65 l 1,4,-1
 261 500 l 1,5,-1
 333 500 l 1,6,-1
 333 65 l 1,7,-1
 463 65 l 1,8,-1
 463 500 l 1,9,-1
 535 500 l 1,10,-1
 535 0 l 1,11,-1
 59 0 l 1,0,-1
EndSplineSet
EndChar

StartChar: afii10091
Encoding: 1097 1097 386
Width: 609
Flags: W
LayerCount: 2
Fore
SplineSet
593 -127 m 1,0,-1
 543 -127 l 1,1,-1
 531 0 l 1,2,-1
 59 0 l 1,3,-1
 59 500 l 1,4,-1
 131 500 l 1,5,-1
 131 65 l 1,6,-1
 261 65 l 1,7,-1
 261 500 l 1,8,-1
 333 500 l 1,9,-1
 333 65 l 1,10,-1
 463 65 l 1,11,-1
 463 500 l 1,12,-1
 535 500 l 1,13,-1
 535 65 l 1,14,-1
 593 65 l 1,15,-1
 593 -127 l 1,0,-1
EndSplineSet
EndChar

StartChar: afii10092
Encoding: 1098 1098 387
Width: 407
Flags: W
LayerCount: 2
Fore
SplineSet
160 65 m 1,0,1
 174 62 174 62 188.5 60.5 c 128,-1,2
 203 59 203 59 215 59 c 0,3,4
 264 59 264 59 286.5 83.5 c 128,-1,5
 309 108 309 108 309 158 c 0,6,7
 309 203 309 203 287 228.5 c 128,-1,8
 265 254 265 254 217 254 c 0,9,10
 204 254 204 254 189 252.5 c 128,-1,11
 174 251 174 251 160 247 c 1,12,-1
 160 65 l 1,0,1
160 309 m 1,13,14
 179 313 179 313 197.5 314.5 c 128,-1,15
 216 316 216 316 232 316 c 0,16,17
 274 316 274 316 303 304.5 c 128,-1,18
 332 293 332 293 350 273 c 128,-1,19
 368 253 368 253 376 225.5 c 128,-1,20
 384 198 384 198 384 167 c 0,21,22
 384 76 384 76 340.5 35 c 128,-1,23
 297 -6 297 -6 200 -6 c 0,24,25
 143 -6 143 -6 88 0 c 1,26,-1
 88 435 l 1,27,-1
 0 435 l 1,28,-1
 0 500 l 1,29,-1
 160 500 l 1,30,-1
 160 309 l 1,13,14
EndSplineSet
EndChar

StartChar: afii10093
Encoding: 1099 1099 388
Width: 538
Flags: W
LayerCount: 2
Fore
SplineSet
131 65 m 1,0,1
 161 59 161 59 186 59 c 0,2,3
 234 59 234 59 253 84.5 c 128,-1,4
 272 110 272 110 272 158 c 0,5,6
 272 203 272 203 253.5 228.5 c 128,-1,7
 235 254 235 254 188 254 c 0,8,9
 175 254 175 254 160 252.5 c 128,-1,10
 145 251 145 251 131 247 c 1,11,-1
 131 65 l 1,0,1
131 309 m 1,12,13
 151 313 151 313 169 314.5 c 128,-1,14
 187 316 187 316 203 316 c 0,15,16
 244 316 244 316 272 304.5 c 128,-1,17
 300 293 300 293 316.5 273 c 128,-1,18
 333 253 333 253 340 225.5 c 128,-1,19
 347 198 347 198 347 167 c 0,20,21
 347 76 347 76 306.5 35 c 128,-1,22
 266 -6 266 -6 172 -6 c 0,23,24
 114 -6 114 -6 59 0 c 1,25,-1
 59 500 l 1,26,-1
 131 500 l 1,27,-1
 131 309 l 1,12,13
407 500 m 1,28,-1
 479 500 l 1,29,-1
 479 0 l 1,30,-1
 407 0 l 1,31,-1
 407 500 l 1,28,-1
EndSplineSet
EndChar

StartChar: afii10094
Encoding: 1100 1100 389
Width: 377
Flags: W
LayerCount: 2
Fore
SplineSet
131 65 m 1,0,1
 161 59 161 59 186 59 c 0,2,3
 280 59 280 59 280 158 c 0,4,5
 280 203 280 203 258 228.5 c 128,-1,6
 236 254 236 254 188 254 c 0,7,8
 175 254 175 254 160 252.5 c 128,-1,9
 145 251 145 251 131 247 c 1,10,-1
 131 65 l 1,0,1
131 309 m 1,11,12
 151 313 151 313 169 314.5 c 128,-1,13
 187 316 187 316 203 316 c 0,14,15
 245 316 245 316 274 304.5 c 128,-1,16
 303 293 303 293 321 273 c 128,-1,17
 339 253 339 253 347 225.5 c 128,-1,18
 355 198 355 198 355 167 c 0,19,20
 355 76 355 76 311 35 c 128,-1,21
 267 -6 267 -6 173 -6 c 0,22,23
 114 -6 114 -6 59 0 c 1,24,-1
 59 500 l 1,25,-1
 131 500 l 1,26,-1
 131 309 l 1,11,12
EndSplineSet
EndChar

StartChar: afii10095
Encoding: 1101 1101 390
Width: 372
Flags: W
LayerCount: 2
Fore
SplineSet
94 283 m 1,0,-1
 260 283 l 1,1,2
 257 361 257 361 228.5 404 c 128,-1,3
 200 447 200 447 148 447 c 0,4,5
 116 447 116 447 92 438 c 128,-1,6
 68 429 68 429 53 418 c 1,7,-1
 28 475 l 1,8,9
 51 492 51 492 84 502 c 128,-1,10
 117 512 117 512 160 512 c 0,11,12
 250 512 250 512 292.5 447 c 128,-1,13
 335 382 335 382 335 250 c 0,14,15
 335 119 335 119 286.5 53.5 c 128,-1,16
 238 -12 238 -12 150 -12 c 0,17,18
 73 -12 73 -12 28 12 c 1,19,-1
 48 76 l 1,20,21
 67 65 67 65 93 59 c 128,-1,22
 119 53 119 53 143 53 c 0,23,24
 254 53 254 53 260 221 c 1,25,-1
 94 221 l 1,26,-1
 94 283 l 1,0,-1
EndSplineSet
EndChar

StartChar: afii10096
Encoding: 1102 1102 391
Width: 581
Flags: W
LayerCount: 2
Fore
SplineSet
377 -11 m 0,0,1
 289 -11 289 -11 251 50 c 128,-1,2
 213 111 213 111 208 225 c 1,3,-1
 131 225 l 1,4,-1
 131 0 l 1,5,-1
 59 0 l 1,6,-1
 59 500 l 1,7,-1
 131 500 l 1,8,-1
 131 290 l 1,9,-1
 209 290 l 1,10,11
 216 401 216 401 256.5 456 c 128,-1,12
 297 511 297 511 378 511 c 0,13,14
 467 511 467 511 505.5 442.5 c 128,-1,15
 544 374 544 374 544 250 c 0,16,17
 544 117 544 117 503 53 c 128,-1,18
 462 -11 462 -11 377 -11 c 0,0,1
279 250 m 0,19,20
 279 210 279 210 283.5 174.5 c 128,-1,21
 288 139 288 139 299.5 112 c 128,-1,22
 311 85 311 85 330 69.5 c 128,-1,23
 349 54 349 54 378 54 c 0,24,25
 427 54 427 54 448 99.5 c 128,-1,26
 469 145 469 145 469 250 c 0,27,28
 469 293 469 293 464.5 329 c 128,-1,29
 460 365 460 365 449.5 391 c 128,-1,30
 439 417 439 417 421.5 431.5 c 128,-1,31
 404 446 404 446 377 446 c 0,32,33
 325 446 325 446 302 397.5 c 128,-1,34
 279 349 279 349 279 250 c 0,19,20
EndSplineSet
EndChar

StartChar: afii10097
Encoding: 1103 1103 392
Width: 387
Flags: W
LayerCount: 2
Fore
SplineSet
262 207 m 1,0,-1
 201 195 l 1,1,-1
 100 0 l 1,2,-1
 15 0 l 1,3,-1
 108 172 l 1,4,-1
 140 208 l 1,5,6
 99 216 99 216 70.5 250 c 128,-1,7
 42 284 42 284 42 342 c 0,8,9
 42 432 42 432 90.5 472 c 128,-1,10
 139 512 139 512 223 512 c 0,11,12
 254 512 254 512 281.5 507.5 c 128,-1,13
 309 503 309 503 334 497 c 1,14,-1
 334 0 l 1,15,-1
 262 0 l 1,16,-1
 262 207 l 1,0,-1
262 253 m 1,17,-1
 262 438 l 1,18,19
 252 443 252 443 239 445 c 128,-1,20
 226 447 226 447 216 447 c 0,21,22
 168 447 168 447 142.5 422 c 128,-1,23
 117 397 117 397 117 346 c 0,24,25
 117 300 117 300 146 274.5 c 128,-1,26
 175 249 175 249 223 251 c 2,27,-1
 262 253 l 1,17,-1
EndSplineSet
EndChar

StartChar: afii10099
Encoding: 1106 1106 394
Width: 443
Flags: W
LayerCount: 2
Fore
SplineSet
-2 600 m 1,0,-1
 63 600 l 1,1,-1
 63 700 l 1,2,-1
 135 700 l 1,3,-1
 135 600 l 1,4,-1
 263 600 l 1,5,-1
 263 541 l 1,6,-1
 135 541 l 1,7,-1
 135 401 l 1,8,-1
 138 401 l 1,9,10
 158 428 158 428 187.5 444 c 128,-1,11
 217 460 217 460 261 460 c 0,12,13
 294 460 294 460 318.5 451 c 128,-1,14
 343 442 343 442 359 421 c 128,-1,15
 375 400 375 400 383 365 c 128,-1,16
 391 330 391 330 391 278 c 2,17,-1
 391 -29 l 2,18,19
 391 -130 391 -130 358 -173.5 c 128,-1,20
 325 -217 325 -217 251 -206 c 1,21,-1
 251 -141 l 1,22,23
 273 -141 273 -141 286.5 -133 c 128,-1,24
 300 -125 300 -125 307.5 -107.5 c 128,-1,25
 315 -90 315 -90 317 -63 c 128,-1,26
 319 -36 319 -36 319 0 c 2,27,-1
 319 250 l 2,28,29
 319 328 319 328 302.5 361.5 c 128,-1,30
 286 395 286 395 236 395 c 0,31,32
 201 395 201 395 173.5 372 c 128,-1,33
 146 349 146 349 135 312 c 1,34,-1
 135 0 l 1,35,-1
 63 0 l 1,36,-1
 63 541 l 1,37,-1
 -2 541 l 1,38,-1
 -2 600 l 1,0,-1
EndSplineSet
EndChar

StartChar: afii10101
Encoding: 1108 1108 396
Width: 376
Flags: W
LayerCount: 2
Fore
SplineSet
351 24 m 1,0,1
 328 7 328 7 293.5 -2 c 128,-1,2
 259 -11 259 -11 225 -11 c 0,3,4
 177 -11 177 -11 141.5 7.5 c 128,-1,5
 106 26 106 26 82.5 60 c 128,-1,6
 59 94 59 94 48 142.5 c 128,-1,7
 37 191 37 191 37 250 c 0,8,9
 37 377 37 377 89.5 444 c 128,-1,10
 142 511 142 511 230 511 c 0,11,12
 268 511 268 511 295.5 505 c 128,-1,13
 323 499 323 499 344 487 c 1,14,-1
 325 424 l 1,15,16
 305 435 305 435 282 440.5 c 128,-1,17
 259 446 259 446 235 446 c 0,18,19
 181 446 181 446 149.5 406 c 128,-1,20
 118 366 118 366 112 285 c 1,21,-1
 294 285 l 1,22,-1
 294 223 l 1,23,-1
 112 223 l 1,24,25
 114 189 114 189 122.5 158.5 c 128,-1,26
 131 128 131 128 146.5 104.5 c 128,-1,27
 162 81 162 81 185 67.5 c 128,-1,28
 208 54 208 54 241 54 c 0,29,30
 268 54 268 54 292 62.5 c 128,-1,31
 316 71 316 71 330 82 c 1,32,-1
 351 24 l 1,0,1
EndSplineSet
EndChar

StartChar: afii10104
Encoding: 1111 1111 399
Width: 231
Flags: W
LayerCount: 2
Fore
SplineSet
22 653 m 0,0,1
 22 676 22 676 32.5 688.5 c 128,-1,2
 43 701 43 701 63 701 c 256,3,4
 83 701 83 701 93.5 688.5 c 128,-1,5
 104 676 104 676 104 653 c 0,6,7
 104 632 104 632 93.5 619 c 128,-1,8
 83 606 83 606 63 606 c 256,9,10
 43 606 43 606 32.5 619 c 128,-1,11
 22 632 22 632 22 653 c 0,0,1
127 653 m 0,12,13
 127 676 127 676 137.5 688.5 c 128,-1,14
 148 701 148 701 168 701 c 256,15,16
 188 701 188 701 198.5 688.5 c 128,-1,17
 209 676 209 676 209 653 c 0,18,19
 209 632 209 632 198.5 619 c 128,-1,20
 188 606 188 606 168 606 c 256,21,22
 148 606 148 606 137.5 619 c 128,-1,23
 127 632 127 632 127 653 c 0,12,13
76 500 m 1,24,-1
 148 500 l 1,25,-1
 148 0 l 1,26,-1
 76 0 l 1,27,-1
 76 500 l 1,24,-1
EndSplineSet
EndChar

StartChar: afii10106
Encoding: 1113 1113 401
Width: 594
Flags: W
LayerCount: 2
Fore
SplineSet
348 309 m 1,0,1
 368 313 368 313 386 314.5 c 128,-1,2
 404 316 404 316 420 316 c 0,3,4
 462 316 462 316 491 304.5 c 128,-1,5
 520 293 520 293 538 273 c 128,-1,6
 556 253 556 253 564 225.5 c 128,-1,7
 572 198 572 198 572 167 c 0,8,9
 572 76 572 76 528 35 c 128,-1,10
 484 -6 484 -6 390 -6 c 0,11,12
 331 -6 331 -6 276 0 c 1,13,-1
 276 435 l 1,14,-1
 167 435 l 1,15,16
 164 350 164 350 159 270.5 c 128,-1,17
 154 191 154 191 141.5 130 c 128,-1,18
 129 69 129 69 106 32.5 c 128,-1,19
 83 -4 83 -4 45 -4 c 0,20,21
 28 -4 28 -4 16 -2 c 128,-1,22
 4 0 4 0 -6 5 c 1,23,-1
 5 68 l 1,24,25
 26 62 26 62 42.5 70.5 c 128,-1,26
 59 79 59 79 71 122.5 c 128,-1,27
 83 166 83 166 90.5 255.5 c 128,-1,28
 98 345 98 345 101 500 c 1,29,-1
 348 500 l 1,30,-1
 348 309 l 1,0,1
348 65 m 1,31,32
 378 59 378 59 403 59 c 0,33,34
 497 59 497 59 497 158 c 0,35,36
 497 203 497 203 475 228.5 c 128,-1,37
 453 254 453 254 405 254 c 0,38,39
 392 254 392 254 377 252.5 c 128,-1,40
 362 251 362 251 348 247 c 1,41,-1
 348 65 l 1,31,32
EndSplineSet
EndChar

StartChar: afii10107
Encoding: 1114 1114 402
Width: 621
Flags: W
LayerCount: 2
Fore
SplineSet
375 64 m 1,0,1
 390 61 390 61 404 60 c 128,-1,2
 418 59 418 59 430 59 c 0,3,4
 524 59 524 59 524 156 c 0,5,6
 524 249 524 249 432 249 c 0,7,8
 419 249 419 249 404 248 c 128,-1,9
 389 247 389 247 375 243 c 1,10,-1
 375 64 l 1,0,1
375 305 m 1,11,12
 395 309 395 309 413 310 c 128,-1,13
 431 311 431 311 447 311 c 0,14,15
 489 311 489 311 518 300.5 c 128,-1,16
 547 290 547 290 565 270.5 c 128,-1,17
 583 251 583 251 591 224.5 c 128,-1,18
 599 198 599 198 599 167 c 0,19,20
 599 76 599 76 555.5 35 c 128,-1,21
 512 -6 512 -6 417 -6 c 0,22,23
 358 -6 358 -6 303 0 c 1,24,-1
 303 226 l 1,25,-1
 131 226 l 1,26,-1
 131 0 l 1,27,-1
 59 0 l 1,28,-1
 59 500 l 1,29,-1
 131 500 l 1,30,-1
 131 291 l 1,31,-1
 303 291 l 1,32,-1
 303 500 l 1,33,-1
 375 500 l 1,34,-1
 375 305 l 1,11,12
EndSplineSet
EndChar

StartChar: afii10108
Encoding: 1115 1115 403
Width: 443
Flags: W
LayerCount: 2
Fore
SplineSet
-2 600 m 1,0,-1
 63 600 l 1,1,-1
 63 700 l 1,2,-1
 135 700 l 1,3,-1
 135 600 l 1,4,-1
 263 600 l 1,5,-1
 263 541 l 1,6,-1
 135 541 l 1,7,-1
 135 401 l 1,8,-1
 138 401 l 1,9,10
 158 428 158 428 187.5 444 c 128,-1,11
 217 460 217 460 261 460 c 0,12,13
 294 460 294 460 318.5 450.5 c 128,-1,14
 343 441 343 441 359 419 c 128,-1,15
 375 397 375 397 383 360.5 c 128,-1,16
 391 324 391 324 391 270 c 2,17,-1
 391 0 l 1,18,-1
 319 0 l 1,19,-1
 319 256 l 2,20,21
 319 326 319 326 302.5 360.5 c 128,-1,22
 286 395 286 395 236 395 c 0,23,24
 201 395 201 395 173 371.5 c 128,-1,25
 145 348 145 348 135 310 c 1,26,-1
 135 0 l 1,27,-1
 63 0 l 1,28,-1
 63 541 l 1,29,-1
 -2 541 l 1,30,-1
 -2 600 l 1,0,-1
EndSplineSet
EndChar

StartChar: afii10193
Encoding: 1119 1119 406
Width: 430
Flags: W
LayerCount: 2
Fore
SplineSet
59 0 m 1,0,-1
 59 500 l 1,1,-1
 131 500 l 1,2,-1
 131 69 l 1,3,-1
 299 69 l 1,4,-1
 299 500 l 1,5,-1
 371 500 l 1,6,-1
 371 0 l 1,7,-1
 253 0 l 1,8,-1
 240 -179 l 1,9,-1
 193 -179 l 1,10,-1
 177 0 l 1,11,-1
 59 0 l 1,0,-1
EndSplineSet
EndChar

StartChar: afii10146
Encoding: 1122 1122 407
Width: 504
Flags: W
LayerCount: 2
Fore
SplineSet
0 617 m 1,0,-1
 119 617 l 1,1,-1
 119 721 l 1,2,-1
 194 721 l 1,3,-1
 194 617 l 1,4,-1
 360 617 l 1,5,-1
 360 552 l 1,6,-1
 194 552 l 1,7,-1
 194 427 l 1,8,9
 198 428 198 428 208 429.5 c 128,-1,10
 218 431 218 431 229.5 432 c 128,-1,11
 241 433 241 433 253 434 c 128,-1,12
 265 435 265 435 275 435 c 0,13,14
 315 435 315 435 351.5 425.5 c 128,-1,15
 388 416 388 416 416 392.5 c 128,-1,16
 444 369 444 369 461 328.5 c 128,-1,17
 478 288 478 288 478 226 c 0,18,19
 478 106 478 106 418 49 c 128,-1,20
 358 -8 358 -8 256 -8 c 0,21,22
 245 -8 245 -8 228 -7.5 c 128,-1,23
 211 -7 211 -7 192.5 -5.5 c 128,-1,24
 174 -4 174 -4 154.5 -1.5 c 128,-1,25
 135 1 135 1 119 6 c 1,26,-1
 119 552 l 1,27,-1
 0 552 l 1,28,-1
 0 617 l 1,0,-1
264 61 m 0,29,30
 323 61 323 61 361 99 c 128,-1,31
 399 137 399 137 399 220 c 0,32,33
 399 264 399 264 388 292.5 c 128,-1,34
 377 321 377 321 358.5 337.5 c 128,-1,35
 340 354 340 354 315 360 c 128,-1,36
 290 366 290 366 263 366 c 0,37,38
 256 366 256 366 246 365 c 128,-1,39
 236 364 236 364 225.5 363 c 128,-1,40
 215 362 215 362 206.5 360 c 128,-1,41
 198 358 198 358 194 357 c 1,42,-1
 194 67 l 1,43,44
 205 64 205 64 224.5 62.5 c 128,-1,45
 244 61 244 61 264 61 c 0,29,30
EndSplineSet
Position2: "'cpsp' Capital Spacing lookup 0 subtable" dx=40 dy=0 dh=80 dv=0
EndChar

StartChar: afii10194
Encoding: 1123 1123 408
Width: 407
Flags: W
LayerCount: 2
Fore
SplineSet
0 500 m 1,0,-1
 88 500 l 1,1,-1
 88 700 l 1,2,-1
 160 700 l 1,3,-1
 160 500 l 1,4,-1
 289 500 l 1,5,-1
 289 438 l 1,6,-1
 160 438 l 1,7,-1
 160 309 l 1,8,9
 179 313 179 313 197.5 314.5 c 128,-1,10
 216 316 216 316 232 316 c 0,11,12
 274 316 274 316 303 304.5 c 128,-1,13
 332 293 332 293 350 273 c 128,-1,14
 368 253 368 253 376 225.5 c 128,-1,15
 384 198 384 198 384 167 c 0,16,17
 384 76 384 76 340.5 35 c 128,-1,18
 297 -6 297 -6 201 -6 c 0,19,20
 143 -6 143 -6 88 0 c 1,21,-1
 88 438 l 1,22,-1
 0 438 l 1,23,-1
 0 500 l 1,0,-1
160 64 m 1,24,25
 174 61 174 61 188 60 c 128,-1,26
 202 59 202 59 215 59 c 0,27,28
 264 59 264 59 286.5 86 c 128,-1,29
 309 113 309 113 309 158 c 0,30,31
 309 198 309 198 287 226 c 128,-1,32
 265 254 265 254 217 254 c 0,33,34
 204 254 204 254 189 252.5 c 128,-1,35
 174 251 174 251 160 247 c 1,36,-1
 160 64 l 1,24,25
EndSplineSet
EndChar

StartChar: afii10147
Encoding: 1138 1138 409
Width: 549
Flags: W
LayerCount: 2
Fore
SplineSet
43 350 m 0,0,1
 43 528 43 528 100 620 c 128,-1,2
 157 712 157 712 274 712 c 0,3,4
 337 712 337 712 381 686.5 c 128,-1,5
 425 661 425 661 452.5 614 c 128,-1,6
 480 567 480 567 493 500 c 128,-1,7
 506 433 506 433 506 350 c 0,8,9
 506 172 506 172 448.5 80 c 128,-1,10
 391 -12 391 -12 274 -12 c 0,11,12
 212 -12 212 -12 168 13.5 c 128,-1,13
 124 39 124 39 96 86 c 128,-1,14
 68 133 68 133 55.5 200 c 128,-1,15
 43 267 43 267 43 350 c 0,0,1
274 57 m 0,16,17
 345 57 345 57 384 122 c 128,-1,18
 423 187 423 187 427 322 c 1,19,-1
 122 322 l 1,20,21
 124 268 124 268 133.5 220 c 128,-1,22
 143 172 143 172 161.5 135.5 c 128,-1,23
 180 99 180 99 207.5 78 c 128,-1,24
 235 57 235 57 274 57 c 0,16,17
274 643 m 0,25,26
 205 643 205 643 166 580 c 128,-1,27
 127 517 127 517 122 389 c 1,28,-1
 427 389 l 1,29,30
 424 441 424 441 414 487 c 128,-1,31
 404 533 404 533 385.5 567.5 c 128,-1,32
 367 602 367 602 339.5 622.5 c 128,-1,33
 312 643 312 643 274 643 c 0,25,26
EndSplineSet
Position2: "'cpsp' Capital Spacing lookup 0 subtable" dx=40 dy=0 dh=80 dv=0
EndChar

StartChar: afii10195
Encoding: 1139 1139 410
Width: 432
Flags: W
LayerCount: 2
Fore
SplineSet
37 250 m 0,0,1
 37 381 37 381 83.5 446.5 c 128,-1,2
 130 512 130 512 216 512 c 0,3,4
 308 512 308 512 351.5 443.5 c 128,-1,5
 395 375 395 375 395 250 c 0,6,7
 395 117 395 117 348.5 52.5 c 128,-1,8
 302 -12 302 -12 216 -12 c 0,9,10
 124 -12 124 -12 80.5 56.5 c 128,-1,11
 37 125 37 125 37 250 c 0,0,1
320 279 m 1,12,13
 315 370 315 370 287 408.5 c 128,-1,14
 259 447 259 447 216 447 c 0,15,16
 196 447 196 447 178 438.5 c 128,-1,17
 160 430 160 430 146 410.5 c 128,-1,18
 132 391 132 391 123 359 c 128,-1,19
 114 327 114 327 112 279 c 1,20,-1
 320 279 l 1,12,13
112 220 m 1,21,22
 115 134 115 134 144.5 93.5 c 128,-1,23
 174 53 174 53 216 53 c 0,24,25
 235 53 235 53 253.5 61 c 128,-1,26
 272 69 272 69 286 88.5 c 128,-1,27
 300 108 300 108 309 139.5 c 128,-1,28
 318 171 318 171 320 220 c 1,29,-1
 112 220 l 1,21,22
EndSplineSet
EndChar

StartChar: afii10148
Encoding: 1140 1140 411
Width: 487
Flags: W
LayerCount: 2
Fore
SplineSet
252 -11 m 1,0,-1
 213 -11 l 1,1,-1
 -3 700 l 1,2,-1
 81 700 l 1,3,-1
 217 221 l 1,4,-1
 236 114 l 1,5,-1
 237 114 l 1,6,-1
 250 223 l 1,7,-1
 310 476 l 2,8,9
 327 550 327 550 342 595.5 c 128,-1,10
 357 641 357 641 373.5 665.5 c 128,-1,11
 390 690 390 690 410.5 698.5 c 128,-1,12
 431 707 431 707 459 707 c 0,13,14
 486 707 486 707 503 701.5 c 128,-1,15
 520 696 520 696 534 687 c 1,16,-1
 513 622 l 1,17,18
 498 631 498 631 485.5 634.5 c 128,-1,19
 473 638 473 638 462 638 c 0,20,21
 439 638 439 638 423.5 606.5 c 128,-1,22
 408 575 408 575 393 520 c 2,23,-1
 252 -11 l 1,0,-1
EndSplineSet
Position2: "'cpsp' Capital Spacing lookup 0 subtable" dx=40 dy=0 dh=80 dv=0
EndChar

StartChar: afii10196
Encoding: 1141 1141 412
Width: 410
Flags: W
LayerCount: 2
Fore
SplineSet
88 500 m 1,0,-1
 181 211 l 1,1,-1
 201 112 l 1,2,-1
 203 112 l 1,3,-1
 221 213 l 1,4,-1
 246 300 l 2,5,6
 260 349 260 349 272.5 387.5 c 128,-1,7
 285 426 285 426 299.5 452.5 c 128,-1,8
 314 479 314 479 332.5 493 c 128,-1,9
 351 507 351 507 377 507 c 0,10,11
 393 507 393 507 405.5 505 c 128,-1,12
 418 503 418 503 428 498 c 1,13,-1
 418 431 l 1,14,15
 407 435 407 435 397 437.5 c 128,-1,16
 387 440 387 440 377 433.5 c 128,-1,17
 367 427 367 427 356.5 409 c 128,-1,18
 346 391 346 391 334 356 c 2,19,-1
 214 -11 l 1,20,-1
 180 -11 l 1,21,-1
 5 500 l 1,22,-1
 88 500 l 1,0,-1
EndSplineSet
EndChar

StartChar: uni048A
Encoding: 1162 1162 413
Width: 558
Flags: W
LayerCount: 2
Fore
SplineSet
405 458 m 1,0,-1
 411 550 l 1,1,-1
 408 550 l 1,2,-1
 373 456 l 1,3,-1
 114 0 l 1,4,-1
 64 0 l 1,5,-1
 64 700 l 1,6,-1
 139 700 l 1,7,-1
 139 235 l 1,8,-1
 132 145 l 1,9,-1
 136 145 l 1,10,-1
 171 239 l 1,11,-1
 431 700 l 1,12,-1
 480 700 l 1,13,-1
 480 65 l 1,14,-1
 563 65 l 1,15,-1
 563 44 l 1,16,-1
 489 -130 l 1,17,-1
 439 -130 l 1,18,-1
 475 0 l 1,19,-1
 405 0 l 1,20,-1
 405 458 l 1,0,-1
207 870 m 1,21,22
 209 833 209 833 227.5 811 c 128,-1,23
 246 789 246 789 278 789 c 256,24,25
 310 789 310 789 327.5 811 c 128,-1,26
 345 833 345 833 348 869 c 1,27,-1
 412 854 l 1,28,29
 404 797 404 797 371 766 c 128,-1,30
 338 735 338 735 277 735 c 0,31,32
 218 735 218 735 179.5 763 c 128,-1,33
 141 791 141 791 135 853 c 1,34,-1
 207 870 l 1,21,22
EndSplineSet
Position2: "'cpsp' Capital Spacing lookup 0 subtable" dx=40 dy=0 dh=80 dv=0
EndChar

StartChar: uni048B
Encoding: 1163 1163 414
Width: 456
Flags: W
LayerCount: 2
Fore
SplineSet
308 288 m 1,0,-1
 314 364 l 1,1,-1
 310 364 l 1,2,-1
 275 280 l 1,3,-1
 106 0 l 1,4,-1
 59 0 l 1,5,-1
 59 500 l 1,6,-1
 131 500 l 1,7,-1
 131 203 l 1,8,-1
 125 130 l 1,9,-1
 129 130 l 1,10,-1
 162 212 l 1,11,-1
 333 500 l 1,12,-1
 380 500 l 1,13,-1
 380 65 l 1,14,-1
 460 65 l 1,15,-1
 460 44 l 1,16,-1
 386 -127 l 1,17,-1
 336 -127 l 1,18,-1
 372 0 l 1,19,-1
 308 0 l 1,20,-1
 308 288 l 1,0,-1
158 702 m 1,21,22
 163 656 163 656 182.5 636.5 c 128,-1,23
 202 617 202 617 228 617 c 256,24,25
 254 617 254 617 273.5 638 c 128,-1,26
 293 659 293 659 298 701 c 1,27,-1
 353 685 l 1,28,29
 345 625 345 625 309.5 593.5 c 128,-1,30
 274 562 274 562 226 562 c 0,31,32
 203 562 203 562 181.5 568.5 c 128,-1,33
 160 575 160 575 142.5 589.5 c 128,-1,34
 125 604 125 604 113 627 c 128,-1,35
 101 650 101 650 97 683 c 1,36,-1
 158 702 l 1,21,22
EndSplineSet
EndChar

StartChar: uni048E
Encoding: 1166 1166 417
Width: 451
Flags: W
LayerCount: 2
Fore
SplineSet
64 693 m 1,0,1
 96 702 96 702 132 705 c 128,-1,2
 168 708 168 708 203 708 c 0,3,4
 243 708 243 708 282 699 c 128,-1,5
 321 690 321 690 352.5 666 c 128,-1,6
 384 642 384 642 403.5 600 c 128,-1,7
 423 558 423 558 423 493 c 0,8,9
 423 421 423 421 399 373.5 c 128,-1,10
 375 326 375 326 337 300 c 1,11,-1
 396 207 l 1,12,-1
 349 175 l 1,13,-1
 285 274 l 1,14,15
 247 262 247 262 204 262 c 0,16,17
 200 262 200 262 191 262 c 128,-1,18
 182 262 182 262 172 262.5 c 128,-1,19
 162 263 162 263 152.5 264 c 128,-1,20
 143 265 143 265 139 266 c 1,21,-1
 139 0 l 1,22,-1
 64 0 l 1,23,-1
 64 693 l 1,0,1
231 462 m 1,24,-1
 294 359 l 1,25,26
 317 377 317 377 330.5 409 c 128,-1,27
 344 441 344 441 344 493 c 0,28,29
 344 535 344 535 332.5 563 c 128,-1,30
 321 591 321 591 302.5 608 c 128,-1,31
 284 625 284 625 259 632 c 128,-1,32
 234 639 234 639 207 639 c 0,33,34
 187 639 187 639 168.5 637.5 c 128,-1,35
 150 636 150 636 139 633 c 1,36,-1
 139 336 l 1,37,38
 143 334 143 334 151.5 333.5 c 128,-1,39
 160 333 160 333 169 332 c 128,-1,40
 178 331 178 331 186.5 331 c 128,-1,41
 195 331 195 331 199 331 c 0,42,43
 213 331 213 331 227 332 c 128,-1,44
 241 333 241 333 254 338 c 1,45,-1
 195 434 l 1,46,-1
 231 462 l 1,24,-1
EndSplineSet
Position2: "'cpsp' Capital Spacing lookup 0 subtable" dx=40 dy=0 dh=80 dv=0
EndChar

StartChar: uni048F
Encoding: 1167 1167 418
Width: 435
Flags: W
LayerCount: 2
Fore
SplineSet
59 500 m 1,0,-1
 110 500 l 1,1,-1
 121 446 l 1,2,-1
 125 446 l 1,3,4
 162 512 162 512 241 512 c 256,5,6
 320 512 320 512 359.5 453 c 128,-1,7
 399 394 399 394 399 260 c 0,8,9
 399 185 399 185 380.5 128.5 c 128,-1,10
 362 72 362 72 329 37 c 1,11,-1
 375 -26 l 1,12,-1
 331 -61 l 1,13,-1
 284 3 l 1,14,15
 252 -12 252 -12 214 -12 c 0,16,17
 185 -12 185 -12 168 -8.5 c 128,-1,18
 151 -5 151 -5 131 6 c 1,19,-1
 131 -200 l 1,20,-1
 59 -200 l 1,21,-1
 59 500 l 1,0,-1
234 160 m 1,22,-1
 283 92 l 1,23,24
 303 118 303 118 313.5 160.5 c 128,-1,25
 324 203 324 203 324 261 c 0,26,27
 324 303 324 303 318.5 337 c 128,-1,28
 313 371 313 371 301 395.5 c 128,-1,29
 289 420 289 420 270.5 433.5 c 128,-1,30
 252 447 252 447 225 447 c 0,31,32
 152 447 152 447 131 358 c 1,33,-1
 131 79 l 1,34,35
 145 67 145 67 162.5 60 c 128,-1,36
 180 53 180 53 209 53 c 0,37,38
 231 53 231 53 249 62 c 1,39,-1
 200 132 l 1,40,-1
 234 160 l 1,22,-1
EndSplineSet
EndChar

StartChar: afii10050
Encoding: 1168 1168 419
Width: 357
Flags: W
LayerCount: 2
Fore
SplineSet
306 700 m 1,0,-1
 320 834 l 1,1,-1
 370 834 l 1,2,-1
 370 631 l 1,3,-1
 139 631 l 1,4,-1
 139 0 l 1,5,-1
 64 0 l 1,6,-1
 64 700 l 1,7,-1
 306 700 l 1,0,-1
EndSplineSet
Position2: "'cpsp' Capital Spacing lookup 0 subtable" dx=40 dy=0 dh=80 dv=0
EndChar

StartChar: afii10098
Encoding: 1169 1169 420
Width: 296
Flags: W
LayerCount: 2
Fore
SplineSet
297 435 m 1,0,-1
 131 435 l 1,1,-1
 131 0 l 1,2,-1
 59 0 l 1,3,-1
 59 500 l 1,4,-1
 233 500 l 1,5,-1
 247 634 l 1,6,-1
 297 634 l 1,7,-1
 297 435 l 1,0,-1
EndSplineSet
EndChar

StartChar: uni0492
Encoding: 1170 1170 421
Width: 390
Flags: W
LayerCount: 2
Fore
SplineSet
392 631 m 1,0,-1
 161 631 l 1,1,-1
 161 383 l 1,2,-1
 333 383 l 1,3,-1
 333 320 l 1,4,-1
 161 320 l 1,5,-1
 161 0 l 1,6,-1
 86 0 l 1,7,-1
 86 320 l 1,8,-1
 7 320 l 1,9,-1
 7 383 l 1,10,-1
 86 383 l 1,11,-1
 86 700 l 1,12,-1
 392 700 l 1,13,-1
 392 631 l 1,0,-1
EndSplineSet
Substitution2: "'locl' Localized Forms in Cyrillic lookup 5 subtable" uni0492.alt
Substitution2: "'aalt' Access All Alternates lookup 0 subtable" uni0492.alt
Position2: "'cpsp' Capital Spacing lookup 0 subtable" dx=40 dy=0 dh=80 dv=0
EndChar

StartChar: uni0493
Encoding: 1171 1171 422
Width: 306
Flags: W
LayerCount: 2
Fore
SplineSet
306 435 m 1,0,-1
 140 435 l 1,1,-1
 140 280 l 1,2,-1
 278 280 l 1,3,-1
 278 221 l 1,4,-1
 140 221 l 1,5,-1
 140 0 l 1,6,-1
 68 0 l 1,7,-1
 68 221 l 1,8,-1
 0 221 l 1,9,-1
 0 280 l 1,10,-1
 68 280 l 1,11,-1
 68 500 l 1,12,-1
 306 500 l 1,13,-1
 306 435 l 1,0,-1
EndSplineSet
Substitution2: "'locl' Localized Forms in Cyrillic lookup 5 subtable" uni0493.alt
Substitution2: "'aalt' Access All Alternates lookup 0 subtable" uni0493.alt
EndChar

